G04 #@! TF.GenerationSoftware,KiCad,Pcbnew,(5.1.10)-1*
G04 #@! TF.CreationDate,2022-01-29T17:20:17-03:00*
G04 #@! TF.ProjectId,MXR,4d58522e-6b69-4636-9164-5f7063625858,rev?*
G04 #@! TF.SameCoordinates,Original*
G04 #@! TF.FileFunction,Copper,L1,Top*
G04 #@! TF.FilePolarity,Positive*
%FSLAX46Y46*%
G04 Gerber Fmt 4.6, Leading zero omitted, Abs format (unit mm)*
G04 Created by KiCad (PCBNEW (5.1.10)-1) date 2022-01-29 17:20:17*
%MOMM*%
%LPD*%
G01*
G04 APERTURE LIST*
G04 #@! TA.AperFunction,NonConductor*
%ADD10C,0.300000*%
G04 #@! TD*
G04 #@! TA.AperFunction,ComponentPad*
%ADD11C,3.810000*%
G04 #@! TD*
G04 #@! TA.AperFunction,ComponentPad*
%ADD12C,3.556000*%
G04 #@! TD*
G04 #@! TA.AperFunction,ComponentPad*
%ADD13O,2.080000X3.600000*%
G04 #@! TD*
G04 #@! TA.AperFunction,SMDPad,CuDef*
%ADD14R,3.100000X3.100000*%
G04 #@! TD*
G04 #@! TA.AperFunction,SMDPad,CuDef*
%ADD15R,0.600000X0.620000*%
G04 #@! TD*
G04 #@! TA.AperFunction,SMDPad,CuDef*
%ADD16R,7.620000X1.270000*%
G04 #@! TD*
G04 #@! TA.AperFunction,ViaPad*
%ADD17C,0.800000*%
G04 #@! TD*
G04 #@! TA.AperFunction,Conductor*
%ADD18C,0.600000*%
G04 #@! TD*
G04 #@! TA.AperFunction,Conductor*
%ADD19C,0.450000*%
G04 #@! TD*
G04 #@! TA.AperFunction,Conductor*
%ADD20C,0.400000*%
G04 #@! TD*
G04 #@! TA.AperFunction,Conductor*
%ADD21C,0.250000*%
G04 #@! TD*
G04 #@! TA.AperFunction,Conductor*
%ADD22C,2.804000*%
G04 #@! TD*
G04 APERTURE END LIST*
D10*
X127421380Y-83599411D02*
X127421380Y-82099411D01*
X127921380Y-83170840D01*
X128421380Y-82099411D01*
X128421380Y-83599411D01*
X129135665Y-83599411D02*
X129135665Y-82099411D01*
X129707094Y-82099411D02*
X130707094Y-83599411D01*
X130707094Y-82099411D02*
X129707094Y-83599411D01*
X131278522Y-82813697D02*
X131778522Y-82813697D01*
X131992808Y-83599411D02*
X131278522Y-83599411D01*
X131278522Y-82099411D01*
X131992808Y-82099411D01*
X133492808Y-83599411D02*
X132992808Y-82885125D01*
X132635665Y-83599411D02*
X132635665Y-82099411D01*
X133207094Y-82099411D01*
X133349951Y-82170840D01*
X133421380Y-82242268D01*
X133492808Y-82385125D01*
X133492808Y-82599411D01*
X133421380Y-82742268D01*
X133349951Y-82813697D01*
X133207094Y-82885125D01*
X132635665Y-82885125D01*
D11*
X154010360Y-88496140D03*
X147660360Y-88496140D03*
X154010360Y-82146140D03*
D12*
X150835360Y-85321140D03*
D11*
X147660360Y-82146140D03*
X168940480Y-88445340D03*
X162590480Y-88445340D03*
X168940480Y-82095340D03*
D12*
X165765480Y-85270340D03*
D11*
X162590480Y-82095340D03*
D13*
X147675600Y-108290360D03*
G04 #@! TA.AperFunction,ComponentPad*
G36*
G01*
X141555600Y-109840361D02*
X141555600Y-106740359D01*
G75*
G02*
X141805599Y-106490360I249999J0D01*
G01*
X143385601Y-106490360D01*
G75*
G02*
X143635600Y-106740359I0J-249999D01*
G01*
X143635600Y-109840361D01*
G75*
G02*
X143385601Y-110090360I-249999J0D01*
G01*
X141805599Y-110090360D01*
G75*
G02*
X141555600Y-109840361I0J249999D01*
G01*
G37*
G04 #@! TD.AperFunction*
G04 #@! TA.AperFunction,SMDPad,CuDef*
G36*
G01*
X155546940Y-95160380D02*
X155546940Y-95010380D01*
G75*
G02*
X155621940Y-94935380I75000J0D01*
G01*
X156446940Y-94935380D01*
G75*
G02*
X156521940Y-95010380I0J-75000D01*
G01*
X156521940Y-95160380D01*
G75*
G02*
X156446940Y-95235380I-75000J0D01*
G01*
X155621940Y-95235380D01*
G75*
G02*
X155546940Y-95160380I0J75000D01*
G01*
G37*
G04 #@! TD.AperFunction*
G04 #@! TA.AperFunction,SMDPad,CuDef*
G36*
G01*
X155546940Y-95810380D02*
X155546940Y-95660380D01*
G75*
G02*
X155621940Y-95585380I75000J0D01*
G01*
X156446940Y-95585380D01*
G75*
G02*
X156521940Y-95660380I0J-75000D01*
G01*
X156521940Y-95810380D01*
G75*
G02*
X156446940Y-95885380I-75000J0D01*
G01*
X155621940Y-95885380D01*
G75*
G02*
X155546940Y-95810380I0J75000D01*
G01*
G37*
G04 #@! TD.AperFunction*
G04 #@! TA.AperFunction,SMDPad,CuDef*
G36*
G01*
X155546940Y-96460380D02*
X155546940Y-96310380D01*
G75*
G02*
X155621940Y-96235380I75000J0D01*
G01*
X156446940Y-96235380D01*
G75*
G02*
X156521940Y-96310380I0J-75000D01*
G01*
X156521940Y-96460380D01*
G75*
G02*
X156446940Y-96535380I-75000J0D01*
G01*
X155621940Y-96535380D01*
G75*
G02*
X155546940Y-96460380I0J75000D01*
G01*
G37*
G04 #@! TD.AperFunction*
G04 #@! TA.AperFunction,SMDPad,CuDef*
G36*
G01*
X155546940Y-97110380D02*
X155546940Y-96960380D01*
G75*
G02*
X155621940Y-96885380I75000J0D01*
G01*
X156446940Y-96885380D01*
G75*
G02*
X156521940Y-96960380I0J-75000D01*
G01*
X156521940Y-97110380D01*
G75*
G02*
X156446940Y-97185380I-75000J0D01*
G01*
X155621940Y-97185380D01*
G75*
G02*
X155546940Y-97110380I0J75000D01*
G01*
G37*
G04 #@! TD.AperFunction*
G04 #@! TA.AperFunction,SMDPad,CuDef*
G36*
G01*
X155546940Y-97760380D02*
X155546940Y-97610380D01*
G75*
G02*
X155621940Y-97535380I75000J0D01*
G01*
X156446940Y-97535380D01*
G75*
G02*
X156521940Y-97610380I0J-75000D01*
G01*
X156521940Y-97760380D01*
G75*
G02*
X156446940Y-97835380I-75000J0D01*
G01*
X155621940Y-97835380D01*
G75*
G02*
X155546940Y-97760380I0J75000D01*
G01*
G37*
G04 #@! TD.AperFunction*
G04 #@! TA.AperFunction,SMDPad,CuDef*
G36*
G01*
X156946940Y-99160380D02*
X156946940Y-98335380D01*
G75*
G02*
X157021940Y-98260380I75000J0D01*
G01*
X157171940Y-98260380D01*
G75*
G02*
X157246940Y-98335380I0J-75000D01*
G01*
X157246940Y-99160380D01*
G75*
G02*
X157171940Y-99235380I-75000J0D01*
G01*
X157021940Y-99235380D01*
G75*
G02*
X156946940Y-99160380I0J75000D01*
G01*
G37*
G04 #@! TD.AperFunction*
G04 #@! TA.AperFunction,SMDPad,CuDef*
G36*
G01*
X157596940Y-99160380D02*
X157596940Y-98335380D01*
G75*
G02*
X157671940Y-98260380I75000J0D01*
G01*
X157821940Y-98260380D01*
G75*
G02*
X157896940Y-98335380I0J-75000D01*
G01*
X157896940Y-99160380D01*
G75*
G02*
X157821940Y-99235380I-75000J0D01*
G01*
X157671940Y-99235380D01*
G75*
G02*
X157596940Y-99160380I0J75000D01*
G01*
G37*
G04 #@! TD.AperFunction*
G04 #@! TA.AperFunction,SMDPad,CuDef*
G36*
G01*
X158246940Y-99160380D02*
X158246940Y-98335380D01*
G75*
G02*
X158321940Y-98260380I75000J0D01*
G01*
X158471940Y-98260380D01*
G75*
G02*
X158546940Y-98335380I0J-75000D01*
G01*
X158546940Y-99160380D01*
G75*
G02*
X158471940Y-99235380I-75000J0D01*
G01*
X158321940Y-99235380D01*
G75*
G02*
X158246940Y-99160380I0J75000D01*
G01*
G37*
G04 #@! TD.AperFunction*
G04 #@! TA.AperFunction,SMDPad,CuDef*
G36*
G01*
X158896940Y-99160380D02*
X158896940Y-98335380D01*
G75*
G02*
X158971940Y-98260380I75000J0D01*
G01*
X159121940Y-98260380D01*
G75*
G02*
X159196940Y-98335380I0J-75000D01*
G01*
X159196940Y-99160380D01*
G75*
G02*
X159121940Y-99235380I-75000J0D01*
G01*
X158971940Y-99235380D01*
G75*
G02*
X158896940Y-99160380I0J75000D01*
G01*
G37*
G04 #@! TD.AperFunction*
G04 #@! TA.AperFunction,SMDPad,CuDef*
G36*
G01*
X159546940Y-99160380D02*
X159546940Y-98335380D01*
G75*
G02*
X159621940Y-98260380I75000J0D01*
G01*
X159771940Y-98260380D01*
G75*
G02*
X159846940Y-98335380I0J-75000D01*
G01*
X159846940Y-99160380D01*
G75*
G02*
X159771940Y-99235380I-75000J0D01*
G01*
X159621940Y-99235380D01*
G75*
G02*
X159546940Y-99160380I0J75000D01*
G01*
G37*
G04 #@! TD.AperFunction*
G04 #@! TA.AperFunction,SMDPad,CuDef*
G36*
G01*
X160271940Y-97760380D02*
X160271940Y-97610380D01*
G75*
G02*
X160346940Y-97535380I75000J0D01*
G01*
X161171940Y-97535380D01*
G75*
G02*
X161246940Y-97610380I0J-75000D01*
G01*
X161246940Y-97760380D01*
G75*
G02*
X161171940Y-97835380I-75000J0D01*
G01*
X160346940Y-97835380D01*
G75*
G02*
X160271940Y-97760380I0J75000D01*
G01*
G37*
G04 #@! TD.AperFunction*
G04 #@! TA.AperFunction,SMDPad,CuDef*
G36*
G01*
X160271940Y-97110380D02*
X160271940Y-96960380D01*
G75*
G02*
X160346940Y-96885380I75000J0D01*
G01*
X161171940Y-96885380D01*
G75*
G02*
X161246940Y-96960380I0J-75000D01*
G01*
X161246940Y-97110380D01*
G75*
G02*
X161171940Y-97185380I-75000J0D01*
G01*
X160346940Y-97185380D01*
G75*
G02*
X160271940Y-97110380I0J75000D01*
G01*
G37*
G04 #@! TD.AperFunction*
G04 #@! TA.AperFunction,SMDPad,CuDef*
G36*
G01*
X160271940Y-96460380D02*
X160271940Y-96310380D01*
G75*
G02*
X160346940Y-96235380I75000J0D01*
G01*
X161171940Y-96235380D01*
G75*
G02*
X161246940Y-96310380I0J-75000D01*
G01*
X161246940Y-96460380D01*
G75*
G02*
X161171940Y-96535380I-75000J0D01*
G01*
X160346940Y-96535380D01*
G75*
G02*
X160271940Y-96460380I0J75000D01*
G01*
G37*
G04 #@! TD.AperFunction*
G04 #@! TA.AperFunction,SMDPad,CuDef*
G36*
G01*
X160271940Y-95810380D02*
X160271940Y-95660380D01*
G75*
G02*
X160346940Y-95585380I75000J0D01*
G01*
X161171940Y-95585380D01*
G75*
G02*
X161246940Y-95660380I0J-75000D01*
G01*
X161246940Y-95810380D01*
G75*
G02*
X161171940Y-95885380I-75000J0D01*
G01*
X160346940Y-95885380D01*
G75*
G02*
X160271940Y-95810380I0J75000D01*
G01*
G37*
G04 #@! TD.AperFunction*
G04 #@! TA.AperFunction,SMDPad,CuDef*
G36*
G01*
X160271940Y-95160380D02*
X160271940Y-95010380D01*
G75*
G02*
X160346940Y-94935380I75000J0D01*
G01*
X161171940Y-94935380D01*
G75*
G02*
X161246940Y-95010380I0J-75000D01*
G01*
X161246940Y-95160380D01*
G75*
G02*
X161171940Y-95235380I-75000J0D01*
G01*
X160346940Y-95235380D01*
G75*
G02*
X160271940Y-95160380I0J75000D01*
G01*
G37*
G04 #@! TD.AperFunction*
G04 #@! TA.AperFunction,SMDPad,CuDef*
G36*
G01*
X159546940Y-94435380D02*
X159546940Y-93610380D01*
G75*
G02*
X159621940Y-93535380I75000J0D01*
G01*
X159771940Y-93535380D01*
G75*
G02*
X159846940Y-93610380I0J-75000D01*
G01*
X159846940Y-94435380D01*
G75*
G02*
X159771940Y-94510380I-75000J0D01*
G01*
X159621940Y-94510380D01*
G75*
G02*
X159546940Y-94435380I0J75000D01*
G01*
G37*
G04 #@! TD.AperFunction*
G04 #@! TA.AperFunction,SMDPad,CuDef*
G36*
G01*
X158896940Y-94435380D02*
X158896940Y-93610380D01*
G75*
G02*
X158971940Y-93535380I75000J0D01*
G01*
X159121940Y-93535380D01*
G75*
G02*
X159196940Y-93610380I0J-75000D01*
G01*
X159196940Y-94435380D01*
G75*
G02*
X159121940Y-94510380I-75000J0D01*
G01*
X158971940Y-94510380D01*
G75*
G02*
X158896940Y-94435380I0J75000D01*
G01*
G37*
G04 #@! TD.AperFunction*
G04 #@! TA.AperFunction,SMDPad,CuDef*
G36*
G01*
X158246940Y-94435380D02*
X158246940Y-93610380D01*
G75*
G02*
X158321940Y-93535380I75000J0D01*
G01*
X158471940Y-93535380D01*
G75*
G02*
X158546940Y-93610380I0J-75000D01*
G01*
X158546940Y-94435380D01*
G75*
G02*
X158471940Y-94510380I-75000J0D01*
G01*
X158321940Y-94510380D01*
G75*
G02*
X158246940Y-94435380I0J75000D01*
G01*
G37*
G04 #@! TD.AperFunction*
G04 #@! TA.AperFunction,SMDPad,CuDef*
G36*
G01*
X157596940Y-94435380D02*
X157596940Y-93610380D01*
G75*
G02*
X157671940Y-93535380I75000J0D01*
G01*
X157821940Y-93535380D01*
G75*
G02*
X157896940Y-93610380I0J-75000D01*
G01*
X157896940Y-94435380D01*
G75*
G02*
X157821940Y-94510380I-75000J0D01*
G01*
X157671940Y-94510380D01*
G75*
G02*
X157596940Y-94435380I0J75000D01*
G01*
G37*
G04 #@! TD.AperFunction*
G04 #@! TA.AperFunction,SMDPad,CuDef*
G36*
G01*
X156946940Y-94435380D02*
X156946940Y-93610380D01*
G75*
G02*
X157021940Y-93535380I75000J0D01*
G01*
X157171940Y-93535380D01*
G75*
G02*
X157246940Y-93610380I0J-75000D01*
G01*
X157246940Y-94435380D01*
G75*
G02*
X157171940Y-94510380I-75000J0D01*
G01*
X157021940Y-94510380D01*
G75*
G02*
X156946940Y-94435380I0J75000D01*
G01*
G37*
G04 #@! TD.AperFunction*
D14*
X158396940Y-96385380D03*
G04 #@! TA.AperFunction,SMDPad,CuDef*
G36*
G01*
X151002780Y-95920340D02*
X151002780Y-95575340D01*
G75*
G02*
X151150280Y-95427840I147500J0D01*
G01*
X151445280Y-95427840D01*
G75*
G02*
X151592780Y-95575340I0J-147500D01*
G01*
X151592780Y-95920340D01*
G75*
G02*
X151445280Y-96067840I-147500J0D01*
G01*
X151150280Y-96067840D01*
G75*
G02*
X151002780Y-95920340I0J147500D01*
G01*
G37*
G04 #@! TD.AperFunction*
G04 #@! TA.AperFunction,SMDPad,CuDef*
G36*
G01*
X151972780Y-95920340D02*
X151972780Y-95575340D01*
G75*
G02*
X152120280Y-95427840I147500J0D01*
G01*
X152415280Y-95427840D01*
G75*
G02*
X152562780Y-95575340I0J-147500D01*
G01*
X152562780Y-95920340D01*
G75*
G02*
X152415280Y-96067840I-147500J0D01*
G01*
X152120280Y-96067840D01*
G75*
G02*
X151972780Y-95920340I0J147500D01*
G01*
G37*
G04 #@! TD.AperFunction*
G04 #@! TA.AperFunction,SMDPad,CuDef*
G36*
G01*
X154000700Y-93980220D02*
X154000700Y-94325220D01*
G75*
G02*
X153853200Y-94472720I-147500J0D01*
G01*
X153558200Y-94472720D01*
G75*
G02*
X153410700Y-94325220I0J147500D01*
G01*
X153410700Y-93980220D01*
G75*
G02*
X153558200Y-93832720I147500J0D01*
G01*
X153853200Y-93832720D01*
G75*
G02*
X154000700Y-93980220I0J-147500D01*
G01*
G37*
G04 #@! TD.AperFunction*
G04 #@! TA.AperFunction,SMDPad,CuDef*
G36*
G01*
X154970700Y-93980220D02*
X154970700Y-94325220D01*
G75*
G02*
X154823200Y-94472720I-147500J0D01*
G01*
X154528200Y-94472720D01*
G75*
G02*
X154380700Y-94325220I0J147500D01*
G01*
X154380700Y-93980220D01*
G75*
G02*
X154528200Y-93832720I147500J0D01*
G01*
X154823200Y-93832720D01*
G75*
G02*
X154970700Y-93980220I0J-147500D01*
G01*
G37*
G04 #@! TD.AperFunction*
G04 #@! TA.AperFunction,SMDPad,CuDef*
G36*
G01*
X156296580Y-100763840D02*
X156641580Y-100763840D01*
G75*
G02*
X156789080Y-100911340I0J-147500D01*
G01*
X156789080Y-101206340D01*
G75*
G02*
X156641580Y-101353840I-147500J0D01*
G01*
X156296580Y-101353840D01*
G75*
G02*
X156149080Y-101206340I0J147500D01*
G01*
X156149080Y-100911340D01*
G75*
G02*
X156296580Y-100763840I147500J0D01*
G01*
G37*
G04 #@! TD.AperFunction*
G04 #@! TA.AperFunction,SMDPad,CuDef*
G36*
G01*
X156296580Y-99793840D02*
X156641580Y-99793840D01*
G75*
G02*
X156789080Y-99941340I0J-147500D01*
G01*
X156789080Y-100236340D01*
G75*
G02*
X156641580Y-100383840I-147500J0D01*
G01*
X156296580Y-100383840D01*
G75*
G02*
X156149080Y-100236340I0J147500D01*
G01*
X156149080Y-99941340D01*
G75*
G02*
X156296580Y-99793840I147500J0D01*
G01*
G37*
G04 #@! TD.AperFunction*
G04 #@! TA.AperFunction,SMDPad,CuDef*
G36*
G01*
X158119860Y-100207860D02*
X158119860Y-99862860D01*
G75*
G02*
X158267360Y-99715360I147500J0D01*
G01*
X158562360Y-99715360D01*
G75*
G02*
X158709860Y-99862860I0J-147500D01*
G01*
X158709860Y-100207860D01*
G75*
G02*
X158562360Y-100355360I-147500J0D01*
G01*
X158267360Y-100355360D01*
G75*
G02*
X158119860Y-100207860I0J147500D01*
G01*
G37*
G04 #@! TD.AperFunction*
G04 #@! TA.AperFunction,SMDPad,CuDef*
G36*
G01*
X159089860Y-100207860D02*
X159089860Y-99862860D01*
G75*
G02*
X159237360Y-99715360I147500J0D01*
G01*
X159532360Y-99715360D01*
G75*
G02*
X159679860Y-99862860I0J-147500D01*
G01*
X159679860Y-100207860D01*
G75*
G02*
X159532360Y-100355360I-147500J0D01*
G01*
X159237360Y-100355360D01*
G75*
G02*
X159089860Y-100207860I0J147500D01*
G01*
G37*
G04 #@! TD.AperFunction*
D15*
X163240980Y-97706180D03*
X162320980Y-97706180D03*
G04 #@! TA.AperFunction,SMDPad,CuDef*
G36*
G01*
X162343880Y-95996980D02*
X161998880Y-95996980D01*
G75*
G02*
X161851380Y-95849480I0J147500D01*
G01*
X161851380Y-95554480D01*
G75*
G02*
X161998880Y-95406980I147500J0D01*
G01*
X162343880Y-95406980D01*
G75*
G02*
X162491380Y-95554480I0J-147500D01*
G01*
X162491380Y-95849480D01*
G75*
G02*
X162343880Y-95996980I-147500J0D01*
G01*
G37*
G04 #@! TD.AperFunction*
G04 #@! TA.AperFunction,SMDPad,CuDef*
G36*
G01*
X162343880Y-95026980D02*
X161998880Y-95026980D01*
G75*
G02*
X161851380Y-94879480I0J147500D01*
G01*
X161851380Y-94584480D01*
G75*
G02*
X161998880Y-94436980I147500J0D01*
G01*
X162343880Y-94436980D01*
G75*
G02*
X162491380Y-94584480I0J-147500D01*
G01*
X162491380Y-94879480D01*
G75*
G02*
X162343880Y-95026980I-147500J0D01*
G01*
G37*
G04 #@! TD.AperFunction*
D16*
X179816760Y-97657920D03*
X130632200Y-95869760D03*
G04 #@! TA.AperFunction,SMDPad,CuDef*
G36*
G01*
X153621960Y-95447900D02*
X153966960Y-95447900D01*
G75*
G02*
X154114460Y-95595400I0J-147500D01*
G01*
X154114460Y-95890400D01*
G75*
G02*
X153966960Y-96037900I-147500J0D01*
G01*
X153621960Y-96037900D01*
G75*
G02*
X153474460Y-95890400I0J147500D01*
G01*
X153474460Y-95595400D01*
G75*
G02*
X153621960Y-95447900I147500J0D01*
G01*
G37*
G04 #@! TD.AperFunction*
G04 #@! TA.AperFunction,SMDPad,CuDef*
G36*
G01*
X153621960Y-96417900D02*
X153966960Y-96417900D01*
G75*
G02*
X154114460Y-96565400I0J-147500D01*
G01*
X154114460Y-96860400D01*
G75*
G02*
X153966960Y-97007900I-147500J0D01*
G01*
X153621960Y-97007900D01*
G75*
G02*
X153474460Y-96860400I0J147500D01*
G01*
X153474460Y-96565400D01*
G75*
G02*
X153621960Y-96417900I147500J0D01*
G01*
G37*
G04 #@! TD.AperFunction*
G04 #@! TA.AperFunction,SMDPad,CuDef*
G36*
G01*
X158239680Y-102133180D02*
X158584680Y-102133180D01*
G75*
G02*
X158732180Y-102280680I0J-147500D01*
G01*
X158732180Y-102575680D01*
G75*
G02*
X158584680Y-102723180I-147500J0D01*
G01*
X158239680Y-102723180D01*
G75*
G02*
X158092180Y-102575680I0J147500D01*
G01*
X158092180Y-102280680D01*
G75*
G02*
X158239680Y-102133180I147500J0D01*
G01*
G37*
G04 #@! TD.AperFunction*
G04 #@! TA.AperFunction,SMDPad,CuDef*
G36*
G01*
X158239680Y-103103180D02*
X158584680Y-103103180D01*
G75*
G02*
X158732180Y-103250680I0J-147500D01*
G01*
X158732180Y-103545680D01*
G75*
G02*
X158584680Y-103693180I-147500J0D01*
G01*
X158239680Y-103693180D01*
G75*
G02*
X158092180Y-103545680I0J147500D01*
G01*
X158092180Y-103250680D01*
G75*
G02*
X158239680Y-103103180I147500J0D01*
G01*
G37*
G04 #@! TD.AperFunction*
D17*
X160609280Y-100091240D03*
X156451300Y-102113080D03*
X162133280Y-93718380D03*
X152529540Y-94101920D03*
X159405320Y-92786200D03*
X162323780Y-96674940D03*
X152397460Y-97116900D03*
X158429960Y-104592120D03*
X155572460Y-92702380D03*
X152549860Y-105727500D03*
X155232100Y-100009960D03*
X163306760Y-95752920D03*
D18*
X152471120Y-97043240D02*
X152397460Y-97116900D01*
D19*
X160759440Y-95085380D02*
X160759440Y-94455280D01*
X160759440Y-94455280D02*
X160327040Y-94022880D01*
X160327040Y-94022880D02*
X159696940Y-94022880D01*
X159696940Y-94022880D02*
X159046940Y-94022880D01*
D18*
X154518120Y-97035380D02*
X154195640Y-96712900D01*
X154195640Y-96712900D02*
X153794460Y-96712900D01*
X154518120Y-97035380D02*
X155115500Y-97035380D01*
D19*
X160520380Y-96398320D02*
X160520380Y-97048320D01*
X159046940Y-93144580D02*
X159405320Y-92786200D01*
X159046940Y-94022880D02*
X159046940Y-93144580D01*
D18*
X158422340Y-104584500D02*
X158429960Y-104592120D01*
X155115500Y-97035380D02*
X156271940Y-97035380D01*
D19*
X161602420Y-96460390D02*
X160596950Y-96460390D01*
X161816970Y-96674940D02*
X161602420Y-96460390D01*
X162323780Y-96674940D02*
X161816970Y-96674940D01*
X156034440Y-97035380D02*
X156034440Y-97685380D01*
X156034440Y-97035380D02*
X156034440Y-96467910D01*
D18*
X152580340Y-94152720D02*
X152529540Y-94101920D01*
X153705700Y-94152720D02*
X152580340Y-94152720D01*
X153794460Y-96712900D02*
X153459320Y-96712900D01*
X153055320Y-97116900D02*
X152397460Y-97116900D01*
X153459320Y-96712900D02*
X153055320Y-97116900D01*
D20*
X156892960Y-94022880D02*
X155572460Y-92702380D01*
X157096940Y-94022880D02*
X156892960Y-94022880D01*
X159384860Y-98752800D02*
X159389780Y-98747880D01*
X159384860Y-100035360D02*
X159384860Y-98752800D01*
D19*
X159389780Y-98747880D02*
X159059350Y-98747880D01*
X159696940Y-98747880D02*
X159389780Y-98747880D01*
D18*
X162171380Y-93756480D02*
X162133280Y-93718380D01*
X162171380Y-94731980D02*
X162171380Y-93756480D01*
X156451300Y-101076620D02*
X156469080Y-101058840D01*
X156451300Y-102113080D02*
X156451300Y-101076620D01*
X159440740Y-100091240D02*
X159384860Y-100035360D01*
X160609280Y-100091240D02*
X159440740Y-100091240D01*
X158429960Y-103415960D02*
X158412180Y-103398180D01*
X158429960Y-104592120D02*
X158429960Y-103415960D01*
D21*
X157746940Y-98747880D02*
X157746940Y-99235380D01*
D20*
X157746940Y-99257148D02*
X157576520Y-99427568D01*
X157746940Y-98747880D02*
X157746940Y-99257148D01*
X157576520Y-99427568D02*
X157576520Y-100660200D01*
X158412180Y-101495860D02*
X158412180Y-102428180D01*
X157576520Y-100660200D02*
X158412180Y-101495860D01*
D22*
X147269200Y-95869760D02*
X149059900Y-95869760D01*
X130632200Y-95869760D02*
X147454620Y-95869760D01*
D21*
X151175860Y-95869760D02*
X151297780Y-95747840D01*
D18*
X149059900Y-95869760D02*
X151175860Y-95869760D01*
D21*
X153789520Y-95747840D02*
X153794460Y-95742900D01*
D18*
X152267780Y-95747840D02*
X153789520Y-95747840D01*
D21*
X156026920Y-95742900D02*
X156034440Y-95735380D01*
D18*
X153794460Y-95742900D02*
X154906840Y-95742900D01*
D20*
X155744487Y-95785390D02*
X156034440Y-95785390D01*
X155701997Y-95742900D02*
X155744487Y-95785390D01*
X154906840Y-95742900D02*
X155701997Y-95742900D01*
D18*
X161919440Y-95727520D02*
X161439860Y-95727520D01*
D19*
X160759440Y-95735380D02*
X161630600Y-95735380D01*
D20*
X158379160Y-98765660D02*
X158396940Y-98747880D01*
X158379160Y-99748340D02*
X158379160Y-98765660D01*
D18*
X155101780Y-94152720D02*
X154675700Y-94152720D01*
X156034440Y-95085380D02*
X155101780Y-94152720D01*
X162222320Y-95752920D02*
X162171380Y-95701980D01*
X163306760Y-95752920D02*
X162222320Y-95752920D01*
X156469080Y-99325730D02*
X157046930Y-98747880D01*
X156469080Y-100088840D02*
X156469080Y-99325730D01*
X155310980Y-100088840D02*
X155232100Y-100009960D01*
X156469080Y-100088840D02*
X155310980Y-100088840D01*
D21*
X147901660Y-108064300D02*
X147675600Y-108290360D01*
D18*
X148440140Y-107525820D02*
X147675600Y-108290360D01*
X149987000Y-108290360D02*
X152549860Y-105727500D01*
X147675600Y-108290360D02*
X149987000Y-108290360D01*
X152549860Y-102692200D02*
X155232100Y-100009960D01*
X152549860Y-105727500D02*
X152549860Y-102692200D01*
D22*
X165127940Y-97751900D02*
X165514020Y-97751900D01*
X176949100Y-97754440D02*
X179298600Y-97754440D01*
D21*
X176949100Y-97754440D02*
X163289240Y-97754440D01*
D22*
X176949100Y-97754440D02*
X165422580Y-97754440D01*
D18*
X163289240Y-97754440D02*
X163240980Y-97706180D01*
X165422580Y-97754440D02*
X163289240Y-97754440D01*
D19*
X160780240Y-97706180D02*
X160759440Y-97685380D01*
X162320980Y-97706180D02*
X160780240Y-97706180D01*
D20*
X158396940Y-94022880D02*
X158396940Y-92610578D01*
D19*
X158396940Y-92610578D02*
X158396940Y-86973080D01*
X158396940Y-86973080D02*
X158396940Y-86751160D01*
X159877760Y-85270340D02*
X165765480Y-85270340D01*
X158396940Y-86751160D02*
X159877760Y-85270340D01*
D20*
X157746940Y-94022880D02*
X157746940Y-92755480D01*
D19*
X156337000Y-85321140D02*
X150835360Y-85321140D01*
X157747850Y-86767550D02*
X156393790Y-85413490D01*
X157746930Y-87242322D02*
X157746930Y-86767550D01*
X157746940Y-87242332D02*
X157746930Y-87242322D01*
X157746940Y-92755480D02*
X157746940Y-87242332D01*
M02*
