M48
; DRILL file {KiCad (5.1.10)-1} date 01/29/22 17:20:20
; FORMAT={-:-/ absolute / metric / decimal}
; #@! TF.CreationDate,2022-01-29T17:20:20-03:00
; #@! TF.GenerationSoftware,Kicad,Pcbnew,(5.1.10)-1
FMAT,2
METRIC
T1C0.400
T2C1.270
T3C1.400
T4C1.524
%
G90
G05
T1
X152.397Y-97.117
X152.53Y-94.102
X152.55Y-105.727
X155.232Y-100.01
X155.572Y-92.702
X156.451Y-102.113
X158.43Y-104.592
X159.405Y-92.786
X160.609Y-100.091
X162.133Y-93.718
X162.324Y-96.675
X163.307Y-95.753
T2
X150.835Y-85.321
X165.765Y-85.27
T3
X142.596Y-108.29
X147.676Y-108.29
T4
X147.66Y-82.146
X147.66Y-88.496
X154.01Y-82.146
X154.01Y-88.496
X162.59Y-82.095
X162.59Y-88.445
X168.94Y-82.095
X168.94Y-88.445
T0
M30
