G04 #@! TF.GenerationSoftware,KiCad,Pcbnew,(5.1.10)-1*
G04 #@! TF.CreationDate,2022-01-29T16:50:28-03:00*
G04 #@! TF.ProjectId,CPL,43504c2e-6b69-4636-9164-5f7063625858,rev?*
G04 #@! TF.SameCoordinates,Original*
G04 #@! TF.FileFunction,Copper,L1,Top*
G04 #@! TF.FilePolarity,Positive*
%FSLAX46Y46*%
G04 Gerber Fmt 4.6, Leading zero omitted, Abs format (unit mm)*
G04 Created by KiCad (PCBNEW (5.1.10)-1) date 2022-01-29 16:50:28*
%MOMM*%
%LPD*%
G01*
G04 APERTURE LIST*
G04 #@! TA.AperFunction,NonConductor*
%ADD10C,0.300000*%
G04 #@! TD*
G04 #@! TA.AperFunction,SMDPad,CuDef*
%ADD11R,2.803900X7.620000*%
G04 #@! TD*
G04 #@! TA.AperFunction,SMDPad,CuDef*
%ADD12R,7.620000X2.803900*%
G04 #@! TD*
G04 #@! TA.AperFunction,SMDPad,CuDef*
%ADD13R,0.400000X0.350000*%
G04 #@! TD*
G04 #@! TA.AperFunction,ViaPad*
%ADD14C,0.800000*%
G04 #@! TD*
G04 #@! TA.AperFunction,Conductor*
%ADD15C,0.600000*%
G04 #@! TD*
G04 #@! TA.AperFunction,Conductor*
%ADD16C,2.803900*%
G04 #@! TD*
G04 #@! TA.AperFunction,Conductor*
%ADD17C,0.350000*%
G04 #@! TD*
G04 #@! TA.AperFunction,Conductor*
%ADD18C,0.250000*%
G04 #@! TD*
G04 #@! TA.AperFunction,Conductor*
%ADD19C,2.804000*%
G04 #@! TD*
G04 APERTURE END LIST*
D10*
X169977882Y-136934331D02*
X169977882Y-135434331D01*
X170549311Y-135434331D01*
X170692168Y-135505760D01*
X170763597Y-135577188D01*
X170835025Y-135720045D01*
X170835025Y-135934331D01*
X170763597Y-136077188D01*
X170692168Y-136148617D01*
X170549311Y-136220045D01*
X169977882Y-136220045D01*
X171406454Y-136862902D02*
X171620740Y-136934331D01*
X171977882Y-136934331D01*
X172120740Y-136862902D01*
X172192168Y-136791474D01*
X172263597Y-136648617D01*
X172263597Y-136505760D01*
X172192168Y-136362902D01*
X172120740Y-136291474D01*
X171977882Y-136220045D01*
X171692168Y-136148617D01*
X171549311Y-136077188D01*
X171477882Y-136005760D01*
X171406454Y-135862902D01*
X171406454Y-135720045D01*
X171477882Y-135577188D01*
X171549311Y-135505760D01*
X171692168Y-135434331D01*
X172049311Y-135434331D01*
X172263597Y-135505760D01*
X172906454Y-136934331D02*
X172906454Y-135434331D01*
X174763597Y-136934331D02*
X174763597Y-135434331D01*
X175335025Y-135434331D01*
X175477882Y-135505760D01*
X175549311Y-135577188D01*
X175620740Y-135720045D01*
X175620740Y-135934331D01*
X175549311Y-136077188D01*
X175477882Y-136148617D01*
X175335025Y-136220045D01*
X174763597Y-136220045D01*
X176477882Y-136934331D02*
X176335025Y-136862902D01*
X176263597Y-136791474D01*
X176192168Y-136648617D01*
X176192168Y-136220045D01*
X176263597Y-136077188D01*
X176335025Y-136005760D01*
X176477882Y-135934331D01*
X176692168Y-135934331D01*
X176835025Y-136005760D01*
X176906454Y-136077188D01*
X176977882Y-136220045D01*
X176977882Y-136648617D01*
X176906454Y-136791474D01*
X176835025Y-136862902D01*
X176692168Y-136934331D01*
X176477882Y-136934331D01*
X177835025Y-136934331D02*
X177692168Y-136862902D01*
X177620740Y-136720045D01*
X177620740Y-135434331D01*
X178406454Y-136934331D02*
X178406454Y-135934331D01*
X178406454Y-135434331D02*
X178335025Y-135505760D01*
X178406454Y-135577188D01*
X178477882Y-135505760D01*
X178406454Y-135434331D01*
X178406454Y-135577188D01*
X179120740Y-136362902D02*
X180263597Y-136362902D01*
X180977882Y-135434331D02*
X180977882Y-136648617D01*
X181049311Y-136791474D01*
X181120740Y-136862902D01*
X181263597Y-136934331D01*
X181549311Y-136934331D01*
X181692168Y-136862902D01*
X181763597Y-136791474D01*
X181835025Y-136648617D01*
X181835025Y-135434331D01*
X182477882Y-136862902D02*
X182692168Y-136934331D01*
X183049311Y-136934331D01*
X183192168Y-136862902D01*
X183263597Y-136791474D01*
X183335025Y-136648617D01*
X183335025Y-136505760D01*
X183263597Y-136362902D01*
X183192168Y-136291474D01*
X183049311Y-136220045D01*
X182763597Y-136148617D01*
X182620740Y-136077188D01*
X182549311Y-136005760D01*
X182477882Y-135862902D01*
X182477882Y-135720045D01*
X182549311Y-135577188D01*
X182620740Y-135505760D01*
X182763597Y-135434331D01*
X183120740Y-135434331D01*
X183335025Y-135505760D01*
X183977882Y-136934331D02*
X183977882Y-135434331D01*
X184549311Y-135434331D01*
X184692168Y-135505760D01*
X184763597Y-135577188D01*
X184835025Y-135720045D01*
X184835025Y-135934331D01*
X184763597Y-136077188D01*
X184692168Y-136148617D01*
X184549311Y-136220045D01*
X183977882Y-136220045D01*
D11*
X162892740Y-134073900D03*
D12*
X183184800Y-114686080D03*
X141556740Y-114658140D03*
G04 #@! TA.AperFunction,SMDPad,CuDef*
G36*
G01*
X166253000Y-117151800D02*
X167503000Y-117151800D01*
G75*
G02*
X167753000Y-117401800I0J-250000D01*
G01*
X167753000Y-118151800D01*
G75*
G02*
X167503000Y-118401800I-250000J0D01*
G01*
X166253000Y-118401800D01*
G75*
G02*
X166003000Y-118151800I0J250000D01*
G01*
X166003000Y-117401800D01*
G75*
G02*
X166253000Y-117151800I250000J0D01*
G01*
G37*
G04 #@! TD.AperFunction*
G04 #@! TA.AperFunction,SMDPad,CuDef*
G36*
G01*
X166253000Y-119951800D02*
X167503000Y-119951800D01*
G75*
G02*
X167753000Y-120201800I0J-250000D01*
G01*
X167753000Y-120951800D01*
G75*
G02*
X167503000Y-121201800I-250000J0D01*
G01*
X166253000Y-121201800D01*
G75*
G02*
X166003000Y-120951800I0J250000D01*
G01*
X166003000Y-120201800D01*
G75*
G02*
X166253000Y-119951800I250000J0D01*
G01*
G37*
G04 #@! TD.AperFunction*
D13*
X162954740Y-114644760D03*
X162954740Y-115194760D03*
X163654740Y-114644760D03*
X163654740Y-115194760D03*
D14*
X167454740Y-123009760D03*
D15*
X167464740Y-122999760D02*
X167454740Y-123009760D01*
X167464740Y-119999760D02*
X167464740Y-122999760D01*
D16*
X141775240Y-114665760D02*
X160599120Y-114665760D01*
D15*
X160599120Y-114665760D02*
X162222180Y-114665760D01*
D17*
X162243180Y-114644760D02*
X162222180Y-114665760D01*
X162954740Y-114644760D02*
X162243180Y-114644760D01*
D16*
X176014640Y-114686080D02*
X166016940Y-114686080D01*
D18*
X165975620Y-114644760D02*
X166016940Y-114686080D01*
D19*
X176014640Y-114686080D02*
X183184800Y-114686080D01*
D15*
X165850619Y-114519759D02*
X163654740Y-114519759D01*
X165975620Y-114644760D02*
X165850619Y-114519759D01*
D16*
X162913060Y-132577840D02*
X162913060Y-117020340D01*
D18*
X162384740Y-116189760D02*
X162384740Y-118412260D01*
D17*
X162954740Y-116978660D02*
X162913060Y-117020340D01*
D15*
X162954740Y-116978660D02*
X162954740Y-115591360D01*
X162954740Y-115591360D02*
X162954740Y-115319770D01*
D17*
X163654740Y-115194760D02*
X163838300Y-115194760D01*
X163838300Y-115194760D02*
X164122100Y-115478560D01*
D15*
X165835680Y-117199760D02*
X167464740Y-117199760D01*
X165782257Y-117199760D02*
X165835680Y-117199760D01*
X164122100Y-115539603D02*
X165782257Y-117199760D01*
X164122100Y-115478560D02*
X164122100Y-115539603D01*
M02*
