G04 #@! TF.GenerationSoftware,KiCad,Pcbnew,(5.1.10)-1*
G04 #@! TF.CreationDate,2022-01-29T17:07:00-03:00*
G04 #@! TF.ProjectId,LNA,4c4e412e-6b69-4636-9164-5f7063625858,rev?*
G04 #@! TF.SameCoordinates,Original*
G04 #@! TF.FileFunction,Copper,L1,Top*
G04 #@! TF.FilePolarity,Positive*
%FSLAX46Y46*%
G04 Gerber Fmt 4.6, Leading zero omitted, Abs format (unit mm)*
G04 Created by KiCad (PCBNEW (5.1.10)-1) date 2022-01-29 17:07:00*
%MOMM*%
%LPD*%
G01*
G04 APERTURE LIST*
G04 #@! TA.AperFunction,NonConductor*
%ADD10C,0.100000*%
G04 #@! TD*
G04 #@! TA.AperFunction,SMDPad,CuDef*
%ADD11R,7.620000X2.400000*%
G04 #@! TD*
G04 #@! TA.AperFunction,ComponentPad*
%ADD12O,2.080000X3.600000*%
G04 #@! TD*
G04 #@! TA.AperFunction,SMDPad,CuDef*
%ADD13R,0.850000X0.300000*%
G04 #@! TD*
G04 #@! TA.AperFunction,SMDPad,CuDef*
%ADD14R,0.300000X0.850000*%
G04 #@! TD*
G04 #@! TA.AperFunction,SMDPad,CuDef*
%ADD15R,1.600000X1.600000*%
G04 #@! TD*
G04 #@! TA.AperFunction,ViaPad*
%ADD16C,0.700000*%
G04 #@! TD*
G04 #@! TA.AperFunction,ViaPad*
%ADD17C,1.500000*%
G04 #@! TD*
G04 #@! TA.AperFunction,Conductor*
%ADD18C,0.750000*%
G04 #@! TD*
G04 #@! TA.AperFunction,Conductor*
%ADD19C,0.250000*%
G04 #@! TD*
G04 #@! TA.AperFunction,Conductor*
%ADD20C,2.400000*%
G04 #@! TD*
G04 #@! TA.AperFunction,Conductor*
%ADD21C,0.500000*%
G04 #@! TD*
G04 #@! TA.AperFunction,Conductor*
%ADD22C,0.300000*%
G04 #@! TD*
G04 #@! TA.AperFunction,Conductor*
%ADD23C,0.254000*%
G04 #@! TD*
G04 #@! TA.AperFunction,Conductor*
%ADD24C,0.200000*%
G04 #@! TD*
G04 APERTURE END LIST*
D10*
G36*
X229370000Y-143710000D02*
G01*
X227250000Y-143710000D01*
X227241250Y-141400000D01*
X229358750Y-141400000D01*
X229370000Y-143710000D01*
G37*
X229370000Y-143710000D02*
X227250000Y-143710000D01*
X227241250Y-141400000D01*
X229358750Y-141400000D01*
X229370000Y-143710000D01*
G36*
X235230000Y-141400000D02*
G01*
X229790000Y-143710000D01*
X228975000Y-143705000D01*
X229000000Y-141397500D01*
X235230000Y-141400000D01*
G37*
X235230000Y-141400000D02*
X229790000Y-143710000D01*
X228975000Y-143705000D01*
X229000000Y-141397500D01*
X235230000Y-141400000D01*
G36*
X240625000Y-142140000D02*
G01*
X240000000Y-142140000D01*
X238800000Y-141125000D01*
X238800000Y-140840000D01*
X240000000Y-139810000D01*
X240625000Y-139810000D01*
X240625000Y-142140000D01*
G37*
X240625000Y-142140000D02*
X240000000Y-142140000D01*
X238800000Y-141125000D01*
X238800000Y-140840000D01*
X240000000Y-139810000D01*
X240625000Y-139810000D01*
X240625000Y-142140000D01*
G36*
X242457500Y-142140000D02*
G01*
X240282500Y-142140000D01*
X240262500Y-139860000D01*
X242437500Y-139860000D01*
X242457500Y-142140000D01*
G37*
X242457500Y-142140000D02*
X240282500Y-142140000D01*
X240262500Y-139860000D01*
X242437500Y-139860000D01*
X242457500Y-142140000D01*
G36*
X253025000Y-142130000D02*
G01*
X242940000Y-142130000D01*
X242950000Y-139830000D01*
X253025000Y-139830000D01*
X253025000Y-142130000D01*
G37*
X253025000Y-142130000D02*
X242940000Y-142130000D01*
X242950000Y-139830000D01*
X253025000Y-139830000D01*
X253025000Y-142130000D01*
G36*
X226750000Y-143700000D02*
G01*
X224630000Y-143700000D01*
X224632500Y-141400000D01*
X226750000Y-141400000D01*
X226750000Y-143700000D01*
G37*
X226750000Y-143700000D02*
X224630000Y-143700000D01*
X224632500Y-141400000D01*
X226750000Y-141400000D01*
X226750000Y-143700000D01*
D11*
X256170000Y-140980000D03*
X221170000Y-142540000D03*
G04 #@! TA.AperFunction,SMDPad,CuDef*
G36*
G01*
X238330000Y-146630000D02*
X237960000Y-146630000D01*
G75*
G02*
X237825000Y-146495000I0J135000D01*
G01*
X237825000Y-146225000D01*
G75*
G02*
X237960000Y-146090000I135000J0D01*
G01*
X238330000Y-146090000D01*
G75*
G02*
X238465000Y-146225000I0J-135000D01*
G01*
X238465000Y-146495000D01*
G75*
G02*
X238330000Y-146630000I-135000J0D01*
G01*
G37*
G04 #@! TD.AperFunction*
G04 #@! TA.AperFunction,SMDPad,CuDef*
G36*
G01*
X238330000Y-147650000D02*
X237960000Y-147650000D01*
G75*
G02*
X237825000Y-147515000I0J135000D01*
G01*
X237825000Y-147245000D01*
G75*
G02*
X237960000Y-147110000I135000J0D01*
G01*
X238330000Y-147110000D01*
G75*
G02*
X238465000Y-147245000I0J-135000D01*
G01*
X238465000Y-147515000D01*
G75*
G02*
X238330000Y-147650000I-135000J0D01*
G01*
G37*
G04 #@! TD.AperFunction*
G04 #@! TA.AperFunction,SMDPad,CuDef*
G36*
G01*
X231455000Y-146185000D02*
X231455000Y-146555000D01*
G75*
G02*
X231320000Y-146690000I-135000J0D01*
G01*
X231050000Y-146690000D01*
G75*
G02*
X230915000Y-146555000I0J135000D01*
G01*
X230915000Y-146185000D01*
G75*
G02*
X231050000Y-146050000I135000J0D01*
G01*
X231320000Y-146050000D01*
G75*
G02*
X231455000Y-146185000I0J-135000D01*
G01*
G37*
G04 #@! TD.AperFunction*
G04 #@! TA.AperFunction,SMDPad,CuDef*
G36*
G01*
X232475000Y-146185000D02*
X232475000Y-146555000D01*
G75*
G02*
X232340000Y-146690000I-135000J0D01*
G01*
X232070000Y-146690000D01*
G75*
G02*
X231935000Y-146555000I0J135000D01*
G01*
X231935000Y-146185000D01*
G75*
G02*
X232070000Y-146050000I135000J0D01*
G01*
X232340000Y-146050000D01*
G75*
G02*
X232475000Y-146185000I0J-135000D01*
G01*
G37*
G04 #@! TD.AperFunction*
G04 #@! TA.AperFunction,SMDPad,CuDef*
G36*
G01*
X232208750Y-139765000D02*
X232971250Y-139765000D01*
G75*
G02*
X233190000Y-139983750I0J-218750D01*
G01*
X233190000Y-140421250D01*
G75*
G02*
X232971250Y-140640000I-218750J0D01*
G01*
X232208750Y-140640000D01*
G75*
G02*
X231990000Y-140421250I0J218750D01*
G01*
X231990000Y-139983750D01*
G75*
G02*
X232208750Y-139765000I218750J0D01*
G01*
G37*
G04 #@! TD.AperFunction*
G04 #@! TA.AperFunction,SMDPad,CuDef*
G36*
G01*
X232208750Y-137640000D02*
X232971250Y-137640000D01*
G75*
G02*
X233190000Y-137858750I0J-218750D01*
G01*
X233190000Y-138296250D01*
G75*
G02*
X232971250Y-138515000I-218750J0D01*
G01*
X232208750Y-138515000D01*
G75*
G02*
X231990000Y-138296250I0J218750D01*
G01*
X231990000Y-137858750D01*
G75*
G02*
X232208750Y-137640000I218750J0D01*
G01*
G37*
G04 #@! TD.AperFunction*
G04 #@! TA.AperFunction,SMDPad,CuDef*
G36*
G01*
X242265000Y-147660000D02*
X241925000Y-147660000D01*
G75*
G02*
X241785000Y-147520000I0J140000D01*
G01*
X241785000Y-147240000D01*
G75*
G02*
X241925000Y-147100000I140000J0D01*
G01*
X242265000Y-147100000D01*
G75*
G02*
X242405000Y-147240000I0J-140000D01*
G01*
X242405000Y-147520000D01*
G75*
G02*
X242265000Y-147660000I-140000J0D01*
G01*
G37*
G04 #@! TD.AperFunction*
G04 #@! TA.AperFunction,SMDPad,CuDef*
G36*
G01*
X242265000Y-148620000D02*
X241925000Y-148620000D01*
G75*
G02*
X241785000Y-148480000I0J140000D01*
G01*
X241785000Y-148200000D01*
G75*
G02*
X241925000Y-148060000I140000J0D01*
G01*
X242265000Y-148060000D01*
G75*
G02*
X242405000Y-148200000I0J-140000D01*
G01*
X242405000Y-148480000D01*
G75*
G02*
X242265000Y-148620000I-140000J0D01*
G01*
G37*
G04 #@! TD.AperFunction*
G04 #@! TA.AperFunction,SMDPad,CuDef*
G36*
G01*
X240295000Y-147660000D02*
X239955000Y-147660000D01*
G75*
G02*
X239815000Y-147520000I0J140000D01*
G01*
X239815000Y-147240000D01*
G75*
G02*
X239955000Y-147100000I140000J0D01*
G01*
X240295000Y-147100000D01*
G75*
G02*
X240435000Y-147240000I0J-140000D01*
G01*
X240435000Y-147520000D01*
G75*
G02*
X240295000Y-147660000I-140000J0D01*
G01*
G37*
G04 #@! TD.AperFunction*
G04 #@! TA.AperFunction,SMDPad,CuDef*
G36*
G01*
X240295000Y-148620000D02*
X239955000Y-148620000D01*
G75*
G02*
X239815000Y-148480000I0J140000D01*
G01*
X239815000Y-148200000D01*
G75*
G02*
X239955000Y-148060000I140000J0D01*
G01*
X240295000Y-148060000D01*
G75*
G02*
X240435000Y-148200000I0J-140000D01*
G01*
X240435000Y-148480000D01*
G75*
G02*
X240295000Y-148620000I-140000J0D01*
G01*
G37*
G04 #@! TD.AperFunction*
G04 #@! TA.AperFunction,SMDPad,CuDef*
G36*
G01*
X236305000Y-146650000D02*
X235965000Y-146650000D01*
G75*
G02*
X235825000Y-146510000I0J140000D01*
G01*
X235825000Y-146230000D01*
G75*
G02*
X235965000Y-146090000I140000J0D01*
G01*
X236305000Y-146090000D01*
G75*
G02*
X236445000Y-146230000I0J-140000D01*
G01*
X236445000Y-146510000D01*
G75*
G02*
X236305000Y-146650000I-140000J0D01*
G01*
G37*
G04 #@! TD.AperFunction*
G04 #@! TA.AperFunction,SMDPad,CuDef*
G36*
G01*
X236305000Y-147610000D02*
X235965000Y-147610000D01*
G75*
G02*
X235825000Y-147470000I0J140000D01*
G01*
X235825000Y-147190000D01*
G75*
G02*
X235965000Y-147050000I140000J0D01*
G01*
X236305000Y-147050000D01*
G75*
G02*
X236445000Y-147190000I0J-140000D01*
G01*
X236445000Y-147470000D01*
G75*
G02*
X236305000Y-147610000I-140000J0D01*
G01*
G37*
G04 #@! TD.AperFunction*
G04 #@! TA.AperFunction,SMDPad,CuDef*
G36*
G01*
X234335000Y-146650000D02*
X233995000Y-146650000D01*
G75*
G02*
X233855000Y-146510000I0J140000D01*
G01*
X233855000Y-146230000D01*
G75*
G02*
X233995000Y-146090000I140000J0D01*
G01*
X234335000Y-146090000D01*
G75*
G02*
X234475000Y-146230000I0J-140000D01*
G01*
X234475000Y-146510000D01*
G75*
G02*
X234335000Y-146650000I-140000J0D01*
G01*
G37*
G04 #@! TD.AperFunction*
G04 #@! TA.AperFunction,SMDPad,CuDef*
G36*
G01*
X234335000Y-147610000D02*
X233995000Y-147610000D01*
G75*
G02*
X233855000Y-147470000I0J140000D01*
G01*
X233855000Y-147190000D01*
G75*
G02*
X233995000Y-147050000I140000J0D01*
G01*
X234335000Y-147050000D01*
G75*
G02*
X234475000Y-147190000I0J-140000D01*
G01*
X234475000Y-147470000D01*
G75*
G02*
X234335000Y-147610000I-140000J0D01*
G01*
G37*
G04 #@! TD.AperFunction*
G04 #@! TA.AperFunction,SMDPad,CuDef*
G36*
G01*
X236460000Y-134270000D02*
X236460000Y-134610000D01*
G75*
G02*
X236320000Y-134750000I-140000J0D01*
G01*
X236040000Y-134750000D01*
G75*
G02*
X235900000Y-134610000I0J140000D01*
G01*
X235900000Y-134270000D01*
G75*
G02*
X236040000Y-134130000I140000J0D01*
G01*
X236320000Y-134130000D01*
G75*
G02*
X236460000Y-134270000I0J-140000D01*
G01*
G37*
G04 #@! TD.AperFunction*
G04 #@! TA.AperFunction,SMDPad,CuDef*
G36*
G01*
X237420000Y-134270000D02*
X237420000Y-134610000D01*
G75*
G02*
X237280000Y-134750000I-140000J0D01*
G01*
X237000000Y-134750000D01*
G75*
G02*
X236860000Y-134610000I0J140000D01*
G01*
X236860000Y-134270000D01*
G75*
G02*
X237000000Y-134130000I140000J0D01*
G01*
X237280000Y-134130000D01*
G75*
G02*
X237420000Y-134270000I0J-140000D01*
G01*
G37*
G04 #@! TD.AperFunction*
G04 #@! TA.AperFunction,SMDPad,CuDef*
G36*
G01*
X231900000Y-136255000D02*
X231900000Y-136595000D01*
G75*
G02*
X231760000Y-136735000I-140000J0D01*
G01*
X231480000Y-136735000D01*
G75*
G02*
X231340000Y-136595000I0J140000D01*
G01*
X231340000Y-136255000D01*
G75*
G02*
X231480000Y-136115000I140000J0D01*
G01*
X231760000Y-136115000D01*
G75*
G02*
X231900000Y-136255000I0J-140000D01*
G01*
G37*
G04 #@! TD.AperFunction*
G04 #@! TA.AperFunction,SMDPad,CuDef*
G36*
G01*
X232860000Y-136255000D02*
X232860000Y-136595000D01*
G75*
G02*
X232720000Y-136735000I-140000J0D01*
G01*
X232440000Y-136735000D01*
G75*
G02*
X232300000Y-136595000I0J140000D01*
G01*
X232300000Y-136255000D01*
G75*
G02*
X232440000Y-136115000I140000J0D01*
G01*
X232720000Y-136115000D01*
G75*
G02*
X232860000Y-136255000I0J-140000D01*
G01*
G37*
G04 #@! TD.AperFunction*
G04 #@! TA.AperFunction,SMDPad,CuDef*
G36*
G01*
X240990000Y-134610000D02*
X240990000Y-134270000D01*
G75*
G02*
X241130000Y-134130000I140000J0D01*
G01*
X241410000Y-134130000D01*
G75*
G02*
X241550000Y-134270000I0J-140000D01*
G01*
X241550000Y-134610000D01*
G75*
G02*
X241410000Y-134750000I-140000J0D01*
G01*
X241130000Y-134750000D01*
G75*
G02*
X240990000Y-134610000I0J140000D01*
G01*
G37*
G04 #@! TD.AperFunction*
G04 #@! TA.AperFunction,SMDPad,CuDef*
G36*
G01*
X240030000Y-134610000D02*
X240030000Y-134270000D01*
G75*
G02*
X240170000Y-134130000I140000J0D01*
G01*
X240450000Y-134130000D01*
G75*
G02*
X240590000Y-134270000I0J-140000D01*
G01*
X240590000Y-134610000D01*
G75*
G02*
X240450000Y-134750000I-140000J0D01*
G01*
X240170000Y-134750000D01*
G75*
G02*
X240030000Y-134610000I0J140000D01*
G01*
G37*
G04 #@! TD.AperFunction*
G04 #@! TA.AperFunction,SMDPad,CuDef*
G36*
G01*
X240990000Y-136570000D02*
X240990000Y-136230000D01*
G75*
G02*
X241130000Y-136090000I140000J0D01*
G01*
X241410000Y-136090000D01*
G75*
G02*
X241550000Y-136230000I0J-140000D01*
G01*
X241550000Y-136570000D01*
G75*
G02*
X241410000Y-136710000I-140000J0D01*
G01*
X241130000Y-136710000D01*
G75*
G02*
X240990000Y-136570000I0J140000D01*
G01*
G37*
G04 #@! TD.AperFunction*
G04 #@! TA.AperFunction,SMDPad,CuDef*
G36*
G01*
X240030000Y-136570000D02*
X240030000Y-136230000D01*
G75*
G02*
X240170000Y-136090000I140000J0D01*
G01*
X240450000Y-136090000D01*
G75*
G02*
X240590000Y-136230000I0J-140000D01*
G01*
X240590000Y-136570000D01*
G75*
G02*
X240450000Y-136710000I-140000J0D01*
G01*
X240170000Y-136710000D01*
G75*
G02*
X240030000Y-136570000I0J140000D01*
G01*
G37*
G04 #@! TD.AperFunction*
G04 #@! TA.AperFunction,SMDPad,CuDef*
G36*
G01*
X242900000Y-141150000D02*
X242900000Y-140810000D01*
G75*
G02*
X243040000Y-140670000I140000J0D01*
G01*
X243320000Y-140670000D01*
G75*
G02*
X243460000Y-140810000I0J-140000D01*
G01*
X243460000Y-141150000D01*
G75*
G02*
X243320000Y-141290000I-140000J0D01*
G01*
X243040000Y-141290000D01*
G75*
G02*
X242900000Y-141150000I0J140000D01*
G01*
G37*
G04 #@! TD.AperFunction*
G04 #@! TA.AperFunction,SMDPad,CuDef*
G36*
G01*
X241940000Y-141150000D02*
X241940000Y-140810000D01*
G75*
G02*
X242080000Y-140670000I140000J0D01*
G01*
X242360000Y-140670000D01*
G75*
G02*
X242500000Y-140810000I0J-140000D01*
G01*
X242500000Y-141150000D01*
G75*
G02*
X242360000Y-141290000I-140000J0D01*
G01*
X242080000Y-141290000D01*
G75*
G02*
X241940000Y-141150000I0J140000D01*
G01*
G37*
G04 #@! TD.AperFunction*
G04 #@! TA.AperFunction,SMDPad,CuDef*
G36*
G01*
X227200000Y-142750000D02*
X227200000Y-142410000D01*
G75*
G02*
X227340000Y-142270000I140000J0D01*
G01*
X227620000Y-142270000D01*
G75*
G02*
X227760000Y-142410000I0J-140000D01*
G01*
X227760000Y-142750000D01*
G75*
G02*
X227620000Y-142890000I-140000J0D01*
G01*
X227340000Y-142890000D01*
G75*
G02*
X227200000Y-142750000I0J140000D01*
G01*
G37*
G04 #@! TD.AperFunction*
G04 #@! TA.AperFunction,SMDPad,CuDef*
G36*
G01*
X226240000Y-142750000D02*
X226240000Y-142410000D01*
G75*
G02*
X226380000Y-142270000I140000J0D01*
G01*
X226660000Y-142270000D01*
G75*
G02*
X226800000Y-142410000I0J-140000D01*
G01*
X226800000Y-142750000D01*
G75*
G02*
X226660000Y-142890000I-140000J0D01*
G01*
X226380000Y-142890000D01*
G75*
G02*
X226240000Y-142750000I0J140000D01*
G01*
G37*
G04 #@! TD.AperFunction*
D12*
X233520000Y-122800000D03*
G04 #@! TA.AperFunction,ComponentPad*
G36*
G01*
X239640000Y-121249997D02*
X239640000Y-124350003D01*
G75*
G02*
X239390003Y-124600000I-249997J0D01*
G01*
X237809997Y-124600000D01*
G75*
G02*
X237560000Y-124350003I0J249997D01*
G01*
X237560000Y-121249997D01*
G75*
G02*
X237809997Y-121000000I249997J0D01*
G01*
X239390003Y-121000000D01*
G75*
G02*
X239640000Y-121249997I0J-249997D01*
G01*
G37*
G04 #@! TD.AperFunction*
G04 #@! TA.AperFunction,SMDPad,CuDef*
G36*
G01*
X229542500Y-144745000D02*
X229197500Y-144745000D01*
G75*
G02*
X229050000Y-144597500I0J147500D01*
G01*
X229050000Y-144302500D01*
G75*
G02*
X229197500Y-144155000I147500J0D01*
G01*
X229542500Y-144155000D01*
G75*
G02*
X229690000Y-144302500I0J-147500D01*
G01*
X229690000Y-144597500D01*
G75*
G02*
X229542500Y-144745000I-147500J0D01*
G01*
G37*
G04 #@! TD.AperFunction*
G04 #@! TA.AperFunction,SMDPad,CuDef*
G36*
G01*
X229542500Y-143775000D02*
X229197500Y-143775000D01*
G75*
G02*
X229050000Y-143627500I0J147500D01*
G01*
X229050000Y-143332500D01*
G75*
G02*
X229197500Y-143185000I147500J0D01*
G01*
X229542500Y-143185000D01*
G75*
G02*
X229690000Y-143332500I0J-147500D01*
G01*
X229690000Y-143627500D01*
G75*
G02*
X229542500Y-143775000I-147500J0D01*
G01*
G37*
G04 #@! TD.AperFunction*
D13*
X235190000Y-140480000D03*
X235190000Y-140980000D03*
X235190000Y-141480000D03*
D14*
X236140000Y-142430000D03*
X236640000Y-142430000D03*
X237140000Y-142430000D03*
D13*
X238090000Y-141480000D03*
X238090000Y-140980000D03*
X238090000Y-140480000D03*
D14*
X237140000Y-139530000D03*
X236640000Y-139530000D03*
X236140000Y-139530000D03*
D15*
X236640000Y-140980000D03*
G04 #@! TA.AperFunction,SMDPad,CuDef*
G36*
G01*
X240107500Y-139775000D02*
X240452500Y-139775000D01*
G75*
G02*
X240600000Y-139922500I0J-147500D01*
G01*
X240600000Y-140217500D01*
G75*
G02*
X240452500Y-140365000I-147500J0D01*
G01*
X240107500Y-140365000D01*
G75*
G02*
X239960000Y-140217500I0J147500D01*
G01*
X239960000Y-139922500D01*
G75*
G02*
X240107500Y-139775000I147500J0D01*
G01*
G37*
G04 #@! TD.AperFunction*
G04 #@! TA.AperFunction,SMDPad,CuDef*
G36*
G01*
X240107500Y-138805000D02*
X240452500Y-138805000D01*
G75*
G02*
X240600000Y-138952500I0J-147500D01*
G01*
X240600000Y-139247500D01*
G75*
G02*
X240452500Y-139395000I-147500J0D01*
G01*
X240107500Y-139395000D01*
G75*
G02*
X239960000Y-139247500I0J147500D01*
G01*
X239960000Y-138952500D01*
G75*
G02*
X240107500Y-138805000I147500J0D01*
G01*
G37*
G04 #@! TD.AperFunction*
G04 #@! TA.AperFunction,SMDPad,CuDef*
G36*
G01*
X236967500Y-137065000D02*
X237312500Y-137065000D01*
G75*
G02*
X237460000Y-137212500I0J-147500D01*
G01*
X237460000Y-137507500D01*
G75*
G02*
X237312500Y-137655000I-147500J0D01*
G01*
X236967500Y-137655000D01*
G75*
G02*
X236820000Y-137507500I0J147500D01*
G01*
X236820000Y-137212500D01*
G75*
G02*
X236967500Y-137065000I147500J0D01*
G01*
G37*
G04 #@! TD.AperFunction*
G04 #@! TA.AperFunction,SMDPad,CuDef*
G36*
G01*
X236967500Y-136095000D02*
X237312500Y-136095000D01*
G75*
G02*
X237460000Y-136242500I0J-147500D01*
G01*
X237460000Y-136537500D01*
G75*
G02*
X237312500Y-136685000I-147500J0D01*
G01*
X236967500Y-136685000D01*
G75*
G02*
X236820000Y-136537500I0J147500D01*
G01*
X236820000Y-136242500D01*
G75*
G02*
X236967500Y-136095000I147500J0D01*
G01*
G37*
G04 #@! TD.AperFunction*
G04 #@! TA.AperFunction,SMDPad,CuDef*
G36*
G01*
X239380000Y-132327500D02*
X239380000Y-132672500D01*
G75*
G02*
X239232500Y-132820000I-147500J0D01*
G01*
X238937500Y-132820000D01*
G75*
G02*
X238790000Y-132672500I0J147500D01*
G01*
X238790000Y-132327500D01*
G75*
G02*
X238937500Y-132180000I147500J0D01*
G01*
X239232500Y-132180000D01*
G75*
G02*
X239380000Y-132327500I0J-147500D01*
G01*
G37*
G04 #@! TD.AperFunction*
G04 #@! TA.AperFunction,SMDPad,CuDef*
G36*
G01*
X238410000Y-132327500D02*
X238410000Y-132672500D01*
G75*
G02*
X238262500Y-132820000I-147500J0D01*
G01*
X237967500Y-132820000D01*
G75*
G02*
X237820000Y-132672500I0J147500D01*
G01*
X237820000Y-132327500D01*
G75*
G02*
X237967500Y-132180000I147500J0D01*
G01*
X238262500Y-132180000D01*
G75*
G02*
X238410000Y-132327500I0J-147500D01*
G01*
G37*
G04 #@! TD.AperFunction*
D16*
X234350000Y-144380000D03*
X220500000Y-139000000D03*
X222000000Y-139000000D03*
X223500000Y-139000000D03*
X225000000Y-139000000D03*
X226500000Y-139000000D03*
X228000000Y-139000000D03*
X229500000Y-139000000D03*
X229500000Y-137500000D03*
X229500000Y-136000000D03*
X229500000Y-134500000D03*
X229500000Y-133000000D03*
X231300000Y-133000000D03*
X233100000Y-133000000D03*
X233100000Y-131500000D03*
X233100000Y-130000000D03*
X233100000Y-128500000D03*
X233100000Y-127000000D03*
X233100000Y-125500000D03*
X244200000Y-126000000D03*
X244200000Y-127500000D03*
X244200000Y-129000000D03*
X244200000Y-130500000D03*
X244200000Y-132000000D03*
X244200000Y-133500000D03*
X244200000Y-135500000D03*
X244200000Y-137500000D03*
X245600000Y-137500000D03*
X247000000Y-137500000D03*
X248500000Y-137500000D03*
X250000000Y-137500000D03*
X251500000Y-137500000D03*
X253000000Y-137500000D03*
X254500000Y-137500000D03*
X256000000Y-137500000D03*
X256500000Y-144500000D03*
X255000000Y-144500000D03*
X253500000Y-144500000D03*
X252000000Y-144500000D03*
X250500000Y-144500000D03*
X249000000Y-144500000D03*
X247500000Y-144500000D03*
X247500000Y-146000000D03*
X247500000Y-147500000D03*
X247500000Y-149500000D03*
X247500000Y-151000000D03*
X246000000Y-151000000D03*
X244500000Y-151000000D03*
X243000000Y-151000000D03*
X241500000Y-151000000D03*
X240000000Y-151000000D03*
X238500000Y-151000000D03*
X237000000Y-151000000D03*
X235500000Y-151000000D03*
X234000000Y-151000000D03*
X232000000Y-151000000D03*
X230000000Y-151000000D03*
X228000000Y-151000000D03*
X228000000Y-149500000D03*
X228000000Y-147500000D03*
X228000000Y-146000000D03*
X226500000Y-146000000D03*
X225000000Y-146000000D03*
X223500000Y-146000000D03*
X222000000Y-146000000D03*
X220500000Y-146000000D03*
X219000000Y-146000000D03*
X258000000Y-144500000D03*
X257500000Y-137500000D03*
X219000000Y-139000000D03*
X236250000Y-140600000D03*
X237050000Y-141400000D03*
X236250000Y-141400000D03*
X237050000Y-140600000D03*
D17*
X236000000Y-130800000D03*
X241300000Y-130800000D03*
X243995000Y-147390000D03*
X231185000Y-148350000D03*
D18*
X234165000Y-150835000D02*
X234000000Y-151000000D01*
X234165000Y-147330000D02*
X234165000Y-150835000D01*
X236135000Y-150365000D02*
X235500000Y-151000000D01*
X236135000Y-147330000D02*
X236135000Y-150365000D01*
X240125000Y-150875000D02*
X240000000Y-151000000D01*
X240125000Y-148340000D02*
X240125000Y-150875000D01*
X242095000Y-150405000D02*
X241500000Y-151000000D01*
X242095000Y-148340000D02*
X242095000Y-150405000D01*
X229370000Y-144450000D02*
X229370000Y-145630000D01*
X229000000Y-146000000D02*
X228000000Y-146000000D01*
X229370000Y-145630000D02*
X229000000Y-146000000D01*
X229925000Y-136425000D02*
X229500000Y-136000000D01*
X231620000Y-136425000D02*
X229925000Y-136425000D01*
X243260000Y-134440000D02*
X244200000Y-133500000D01*
X241270000Y-134440000D02*
X243260000Y-134440000D01*
X243300000Y-136400000D02*
X244200000Y-135500000D01*
X241270000Y-136400000D02*
X243300000Y-136400000D01*
X234540000Y-134440000D02*
X233100000Y-133000000D01*
X236180000Y-134440000D02*
X234540000Y-134440000D01*
X238145000Y-147380000D02*
X240125000Y-147380000D01*
X240125000Y-147380000D02*
X242095000Y-147380000D01*
D19*
X243985000Y-147380000D02*
X243995000Y-147390000D01*
D18*
X242095000Y-147380000D02*
X243985000Y-147380000D01*
X237140000Y-134440000D02*
X237140000Y-136390000D01*
X231185000Y-146370000D02*
X231185000Y-148350000D01*
D19*
X239100000Y-131300000D02*
X239085000Y-131315000D01*
X238600000Y-122800000D02*
X239100000Y-123300000D01*
X238100000Y-123300000D02*
X238600000Y-122800000D01*
D18*
X240310000Y-134440000D02*
X240310000Y-136400000D01*
X240310000Y-139070000D02*
X240280000Y-139100000D01*
X240310000Y-136400000D02*
X240310000Y-139070000D01*
X239085000Y-133185000D02*
X239085000Y-132500000D01*
X240320000Y-134420000D02*
X239085000Y-133185000D01*
X240320000Y-134430000D02*
X240320000Y-134420000D01*
X240310000Y-134440000D02*
X240320000Y-134430000D01*
X238115000Y-133185000D02*
X238115000Y-132500000D01*
X237140000Y-134160000D02*
X238115000Y-133185000D01*
X237140000Y-134440000D02*
X237140000Y-134160000D01*
X239100000Y-132485000D02*
X239085000Y-132500000D01*
X239100000Y-131300000D02*
X239100000Y-132485000D01*
X238100000Y-132485000D02*
X238115000Y-132500000D01*
X238000000Y-130800000D02*
X238100000Y-130900000D01*
X236000000Y-130800000D02*
X238000000Y-130800000D01*
X238100000Y-130900000D02*
X238100000Y-132485000D01*
X238100000Y-123300000D02*
X238100000Y-130900000D01*
X241300000Y-130800000D02*
X239100000Y-130800000D01*
X239100000Y-130800000D02*
X239100000Y-131300000D01*
X239100000Y-123300000D02*
X239100000Y-130800000D01*
D20*
X256170000Y-140980000D02*
X244120000Y-140980000D01*
X221170000Y-142540000D02*
X225550000Y-142540000D01*
D19*
X232230000Y-141480000D02*
X231155000Y-142555000D01*
X235190000Y-141480000D02*
X232230000Y-141480000D01*
D20*
X229500000Y-142555000D02*
X228520000Y-142555000D01*
D21*
X229500000Y-142555000D02*
X231155000Y-142555000D01*
D22*
X240170000Y-140980000D02*
X238080000Y-140980000D01*
D20*
X240500000Y-141000000D02*
X241300000Y-141000000D01*
D19*
X232600000Y-136445000D02*
X232580000Y-136425000D01*
D18*
X232590000Y-138077500D02*
X232600000Y-136445000D01*
D19*
X235190000Y-140480000D02*
X234992500Y-140480000D01*
X233477500Y-138077500D02*
X232590000Y-138077500D01*
X235190000Y-139790000D02*
X233477500Y-138077500D01*
X235190000Y-140480000D02*
X235190000Y-139790000D01*
D18*
X236135000Y-146370000D02*
X234165000Y-146370000D01*
X234165000Y-146370000D02*
X232205000Y-146370000D01*
D19*
X236140000Y-146365000D02*
X236135000Y-146370000D01*
X236140000Y-142430000D02*
X236140000Y-146365000D01*
X233912500Y-140202500D02*
X232590000Y-140202500D01*
X234690000Y-140980000D02*
X233912500Y-140202500D01*
X235190000Y-140980000D02*
X234690000Y-140980000D01*
X237140000Y-145355000D02*
X238145000Y-146360000D01*
X237140000Y-142430000D02*
X237140000Y-145355000D01*
X237140000Y-137360000D02*
X237140000Y-139530000D01*
D23*
X238916994Y-143420401D02*
X238987196Y-143468877D01*
X239052550Y-143523715D01*
X239121539Y-143561642D01*
X239186318Y-143606373D01*
X239264598Y-143640290D01*
X239339359Y-143681390D01*
X239414396Y-143705193D01*
X239486634Y-143736492D01*
X239570014Y-143754558D01*
X239651332Y-143780354D01*
X239729567Y-143789129D01*
X239806505Y-143805800D01*
X239891801Y-143807327D01*
X239976585Y-143816837D01*
X240000000Y-143817000D01*
X240259594Y-143817000D01*
X240361125Y-143827000D01*
X241438875Y-143827000D01*
X241540406Y-143817000D01*
X242457500Y-143817000D01*
X242459002Y-143816853D01*
X242460502Y-143816997D01*
X242621955Y-143800875D01*
X242750738Y-143788248D01*
X242755887Y-143788812D01*
X242916585Y-143806837D01*
X242920764Y-143806866D01*
X242921001Y-143806892D01*
X242921260Y-143806870D01*
X242940000Y-143807000D01*
X252280075Y-143807000D01*
X252360000Y-143814872D01*
X258298000Y-143814872D01*
X258298000Y-153598000D01*
X218802000Y-153598000D01*
X218802000Y-145374872D01*
X224589067Y-145374872D01*
X224606585Y-145376837D01*
X224616074Y-145376903D01*
X224616469Y-145376945D01*
X224616874Y-145376909D01*
X224630000Y-145377000D01*
X226750000Y-145377000D01*
X226907076Y-145361599D01*
X226952811Y-145357437D01*
X227072910Y-145369600D01*
X227226585Y-145386837D01*
X227244333Y-145386961D01*
X227244644Y-145386992D01*
X227244932Y-145386965D01*
X227250000Y-145387000D01*
X228965278Y-145387000D01*
X229197500Y-145409872D01*
X229428156Y-145409872D01*
X229326444Y-145600162D01*
X229211968Y-145977541D01*
X229183000Y-146271658D01*
X229183000Y-147067717D01*
X229078530Y-147224068D01*
X228899347Y-147656655D01*
X228808000Y-148115886D01*
X228808000Y-148584114D01*
X228899347Y-149043345D01*
X229078530Y-149475932D01*
X229338664Y-149865249D01*
X229669751Y-150196336D01*
X230059068Y-150456470D01*
X230491655Y-150635653D01*
X230950886Y-150727000D01*
X231419114Y-150727000D01*
X231878345Y-150635653D01*
X232310932Y-150456470D01*
X232700249Y-150196336D01*
X233031336Y-149865249D01*
X233291470Y-149475932D01*
X233470653Y-149043345D01*
X233562000Y-148584114D01*
X233562000Y-148372000D01*
X236233343Y-148372000D01*
X236396597Y-148355921D01*
X236472344Y-148497633D01*
X236722523Y-148802477D01*
X237027367Y-149052656D01*
X237375161Y-149238556D01*
X237752540Y-149353032D01*
X238046657Y-149382000D01*
X242697752Y-149382000D01*
X242869068Y-149496470D01*
X243301655Y-149675653D01*
X243760886Y-149767000D01*
X244229114Y-149767000D01*
X244688345Y-149675653D01*
X245120932Y-149496470D01*
X245510249Y-149236336D01*
X245841336Y-148905249D01*
X246101470Y-148515932D01*
X246280653Y-148083345D01*
X246372000Y-147624114D01*
X246372000Y-147155886D01*
X246280653Y-146696655D01*
X246101470Y-146264068D01*
X245841336Y-145874751D01*
X245510249Y-145543664D01*
X245120932Y-145283530D01*
X244688345Y-145104347D01*
X244229114Y-145013000D01*
X243760886Y-145013000D01*
X243301655Y-145104347D01*
X242869068Y-145283530D01*
X242727684Y-145378000D01*
X239874443Y-145378000D01*
X239801595Y-145241712D01*
X239581488Y-144973512D01*
X239313288Y-144753405D01*
X239007301Y-144589851D01*
X238892000Y-144554875D01*
X238892000Y-143399260D01*
X238916994Y-143420401D01*
G04 #@! TA.AperFunction,Conductor*
D24*
G36*
X238916994Y-143420401D02*
G01*
X238987196Y-143468877D01*
X239052550Y-143523715D01*
X239121539Y-143561642D01*
X239186318Y-143606373D01*
X239264598Y-143640290D01*
X239339359Y-143681390D01*
X239414396Y-143705193D01*
X239486634Y-143736492D01*
X239570014Y-143754558D01*
X239651332Y-143780354D01*
X239729567Y-143789129D01*
X239806505Y-143805800D01*
X239891801Y-143807327D01*
X239976585Y-143816837D01*
X240000000Y-143817000D01*
X240259594Y-143817000D01*
X240361125Y-143827000D01*
X241438875Y-143827000D01*
X241540406Y-143817000D01*
X242457500Y-143817000D01*
X242459002Y-143816853D01*
X242460502Y-143816997D01*
X242621955Y-143800875D01*
X242750738Y-143788248D01*
X242755887Y-143788812D01*
X242916585Y-143806837D01*
X242920764Y-143806866D01*
X242921001Y-143806892D01*
X242921260Y-143806870D01*
X242940000Y-143807000D01*
X252280075Y-143807000D01*
X252360000Y-143814872D01*
X258298000Y-143814872D01*
X258298000Y-153598000D01*
X218802000Y-153598000D01*
X218802000Y-145374872D01*
X224589067Y-145374872D01*
X224606585Y-145376837D01*
X224616074Y-145376903D01*
X224616469Y-145376945D01*
X224616874Y-145376909D01*
X224630000Y-145377000D01*
X226750000Y-145377000D01*
X226907076Y-145361599D01*
X226952811Y-145357437D01*
X227072910Y-145369600D01*
X227226585Y-145386837D01*
X227244333Y-145386961D01*
X227244644Y-145386992D01*
X227244932Y-145386965D01*
X227250000Y-145387000D01*
X228965278Y-145387000D01*
X229197500Y-145409872D01*
X229428156Y-145409872D01*
X229326444Y-145600162D01*
X229211968Y-145977541D01*
X229183000Y-146271658D01*
X229183000Y-147067717D01*
X229078530Y-147224068D01*
X228899347Y-147656655D01*
X228808000Y-148115886D01*
X228808000Y-148584114D01*
X228899347Y-149043345D01*
X229078530Y-149475932D01*
X229338664Y-149865249D01*
X229669751Y-150196336D01*
X230059068Y-150456470D01*
X230491655Y-150635653D01*
X230950886Y-150727000D01*
X231419114Y-150727000D01*
X231878345Y-150635653D01*
X232310932Y-150456470D01*
X232700249Y-150196336D01*
X233031336Y-149865249D01*
X233291470Y-149475932D01*
X233470653Y-149043345D01*
X233562000Y-148584114D01*
X233562000Y-148372000D01*
X236233343Y-148372000D01*
X236396597Y-148355921D01*
X236472344Y-148497633D01*
X236722523Y-148802477D01*
X237027367Y-149052656D01*
X237375161Y-149238556D01*
X237752540Y-149353032D01*
X238046657Y-149382000D01*
X242697752Y-149382000D01*
X242869068Y-149496470D01*
X243301655Y-149675653D01*
X243760886Y-149767000D01*
X244229114Y-149767000D01*
X244688345Y-149675653D01*
X245120932Y-149496470D01*
X245510249Y-149236336D01*
X245841336Y-148905249D01*
X246101470Y-148515932D01*
X246280653Y-148083345D01*
X246372000Y-147624114D01*
X246372000Y-147155886D01*
X246280653Y-146696655D01*
X246101470Y-146264068D01*
X245841336Y-145874751D01*
X245510249Y-145543664D01*
X245120932Y-145283530D01*
X244688345Y-145104347D01*
X244229114Y-145013000D01*
X243760886Y-145013000D01*
X243301655Y-145104347D01*
X242869068Y-145283530D01*
X242727684Y-145378000D01*
X239874443Y-145378000D01*
X239801595Y-145241712D01*
X239581488Y-144973512D01*
X239313288Y-144753405D01*
X239007301Y-144589851D01*
X238892000Y-144554875D01*
X238892000Y-143399260D01*
X238916994Y-143420401D01*
G37*
G04 #@! TD.AperFunction*
D23*
X234388000Y-144368000D02*
X232531028Y-144368000D01*
X234388000Y-143579470D01*
X234388000Y-144368000D01*
G04 #@! TA.AperFunction,Conductor*
D24*
G36*
X234388000Y-144368000D02*
G01*
X232531028Y-144368000D01*
X234388000Y-143579470D01*
X234388000Y-144368000D01*
G37*
G04 #@! TD.AperFunction*
D23*
X236242786Y-120202820D02*
X236068605Y-120528689D01*
X235961345Y-120882277D01*
X235925128Y-121249997D01*
X235925128Y-124350003D01*
X235961345Y-124717723D01*
X236068605Y-125071311D01*
X236098000Y-125126306D01*
X236098001Y-128423000D01*
X235765886Y-128423000D01*
X235306655Y-128514347D01*
X234874068Y-128693530D01*
X234484751Y-128953664D01*
X234153664Y-129284751D01*
X233893530Y-129674068D01*
X233714347Y-130106655D01*
X233623000Y-130565886D01*
X233623000Y-131034114D01*
X233714347Y-131493345D01*
X233893530Y-131925932D01*
X234153664Y-132315249D01*
X234484751Y-132646336D01*
X234874068Y-132906470D01*
X235306655Y-133085653D01*
X235430988Y-133110384D01*
X235281444Y-133390161D01*
X235196507Y-133670162D01*
X235166968Y-133767540D01*
X235128314Y-134160000D01*
X235138000Y-134258343D01*
X235138000Y-134341658D01*
X235138001Y-136488343D01*
X235166969Y-136782460D01*
X235212651Y-136933055D01*
X235185128Y-137212500D01*
X235185128Y-137307426D01*
X234777210Y-136899508D01*
X234722345Y-136832655D01*
X234644113Y-136768451D01*
X234600276Y-136732475D01*
X234602564Y-136358922D01*
X234575398Y-136064633D01*
X234463236Y-135686560D01*
X234279470Y-135337634D01*
X234031163Y-135031263D01*
X233727857Y-134779222D01*
X233381209Y-134591195D01*
X233004538Y-134474409D01*
X232612322Y-134433352D01*
X232219634Y-134469601D01*
X231841560Y-134581763D01*
X231801408Y-134602909D01*
X231760786Y-134615232D01*
X231453934Y-134779248D01*
X231184976Y-134999976D01*
X230964248Y-135268934D01*
X230946158Y-135302779D01*
X230934222Y-135317142D01*
X230746195Y-135663791D01*
X230629410Y-136040462D01*
X230598640Y-136334396D01*
X230594777Y-136965025D01*
X230496227Y-137149400D01*
X230390745Y-137497126D01*
X230355128Y-137858750D01*
X230355128Y-138296250D01*
X230390745Y-138657874D01*
X230496227Y-139005600D01*
X230568065Y-139140000D01*
X230496227Y-139274400D01*
X230390745Y-139622126D01*
X230381001Y-139721054D01*
X229000673Y-139720500D01*
X228975070Y-139723000D01*
X227241250Y-139723000D01*
X227080976Y-139738715D01*
X226991533Y-139747196D01*
X226930303Y-139740761D01*
X226773415Y-139723163D01*
X226762121Y-139723084D01*
X226761708Y-139723041D01*
X226761295Y-139723079D01*
X226750000Y-139723000D01*
X225790406Y-139723000D01*
X225688875Y-139713000D01*
X225059925Y-139713000D01*
X224980000Y-139705128D01*
X218802000Y-139705128D01*
X218802000Y-122927000D01*
X231845000Y-122927000D01*
X231845000Y-123687000D01*
X231901961Y-124011336D01*
X232021102Y-124318327D01*
X232197845Y-124596176D01*
X232425398Y-124834206D01*
X232695016Y-125023269D01*
X232996337Y-125156099D01*
X233133290Y-125189748D01*
X233393000Y-125070922D01*
X233393000Y-122927000D01*
X233647000Y-122927000D01*
X233647000Y-125070922D01*
X233906710Y-125189748D01*
X234043663Y-125156099D01*
X234344984Y-125023269D01*
X234614602Y-124834206D01*
X234842155Y-124596176D01*
X235018898Y-124318327D01*
X235138039Y-124011336D01*
X235195000Y-123687000D01*
X235195000Y-122927000D01*
X233647000Y-122927000D01*
X233393000Y-122927000D01*
X231845000Y-122927000D01*
X218802000Y-122927000D01*
X218802000Y-121913000D01*
X231845000Y-121913000D01*
X231845000Y-122673000D01*
X233393000Y-122673000D01*
X233393000Y-120529078D01*
X233647000Y-120529078D01*
X233647000Y-122673000D01*
X235195000Y-122673000D01*
X235195000Y-121913000D01*
X235138039Y-121588664D01*
X235018898Y-121281673D01*
X234842155Y-121003824D01*
X234614602Y-120765794D01*
X234344984Y-120576731D01*
X234043663Y-120443901D01*
X233906710Y-120410252D01*
X233647000Y-120529078D01*
X233393000Y-120529078D01*
X233133290Y-120410252D01*
X232996337Y-120443901D01*
X232695016Y-120576731D01*
X232425398Y-120765794D01*
X232197845Y-121003824D01*
X232021102Y-121281673D01*
X231901961Y-121588664D01*
X231845000Y-121913000D01*
X218802000Y-121913000D01*
X218802000Y-120002000D01*
X236407594Y-120002000D01*
X236242786Y-120202820D01*
G04 #@! TA.AperFunction,Conductor*
D24*
G36*
X236242786Y-120202820D02*
G01*
X236068605Y-120528689D01*
X235961345Y-120882277D01*
X235925128Y-121249997D01*
X235925128Y-124350003D01*
X235961345Y-124717723D01*
X236068605Y-125071311D01*
X236098000Y-125126306D01*
X236098001Y-128423000D01*
X235765886Y-128423000D01*
X235306655Y-128514347D01*
X234874068Y-128693530D01*
X234484751Y-128953664D01*
X234153664Y-129284751D01*
X233893530Y-129674068D01*
X233714347Y-130106655D01*
X233623000Y-130565886D01*
X233623000Y-131034114D01*
X233714347Y-131493345D01*
X233893530Y-131925932D01*
X234153664Y-132315249D01*
X234484751Y-132646336D01*
X234874068Y-132906470D01*
X235306655Y-133085653D01*
X235430988Y-133110384D01*
X235281444Y-133390161D01*
X235196507Y-133670162D01*
X235166968Y-133767540D01*
X235128314Y-134160000D01*
X235138000Y-134258343D01*
X235138000Y-134341658D01*
X235138001Y-136488343D01*
X235166969Y-136782460D01*
X235212651Y-136933055D01*
X235185128Y-137212500D01*
X235185128Y-137307426D01*
X234777210Y-136899508D01*
X234722345Y-136832655D01*
X234644113Y-136768451D01*
X234600276Y-136732475D01*
X234602564Y-136358922D01*
X234575398Y-136064633D01*
X234463236Y-135686560D01*
X234279470Y-135337634D01*
X234031163Y-135031263D01*
X233727857Y-134779222D01*
X233381209Y-134591195D01*
X233004538Y-134474409D01*
X232612322Y-134433352D01*
X232219634Y-134469601D01*
X231841560Y-134581763D01*
X231801408Y-134602909D01*
X231760786Y-134615232D01*
X231453934Y-134779248D01*
X231184976Y-134999976D01*
X230964248Y-135268934D01*
X230946158Y-135302779D01*
X230934222Y-135317142D01*
X230746195Y-135663791D01*
X230629410Y-136040462D01*
X230598640Y-136334396D01*
X230594777Y-136965025D01*
X230496227Y-137149400D01*
X230390745Y-137497126D01*
X230355128Y-137858750D01*
X230355128Y-138296250D01*
X230390745Y-138657874D01*
X230496227Y-139005600D01*
X230568065Y-139140000D01*
X230496227Y-139274400D01*
X230390745Y-139622126D01*
X230381001Y-139721054D01*
X229000673Y-139720500D01*
X228975070Y-139723000D01*
X227241250Y-139723000D01*
X227080976Y-139738715D01*
X226991533Y-139747196D01*
X226930303Y-139740761D01*
X226773415Y-139723163D01*
X226762121Y-139723084D01*
X226761708Y-139723041D01*
X226761295Y-139723079D01*
X226750000Y-139723000D01*
X225790406Y-139723000D01*
X225688875Y-139713000D01*
X225059925Y-139713000D01*
X224980000Y-139705128D01*
X218802000Y-139705128D01*
X218802000Y-122927000D01*
X231845000Y-122927000D01*
X231845000Y-123687000D01*
X231901961Y-124011336D01*
X232021102Y-124318327D01*
X232197845Y-124596176D01*
X232425398Y-124834206D01*
X232695016Y-125023269D01*
X232996337Y-125156099D01*
X233133290Y-125189748D01*
X233393000Y-125070922D01*
X233393000Y-122927000D01*
X233647000Y-122927000D01*
X233647000Y-125070922D01*
X233906710Y-125189748D01*
X234043663Y-125156099D01*
X234344984Y-125023269D01*
X234614602Y-124834206D01*
X234842155Y-124596176D01*
X235018898Y-124318327D01*
X235138039Y-124011336D01*
X235195000Y-123687000D01*
X235195000Y-122927000D01*
X233647000Y-122927000D01*
X233393000Y-122927000D01*
X231845000Y-122927000D01*
X218802000Y-122927000D01*
X218802000Y-121913000D01*
X231845000Y-121913000D01*
X231845000Y-122673000D01*
X233393000Y-122673000D01*
X233393000Y-120529078D01*
X233647000Y-120529078D01*
X233647000Y-122673000D01*
X235195000Y-122673000D01*
X235195000Y-121913000D01*
X235138039Y-121588664D01*
X235018898Y-121281673D01*
X234842155Y-121003824D01*
X234614602Y-120765794D01*
X234344984Y-120576731D01*
X234043663Y-120443901D01*
X233906710Y-120410252D01*
X233647000Y-120529078D01*
X233393000Y-120529078D01*
X233133290Y-120410252D01*
X232996337Y-120443901D01*
X232695016Y-120576731D01*
X232425398Y-120765794D01*
X232197845Y-121003824D01*
X232021102Y-121281673D01*
X231901961Y-121588664D01*
X231845000Y-121913000D01*
X218802000Y-121913000D01*
X218802000Y-120002000D01*
X236407594Y-120002000D01*
X236242786Y-120202820D01*
G37*
G04 #@! TD.AperFunction*
D23*
X258298000Y-138145128D02*
X252360000Y-138145128D01*
X252280075Y-138153000D01*
X242950000Y-138153000D01*
X242796586Y-138168042D01*
X242642927Y-138181353D01*
X242633762Y-138184007D01*
X242624269Y-138184938D01*
X242584306Y-138197004D01*
X242460915Y-138183163D01*
X242437500Y-138183000D01*
X242312000Y-138183000D01*
X242312000Y-134629875D01*
X242313442Y-134615232D01*
X242331686Y-134430001D01*
X242331193Y-134425000D01*
X242331686Y-134420000D01*
X242293032Y-134027539D01*
X242178556Y-133650161D01*
X242039583Y-133390161D01*
X241992656Y-133302367D01*
X241839859Y-133116183D01*
X241993345Y-133085653D01*
X242425932Y-132906470D01*
X242815249Y-132646336D01*
X243146336Y-132315249D01*
X243406470Y-131925932D01*
X243585653Y-131493345D01*
X243677000Y-131034114D01*
X243677000Y-130565886D01*
X243585653Y-130106655D01*
X243406470Y-129674068D01*
X243146336Y-129284751D01*
X242815249Y-128953664D01*
X242425932Y-128693530D01*
X241993345Y-128514347D01*
X241534114Y-128423000D01*
X241102000Y-128423000D01*
X241102000Y-125126305D01*
X241131395Y-125071311D01*
X241238655Y-124717723D01*
X241274872Y-124350003D01*
X241274872Y-121249997D01*
X241238655Y-120882277D01*
X241131395Y-120528689D01*
X240957214Y-120202820D01*
X240792406Y-120002000D01*
X258298001Y-120002000D01*
X258298000Y-138145128D01*
G04 #@! TA.AperFunction,Conductor*
D24*
G36*
X258298000Y-138145128D02*
G01*
X252360000Y-138145128D01*
X252280075Y-138153000D01*
X242950000Y-138153000D01*
X242796586Y-138168042D01*
X242642927Y-138181353D01*
X242633762Y-138184007D01*
X242624269Y-138184938D01*
X242584306Y-138197004D01*
X242460915Y-138183163D01*
X242437500Y-138183000D01*
X242312000Y-138183000D01*
X242312000Y-134629875D01*
X242313442Y-134615232D01*
X242331686Y-134430001D01*
X242331193Y-134425000D01*
X242331686Y-134420000D01*
X242293032Y-134027539D01*
X242178556Y-133650161D01*
X242039583Y-133390161D01*
X241992656Y-133302367D01*
X241839859Y-133116183D01*
X241993345Y-133085653D01*
X242425932Y-132906470D01*
X242815249Y-132646336D01*
X243146336Y-132315249D01*
X243406470Y-131925932D01*
X243585653Y-131493345D01*
X243677000Y-131034114D01*
X243677000Y-130565886D01*
X243585653Y-130106655D01*
X243406470Y-129674068D01*
X243146336Y-129284751D01*
X242815249Y-128953664D01*
X242425932Y-128693530D01*
X241993345Y-128514347D01*
X241534114Y-128423000D01*
X241102000Y-128423000D01*
X241102000Y-125126305D01*
X241131395Y-125071311D01*
X241238655Y-124717723D01*
X241274872Y-124350003D01*
X241274872Y-121249997D01*
X241238655Y-120882277D01*
X241131395Y-120528689D01*
X240957214Y-120202820D01*
X240792406Y-120002000D01*
X258298001Y-120002000D01*
X258298000Y-138145128D01*
G37*
G04 #@! TD.AperFunction*
M02*
