M48
; DRILL file {KiCad (5.1.10)-1} date 01/29/22 17:08:23
; FORMAT={-:-/ absolute / metric / decimal}
; #@! TF.CreationDate,2022-01-29T17:08:23-03:00
; #@! TF.GenerationSoftware,Kicad,Pcbnew,(5.1.10)-1
FMAT,2
METRIC
T1C0.600
T2C1.400
%
G90
G05
T1
X219.0Y-139.0
X219.0Y-146.0
X220.5Y-139.0
X220.5Y-146.0
X222.0Y-139.0
X222.0Y-146.0
X223.5Y-139.0
X223.5Y-146.0
X225.0Y-139.0
X225.0Y-146.0
X226.5Y-139.0
X226.5Y-146.0
X228.0Y-139.0
X228.0Y-146.0
X228.0Y-147.5
X228.0Y-149.5
X228.0Y-151.0
X229.5Y-133.0
X229.5Y-134.5
X229.5Y-136.0
X229.5Y-137.5
X229.5Y-139.0
X230.0Y-151.0
X231.185Y-148.35
X231.3Y-133.0
X232.0Y-151.0
X233.1Y-125.5
X233.1Y-127.0
X233.1Y-128.5
X233.1Y-130.0
X233.1Y-131.5
X233.1Y-133.0
X234.0Y-151.0
X234.35Y-144.38
X235.5Y-151.0
X236.0Y-130.8
X236.25Y-140.6
X236.25Y-141.4
X237.0Y-151.0
X237.05Y-140.6
X237.05Y-141.4
X238.5Y-151.0
X240.0Y-151.0
X241.3Y-130.8
X241.5Y-151.0
X243.0Y-151.0
X243.995Y-147.39
X244.2Y-126.0
X244.2Y-127.5
X244.2Y-129.0
X244.2Y-130.5
X244.2Y-132.0
X244.2Y-133.5
X244.2Y-135.5
X244.2Y-137.5
X244.5Y-151.0
X245.6Y-137.5
X246.0Y-151.0
X247.0Y-137.5
X247.5Y-144.5
X247.5Y-146.0
X247.5Y-147.5
X247.5Y-149.5
X247.5Y-151.0
X248.5Y-137.5
X249.0Y-144.5
X250.0Y-137.5
X250.5Y-144.5
X251.5Y-137.5
X252.0Y-144.5
X253.0Y-137.5
X253.5Y-144.5
X254.5Y-137.5
X255.0Y-144.5
X256.0Y-137.5
X256.5Y-144.5
X257.5Y-137.5
X258.0Y-144.5
T2
X233.52Y-122.8
X238.6Y-122.8
T0
M30
