  0
SECTION
  2
HEADER
  9
$ACADVER
  1
AC1014
  9
$ACADMAINTVER
 70
     9
  9
$DWGCODEPAGE
  3
ANSI_1252
  9
$INSBASE
 10
0.0
 20
0.0
 30
0.0
  9
$EXTMIN
 10
3.722196427756216
 20
1.957123857899432
 30
-0.0000000000112498
  9
$EXTMAX
 10
1003.812944915378
 20
1002.000351843193
 30
0.0000000000002956
  9
$LIMMIN
 10
0.0
 20
0.0
  9
$LIMMAX
 10
12.0
 20
9.0
  9
$ORTHOMODE
 70
     0
  9
$REGENMODE
 70
     1
  9
$FILLMODE
 70
     1
  9
$QTEXTMODE
 70
     0
  9
$MIRRTEXT
 70
     1
  9
$DRAGMODE
 70
     2
  9
$LTSCALE
 40
1.0
  9
$OSMODE
 70
  2213
  9
$ATTMODE
 70
     1
  9
$TEXTSIZE
 40
0.2
  9
$TRACEWID
 40
0.05
  9
$TEXTSTYLE
  7
STANDARD
  9
$CLAYER
  8
TOP_LAYER_1
  9
$CELTYPE
  6
BYLAYER
  9
$CECOLOR
 62
   256
  9
$CELTSCALE
 40
1.0
  9
$DELOBJ
 70
     1
  9
$DISPSILH
 70
     0
  9
$DIMSCALE
 40
1.0
  9
$DIMASZ
 40
0.18
  9
$DIMEXO
 40
0.0625
  9
$DIMDLI
 40
0.38
  9
$DIMRND
 40
0.0
  9
$DIMDLE
 40
0.0
  9
$DIMEXE
 40
0.18
  9
$DIMTP
 40
0.0
  9
$DIMTM
 40
0.0
  9
$DIMTXT
 40
0.18
  9
$DIMCEN
 40
0.09
  9
$DIMTSZ
 40
0.0
  9
$DIMTOL
 70
     0
  9
$DIMLIM
 70
     0
  9
$DIMTIH
 70
     1
  9
$DIMTOH
 70
     1
  9
$DIMSE1
 70
     0
  9
$DIMSE2
 70
     0
  9
$DIMTAD
 70
     0
  9
$DIMZIN
 70
     0
  9
$DIMBLK
  1

  9
$DIMASO
 70
     1
  9
$DIMSHO
 70
     1
  9
$DIMPOST
  1

  9
$DIMAPOST
  1

  9
$DIMALT
 70
     0
  9
$DIMALTD
 70
     2
  9
$DIMALTF
 40
25.4
  9
$DIMLFAC
 40
1.0
  9
$DIMTOFL
 70
     0
  9
$DIMTVP
 40
0.0
  9
$DIMTIX
 70
     0
  9
$DIMSOXD
 70
     0
  9
$DIMSAH
 70
     0
  9
$DIMBLK1
  1

  9
$DIMBLK2
  1

  9
$DIMSTYLE
  2
STANDARD
  9
$DIMCLRD
 70
     0
  9
$DIMCLRE
 70
     0
  9
$DIMCLRT
 70
     0
  9
$DIMTFAC
 40
1.0
  9
$DIMGAP
 40
0.09
  9
$DIMJUST
 70
     0
  9
$DIMSD1
 70
     0
  9
$DIMSD2
 70
     0
  9
$DIMTOLJ
 70
     1
  9
$DIMTZIN
 70
     0
  9
$DIMALTZ
 70
     0
  9
$DIMALTTZ
 70
     0
  9
$DIMFIT
 70
     3
  9
$DIMUPT
 70
     0
  9
$DIMUNIT
 70
     2
  9
$DIMDEC
 70
     4
  9
$DIMTDEC
 70
     4
  9
$DIMALTU
 70
     2
  9
$DIMALTTD
 70
     2
  9
$DIMTXSTY
  7
STANDARD
  9
$DIMAUNIT
 70
     0
  9
$LUNITS
 70
     2
  9
$LUPREC
 70
     4
  9
$SKETCHINC
 40
0.1
  9
$FILLETRAD
 40
0.5
  9
$AUNITS
 70
     0
  9
$AUPREC
 70
     0
  9
$MENU
  1
.
  9
$ELEVATION
 40
0.0
  9
$PELEVATION
 40
0.0
  9
$THICKNESS
 40
0.0
  9
$LIMCHECK
 70
     0
  9
$BLIPMODE
 70
     0
  9
$CHAMFERA
 40
0.5
  9
$CHAMFERB
 40
0.5
  9
$CHAMFERC
 40
0.0
  9
$CHAMFERD
 40
0.0
  9
$SKPOLY
 70
     0
  9
$TDCREATE
 40
2455329.596156539
  9
$TDUPDATE
 40
2456359.643657951
  9
$TDINDWG
 40
19.2656969907
  9
$TDUSRTIMER
 40
19.2656949190
  9
$USRTIMER
 70
     1
  9
$ANGBASE
 50
0.0
  9
$ANGDIR
 70
     0
  9
$PDMODE
 70
     0
  9
$PDSIZE
 40
0.0
  9
$PLINEWID
 40
0.0
  9
$COORDS
 70
     1
  9
$SPLFRAME
 70
     0
  9
$SPLINETYPE
 70
     6
  9
$SPLINESEGS
 70
     8
  9
$ATTDIA
 70
     0
  9
$ATTREQ
 70
     1
  9
$HANDLING
 70
 22529
  9
$HANDSEED
  5
3465
  9
$SURFTAB1
 70
     6
  9
$SURFTAB2
 70
     6
  9
$SURFTYPE
 70
     6
  9
$SURFU
 70
     6
  9
$SURFV
 70
     6
  9
$UCSNAME
  2

  9
$UCSORG
 10
0.0
 20
0.0
 30
0.0
  9
$UCSXDIR
 10
1.0
 20
0.0
 30
0.0
  9
$UCSYDIR
 10
0.0
 20
1.0
 30
0.0
  9
$PUCSNAME
  2

  9
$PUCSORG
 10
0.0
 20
0.0
 30
0.0
  9
$PUCSXDIR
 10
1.0
 20
0.0
 30
0.0
  9
$PUCSYDIR
 10
0.0
 20
1.0
 30
0.0
  9
$USERI1
 70
     0
  9
$USERI2
 70
     0
  9
$USERI3
 70
     0
  9
$USERI4
 70
     0
  9
$USERI5
 70
     0
  9
$USERR1
 40
0.0
  9
$USERR2
 40
0.0
  9
$USERR3
 40
0.0
  9
$USERR4
 40
0.0
  9
$USERR5
 40
0.0
  9
$WORLDVIEW
 70
     1
  9
$SHADEDGE
 70
     3
  9
$SHADEDIF
 70
    70
  9
$TILEMODE
 70
     1
  9
$MAXACTVP
 70
    64
  9
$PINSBASE
 10
0.0
 20
0.0
 30
0.0
  9
$PLIMCHECK
 70
     0
  9
$PEXTMIN
 10
1.000000000000000E+20
 20
1.000000000000000E+20
 30
1.000000000000000E+20
  9
$PEXTMAX
 10
-1.000000000000000E+20
 20
-1.000000000000000E+20
 30
-1.000000000000000E+20
  9
$PLIMMIN
 10
0.0
 20
0.0
  9
$PLIMMAX
 10
12.0
 20
9.0
  9
$UNITMODE
 70
     0
  9
$VISRETAIN
 70
     1
  9
$PLINEGEN
 70
     0
  9
$PSLTSCALE
 70
     1
  9
$TREEDEPTH
 70
  3020
  9
$PICKSTYLE
 70
     1
  9
$CMLSTYLE
  2
STANDARD
  9
$CMLJUST
 70
     0
  9
$CMLSCALE
 40
1.0
  9
$PROXYGRAPHICS
 70
     1
  9
$MEASUREMENT
 70
     0
  0
ENDSEC
  0
SECTION
  2
CLASSES
  0
CLASS
  1
ACDBDICTIONARYWDFLT
  2
AcDbDictionaryWithDefault
  3
AutoCAD 2000
 90
        0
280
     0
281
     0
  0
CLASS
  1
ACDBPLACEHOLDER
  2
AcDbPlaceHolder
  3
AutoCAD 2000
 90
        0
280
     0
281
     0
  0
CLASS
  1
LAYOUT
  2
AcDbLayout
  3
AutoCAD 2000
 90
        0
280
     0
281
     0
  0
CLASS
  1
DICTIONARYVAR
  2
AcDbDictionaryVar
  3
AutoCAD 2000
 90
        0
280
     0
281
     0
  0
CLASS
  1
LONG_TRANSACTION
  2
AcDbLongTransaction
  3
AutoCAD 2000
 90
        0
280
     0
281
     0
  0
CLASS
  1
LWPOLYLINE
  2
AcDbPolyline
  3
AutoCAD 2000
 90
        0
280
     0
281
     1
  0
CLASS
  1
HATCH
  2
AcDbHatch
  3
AutoCAD 2000
 90
        0
280
     0
281
     1
  0
CLASS
  1
XRECORD
  2
AcDbXrecord
  3
AutoCAD 2000
 90
        0
280
     0
281
     0
  0
ENDSEC
  0
SECTION
  2
TABLES
  0
TABLE
  2
VPORT
  5
302E
330
0
100
AcDbSymbolTable
 70
     2
  0
VPORT
  5
3440
330
302E
100
AcDbSymbolTableRecord
100
AcDbViewportTableRecord
  2
*ACTIVE
 70
     0
 10
0.0
 20
0.0
 11
1.0
 21
1.0
 12
503.7675706715673
 22
501.9787378505464
 13
0.0
 23
0.0
 14
0.5
 24
0.5
 15
0.5
 25
0.5
 16
0.0
 26
0.0
 36
1.0
 17
0.0
 27
0.0
 37
0.0
 40
1007.648119452863
 41
1.517766497461928
 42
50.0
 43
0.0
 44
0.0
 50
0.0
 51
0.0
 71
     0
 72
   100
 73
     1
 74
     3
 75
     0
 76
     0
 77
     0
 78
     0
  0
ENDTAB
  0
TABLE
  2
LTYPE
  5
302B
330
0
100
AcDbSymbolTable
 70
     1
  0
LTYPE
  5
3039
330
302B
100
AcDbSymbolTableRecord
100
AcDbLinetypeTableRecord
  2
BYBLOCK
 70
     0
  3

 72
    65
 73
     0
 40
0.0
  0
LTYPE
  5
303A
330
302B
100
AcDbSymbolTableRecord
100
AcDbLinetypeTableRecord
  2
BYLAYER
 70
     0
  3

 72
    65
 73
     0
 40
0.0
  0
LTYPE
  5
303B
330
302B
100
AcDbSymbolTableRecord
100
AcDbLinetypeTableRecord
  2
CONTINUOUS
 70
     0
  3
Solid line
 72
    65
 73
     0
 40
0.0
  0
ENDTAB
  0
TABLE
  2
LAYER
  5
3028
330
0
100
AcDbSymbolTable
 70
     9
  0
LAYER
  5
3036
330
3028
100
AcDbSymbolTableRecord
100
AcDbLayerTableRecord
  2
0
 70
     0
 62
     7
  6
CONTINUOUS
  0
LAYER
  5
3048
330
3028
100
AcDbSymbolTableRecord
100
AcDbLayerTableRecord
  2
TOP_LAYER_1
 70
     0
 62
     7
  6
CONTINUOUS
  0
LAYER
  5
304A
330
3028
100
AcDbSymbolTableRecord
100
AcDbLayerTableRecord
  2
SOLDER_MASK
 70
     0
 62
     7
  6
CONTINUOUS
  0
LAYER
  5
304B
330
3028
100
AcDbSymbolTableRecord
100
AcDbLayerTableRecord
  2
PLATED_VIA_HOLES
 70
     0
 62
     7
  6
CONTINUOUS
  0
LAYER
  5
304C
330
3028
100
AcDbSymbolTableRecord
100
AcDbLayerTableRecord
  2
BOARD_OUTLINE
 70
     0
 62
     7
  6
CONTINUOUS
  0
LAYER
  5
304D
330
3028
100
AcDbSymbolTableRecord
100
AcDbLayerTableRecord
  2
LEGEND_SILKSCREEN
 70
     0
 62
     7
  6
CONTINUOUS
  0
LAYER
  5
304E
330
3028
100
AcDbSymbolTableRecord
100
AcDbLayerTableRecord
  2
ETCH
 70
     0
 62
     7
  6
CONTINUOUS
  0
LAYER
  5
304F
330
3028
100
AcDbSymbolTableRecord
100
AcDbLayerTableRecord
  2
DEFPOINTS
 70
     0
 62
     7
  6
CONTINUOUS
  0
LAYER
  5
3050
330
3028
100
AcDbSymbolTableRecord
100
AcDbLayerTableRecord
  2
COMPONENTS
 70
     0
 62
     7
  6
CONTINUOUS
  0
ENDTAB
  0
TABLE
  2
STYLE
  5
3029
330
0
100
AcDbSymbolTable
 70
     1
  0
STYLE
  5
3037
330
3029
100
AcDbSymbolTableRecord
100
AcDbTextStyleTableRecord
  2
STANDARD
 70
     0
 40
0.0
 41
1.0
 50
0.0
 71
     0
 42
0.2
  3
txt
  4

  0
ENDTAB
  0
TABLE
  2
VIEW
  5
302C
330
0
100
AcDbSymbolTable
 70
     0
  0
ENDTAB
  0
TABLE
  2
UCS
  5
302D
330
0
100
AcDbSymbolTable
 70
     0
  0
ENDTAB
  0
TABLE
  2
APPID
  5
302F
330
0
100
AcDbSymbolTable
 70
     1
  0
APPID
  5
3038
330
302F
100
AcDbSymbolTableRecord
100
AcDbRegAppTableRecord
  2
ACAD
 70
     0
  0
ENDTAB
  0
TABLE
  2
DIMSTYLE
  5
3030
330
0
100
AcDbSymbolTable
 70
     1
  0
DIMSTYLE
105
3051
330
3030
100
AcDbSymbolTableRecord
100
AcDbDimStyleTableRecord
  2
STANDARD
 70
     0
  3

  4

  5

  6

  7

 40
1.0
 41
0.18
 42
0.0625
 43
0.38
 44
0.18
 45
0.0
 46
0.0
 47
0.0
 48
0.0
140
0.18
141
0.09
142
0.0
143
25.4
144
1.0
145
0.0
146
1.0
147
0.09
 71
     0
 72
     0
 73
     1
 74
     1
 75
     0
 76
     0
 77
     0
 78
     0
170
     0
171
     2
172
     0
173
     0
174
     0
175
     0
176
     0
177
     0
178
     0
270
     2
271
     4
272
     4
273
     2
274
     2
340
3037
275
     0
280
     0
281
     0
282
     0
283
     1
284
     0
285
     0
286
     0
287
     5
288
     0
  0
ENDTAB
  0
TABLE
  2
BLOCK_RECORD
  5
3027
330
0
100
AcDbSymbolTable
 70
     2
  0
BLOCK_RECORD
  5
3044
102
{ACAD_XDICTIONARY
360
3463
102
}
330
3027
100
AcDbSymbolTableRecord
100
AcDbBlockTableRecord
  2
*MODEL_SPACE
  0
BLOCK_RECORD
  5
3040
102
{ACAD_XDICTIONARY
360
3461
102
}
330
3027
100
AcDbSymbolTableRecord
100
AcDbBlockTableRecord
  2
*PAPER_SPACE
  0
BLOCK_RECORD
  5
3053
330
3027
100
AcDbSymbolTableRecord
100
AcDbBlockTableRecord
  2
$MODEL_SPACE
  0
BLOCK_RECORD
  5
3056
330
3027
100
AcDbSymbolTableRecord
100
AcDbBlockTableRecord
  2
$PAPER_SPACE
  0
ENDTAB
  0
ENDSEC
  0
SECTION
  2
BLOCKS
  0
BLOCK
  5
3045
330
3044
100
AcDbEntity
  8
0
100
AcDbBlockBegin
  2
*MODEL_SPACE
 70
     0
 10
0.0
 20
0.0
 30
0.0
  3
*MODEL_SPACE
  1

  0
ENDBLK
  5
3046
330
3044
100
AcDbEntity
  8
0
100
AcDbBlockEnd
  0
BLOCK
  5
3041
330
3040
100
AcDbEntity
 67
     1
  8
0
100
AcDbBlockBegin
  2
*PAPER_SPACE
 70
     0
 10
0.0
 20
0.0
 30
0.0
  3
*PAPER_SPACE
  1

  0
ENDBLK
  5
3042
330
3040
100
AcDbEntity
 67
     1
  8
0
100
AcDbBlockEnd
  0
BLOCK
  5
3054
330
3053
100
AcDbEntity
  8
0
100
AcDbBlockBegin
  2
$MODEL_SPACE
 70
     0
 10
0.0
 20
0.0
 30
0.0
  3
$MODEL_SPACE
  1

  0
ENDBLK
  5
3055
330
3053
100
AcDbEntity
  8
0
100
AcDbBlockEnd
  0
BLOCK
  5
3057
330
3056
100
AcDbEntity
  8
0
100
AcDbBlockBegin
  2
$PAPER_SPACE
 70
     0
 10
0.0
 20
0.0
 30
0.0
  3
$PAPER_SPACE
  1

  0
ENDBLK
  5
3058
330
3056
100
AcDbEntity
  8
0
100
AcDbBlockEnd
  0
ENDSEC
  0
SECTION
  2
ENTITIES
  0
LWPOLYLINE
  5
3059
330
3044
100
AcDbEntity
  8
BOARD_OUTLINE
100
AcDbPolyline
 90
        5
 70
     0
 43
0.0
 10
3.797623037415653
 20
1001.985057632069
 10
3.797623037415196
 20
1.985057632069301
 10
1003.797623037415
 20
1.985057632069301
 10
1003.797623037415
 20
1001.985057632069
 10
4.717623037415271
 20
1001.985057632069
  0
LWPOLYLINE
  5
3060
330
3044
100
AcDbEntity
  8
TOP_LAYER_1
100
AcDbPolyline
 90
       17
 70
     1
 43
0.0
 10
458.7976230374152
 20
496.9850576320693
 10
408.7976230374152
 20
496.9850576320693
 10
408.7976230374152
 20
496.9850576320693
 42
-0.4142135623730951
 10
403.7976230374152
 20
501.9850576320693
 10
403.7976230374152
 20
501.9850576320693
 10
403.7976230374152
 20
551.9850576320693
 10
403.7976230374152
 20
551.9850576320693
 42
-0.4142135623730951
 10
408.7976230374152
 20
556.9850576320694
 10
408.7976230374152
 20
556.9850576320694
 10
458.7976230374152
 20
556.9850576320694
 10
458.7976230374152
 20
556.9850576320694
 42
-0.4142135623730951
 10
463.7976230374151
 20
551.9850576320693
 10
463.7976230374151
 20
551.9850576320693
 10
463.7976230374151
 20
501.9850576320693
 10
463.7976230374151
 20
501.9850576320693
 42
-0.4142135623730951
 10
458.7976230374152
 20
496.9850576320693
 10
458.7976230374152
 20
496.9850576320693
  0
LWPOLYLINE
  5
3073
330
3044
100
AcDbEntity
  8
SOLDER_MASK
100
AcDbPolyline
 90
       98
 70
     1
 43
0.0
 10
425.8606230374152
 20
571.2291576320692
 10
425.8606230374152
 20
571.2291576320692
 42
0.4142135623730951
 10
433.7976230374152
 20
563.2921576320692
 10
433.7976230374152
 20
563.2921576320692
 10
441.7346230374151
 20
563.2921576320692
 10
441.7346230374151
 20
558.7238576320692
 10
410.9216230374149
 20
558.7238576320692
 10
410.9216230374149
 20
558.7238576320692
 42
0.4142135623730951
 10
402.0588230374149
 20
549.8610576320694
 10
402.0588230374149
 20
549.8610576320694
 10
402.0588230374149
 20
504.1090576320691
 10
402.0588230374149
 20
504.1090576320691
 42
0.4142135623730951
 10
410.9216230374149
 20
495.2462576320691
 10
410.9216230374149
 20
495.2462576320691
 10
456.6736230374154
 20
495.2462576320691
 10
456.6736230374154
 20
495.2462576320691
 42
0.4142135623730951
 10
465.5364230374153
 20
504.1090576320691
 10
465.5364230374153
 20
504.1090576320691
 10
465.5364230374153
 20
549.8610576320694
 10
465.5364230374153
 20
549.8610576320694
 42
0.4142135623730951
 10
456.6736230374154
 20
558.7238576320692
 10
456.6736230374154
 20
558.7238576320692
 10
444.734623037415
 20
558.7238576320692
 10
444.734623037415
 20
563.2921576320692
 10
452.6716230374145
 20
563.2921576320692
 10
452.6716230374145
 20
563.2921576320692
 42
0.4142135623730951
 10
460.6086230374152
 20
571.2291576320692
 10
460.6086230374152
 20
571.2291576320692
 10
460.6086230374152
 20
599.0401576320695
 10
466.8787230374148
 20
599.0401576320695
 10
505.8527230374151
 20
560.0661576320693
 10
505.8527230374151
 20
553.7960576320694
 10
478.0417230374148
 20
553.7960576320694
 10
478.0417230374148
 20
553.7960576320694
 42
0.9999999999999998
 10
478.0417230374148
 20
537.9220576320692
 10
478.0417230374148
 20
537.9220576320692
 10
505.8527230374151
 20
537.9220576320692
 10
505.8527230374151
 20
534.9220576320694
 10
478.0417230374148
 20
534.9220576320694
 10
478.0417230374148
 20
534.9220576320694
 42
0.9999999999999998
 10
478.0417230374148
 20
519.0480576320691
 10
478.0417230374148
 20
519.0480576320691
 10
505.8527230374151
 20
519.0480576320691
 10
505.8527230374151
 20
516.0480576320691
 10
478.0417230374148
 20
516.0480576320691
 10
478.0417230374148
 20
516.0480576320691
 42
0.9999999999999998
 10
478.0417230374148
 20
500.1740576320691
 10
478.0417230374148
 20
500.1740576320691
 10
505.8527230374151
 20
500.1740576320691
 10
505.8527230374151
 20
481.1760576320692
 10
479.6066230374154
 20
454.9299576320691
 10
460.6086230374152
 20
454.9299576320691
 10
460.6086230374152
 20
482.7409576320691
 10
460.6086230374152
 20
482.7409576320691
 42
0.9999999999999998
 10
444.734623037415
 20
482.7409576320691
 10
444.734623037415
 20
482.7409576320691
 10
444.734623037415
 20
454.9299576320691
 10
441.7346230374151
 20
454.9299576320691
 10
441.7346230374151
 20
482.7409576320691
 10
441.7346230374151
 20
482.7409576320691
 42
0.9999999999999998
 10
425.8606230374152
 20
482.7409576320691
 10
425.8606230374152
 20
482.7409576320691
 10
425.8606230374152
 20
454.9299576320691
 10
422.8606230374151
 20
454.9299576320691
 10
422.8606230374151
 20
482.7409576320691
 10
422.8606230374151
 20
482.7409576320691
 42
0.9999999999999998
 10
406.9866230374148
 20
482.7409576320691
 10
406.9866230374148
 20
482.7409576320691
 10
406.9866230374148
 20
454.9299576320691
 10
390.8170230374151
 20
454.9299576320691
 10
361.7425230374151
 20
484.0044576320691
 10
361.7425230374151
 20
500.1740576320691
 10
389.5535230374152
 20
500.1740576320691
 10
389.5535230374152
 20
500.1740576320691
 42
0.9999999999999998
 10
389.5535230374152
 20
516.0480576320691
 10
389.5535230374152
 20
516.0480576320691
 10
361.7425230374151
 20
516.0480576320691
 10
361.7425230374151
 20
519.0480576320691
 10
389.5535230374152
 20
519.0480576320691
 10
389.5535230374152
 20
519.0480576320691
 42
0.9999999999999998
 10
389.5535230374152
 20
534.9220576320694
 10
389.5535230374152
 20
534.9220576320694
 10
361.7425230374151
 20
534.9220576320694
 10
361.7425230374151
 20
537.9220576320692
 10
389.5535230374152
 20
537.9220576320692
 10
389.5535230374152
 20
537.9220576320692
 42
0.9999999999999998
 10
389.5535230374152
 20
553.7960576320694
 10
389.5535230374152
 20
553.7960576320694
 10
367.6849230374147
 20
553.7960576320694
 10
367.6849230374147
 20
578.7365576320694
 10
387.9886230374147
 20
599.0401576320695
 10
406.9866230374148
 20
599.0401576320695
 10
406.9866230374148
 20
571.2291576320692
 10
406.9866230374148
 20
571.2291576320692
 42
0.9999999999999998
 10
422.8606230374151
 20
571.2291576320692
 10
422.8606230374151
 20
571.2291576320692
 10
422.8606230374151
 20
599.0401576320695
 10
425.8606230374152
 20
599.0401576320695
  0
TEXT
  5
30D7
330
3044
100
AcDbEntity
  8
SOLDER_MASK
100
AcDbText
 10
759.4742273820675
 20
345.493330778934
 30
0.0
 40
30.0
  1
RF OUT
100
AcDbText
  0
TEXT
  5
30D9
330
3044
100
AcDbEntity
  8
ETCH
100
AcDbText
 10
604.3981615224256
 20
148.4906626696939
 30
0.0
 40
30.0
  1
QFN 3x3 12E
100
AcDbText
  0
CIRCLE
  5
30DA
330
3044
100
AcDbEntity
  8
PLATED_VIA_HOLES
100
AcDbCircle
 10
974.750003959746
 20
122.5008576320693
 30
0.0
 40
10.0
  0
CIRCLE
  5
30DB
330
3044
100
AcDbEntity
  8
PLATED_VIA_HOLES
100
AcDbCircle
 10
974.750003959746
 20
172.5008576320693
 30
0.0
 40
10.0
  0
CIRCLE
  5
30DC
330
3044
100
AcDbEntity
  8
PLATED_VIA_HOLES
100
AcDbCircle
 10
974.750003959746
 20
222.5008576320691
 30
0.0
 40
10.0
  0
CIRCLE
  5
30DD
330
3044
100
AcDbEntity
  8
PLATED_VIA_HOLES
100
AcDbCircle
 10
966.2038122909889
 20
272.5008576320691
 30
0.0
 40
10.0
  0
CIRCLE
  5
30DE
330
3044
100
AcDbEntity
  8
PLATED_VIA_HOLES
100
AcDbCircle
 10
966.2038122909889
 20
322.500857632069
 30
0.0
 40
10.0
  0
CIRCLE
  5
30DF
330
3044
100
AcDbEntity
  8
PLATED_VIA_HOLES
100
AcDbCircle
 10
966.2038122909889
 20
372.5008576320691
 30
0.0
 40
10.0
  0
CIRCLE
  5
30E0
330
3044
100
AcDbEntity
  8
PLATED_VIA_HOLES
100
AcDbCircle
 10
43.10986510991096
 20
369.4850576320693
 30
0.0
 40
10.0
  0
CIRCLE
  5
30E1
330
3044
100
AcDbEntity
  8
PLATED_VIA_HOLES
100
AcDbCircle
 10
974.750003959746
 20
77.3635645092442
 30
0.0
 40
10.0
  0
CIRCLE
  5
30E2
330
3044
100
AcDbEntity
  8
PLATED_VIA_HOLES
100
AcDbCircle
 10
43.10986510991096
 20
319.4850576320693
 30
0.0
 40
10.0
  0
CIRCLE
  5
30E3
330
3044
100
AcDbEntity
  8
PLATED_VIA_HOLES
100
AcDbCircle
 10
43.10986510991096
 20
269.4850576320693
 30
0.0
 40
10.0
  0
CIRCLE
  5
30E4
330
3044
100
AcDbEntity
  8
PLATED_VIA_HOLES
100
AcDbCircle
 10
34.83723503206695
 20
222.3322256025741
 30
0.0
 40
10.0
  0
CIRCLE
  5
30E5
330
3044
100
AcDbEntity
  8
PLATED_VIA_HOLES
100
AcDbCircle
 10
34.83723503206695
 20
172.3322256025738
 30
0.0
 40
10.0
  0
CIRCLE
  5
30E6
330
3044
100
AcDbEntity
  8
PLATED_VIA_HOLES
100
AcDbCircle
 10
34.83723503206695
 20
122.3322256025741
 30
0.0
 40
10.0
  0
CIRCLE
  5
30E7
330
3044
100
AcDbEntity
  8
PLATED_VIA_HOLES
100
AcDbCircle
 10
34.83723503206695
 20
72.33222560257414
 30
0.0
 40
10.0
  0
CIRCLE
  5
30E8
330
3044
100
AcDbEntity
  8
PLATED_VIA_HOLES
100
AcDbCircle
 10
44.80778691345585
 20
22.33222560257416
 30
0.0
 40
10.0
  0
CIRCLE
  5
30E9
330
3044
100
AcDbEntity
  8
PLATED_VIA_HOLES
100
AcDbCircle
 10
94.80778691345587
 20
22.33222560257416
 30
0.0
 40
10.0
  0
CIRCLE
  5
30EA
330
3044
100
AcDbEntity
  8
PLATED_VIA_HOLES
100
AcDbCircle
 10
144.8077869134551
 20
22.33222560257416
 30
0.0
 40
10.0
  0
CIRCLE
  5
30EB
330
3044
100
AcDbEntity
  8
PLATED_VIA_HOLES
100
AcDbCircle
 10
194.8077869134554
 20
22.33222560257416
 30
0.0
 40
10.0
  0
CIRCLE
  5
30EC
330
3044
100
AcDbEntity
  8
PLATED_VIA_HOLES
100
AcDbCircle
 10
244.8077869134559
 20
22.33222560257416
 30
0.0
 40
10.0
  0
CIRCLE
  5
30ED
330
3044
100
AcDbEntity
  8
PLATED_VIA_HOLES
100
AcDbCircle
 10
592.3081493052348
 20
22.33222560257416
 30
0.0
 40
10.0
  0
CIRCLE
  5
30EE
330
3044
100
AcDbEntity
  8
PLATED_VIA_HOLES
100
AcDbCircle
 10
644.8077869134556
 20
22.33222560257416
 30
0.0
 40
10.0
  0
CIRCLE
  5
30EF
330
3044
100
AcDbEntity
  8
PLATED_VIA_HOLES
100
AcDbCircle
 10
694.8077869134556
 20
22.33222560257416
 30
0.0
 40
10.0
  0
CIRCLE
  5
30F0
330
3044
100
AcDbEntity
  8
PLATED_VIA_HOLES
100
AcDbCircle
 10
744.8077869134556
 20
22.33222560257416
 30
0.0
 40
10.0
  0
CIRCLE
  5
30F1
330
3044
100
AcDbEntity
  8
PLATED_VIA_HOLES
100
AcDbCircle
 10
794.8077869134556
 20
22.33222560257416
 30
0.0
 40
10.0
  0
CIRCLE
  5
30F2
330
3044
100
AcDbEntity
  8
PLATED_VIA_HOLES
100
AcDbCircle
 10
844.8077869134559
 20
22.33222560257416
 30
0.0
 40
10.0
  0
CIRCLE
  5
30F3
330
3044
100
AcDbEntity
  8
PLATED_VIA_HOLES
100
AcDbCircle
 10
894.8077869134559
 20
22.33222560257416
 30
0.0
 40
10.0
  0
CIRCLE
  5
30F4
330
3044
100
AcDbEntity
  8
PLATED_VIA_HOLES
100
AcDbCircle
 10
944.8077869134559
 20
22.33222560257416
 30
0.0
 40
10.0
  0
TEXT
  5
30F8
330
3044
100
AcDbEntity
  8
SOLDER_MASK
100
AcDbText
 10
103.8527714439291
 20
674.861806208439
 30
0.0
 40
30.0
  1
RF IN
100
AcDbText
  0
TEXT
  5
30FA
330
3044
100
AcDbEntity
  8
LEGEND_SILKSCREEN
100
AcDbText
 10
418.3034767271772
 20
922.6844534381012
 30
0.0
 40
30.0
  1
VDD 1
 50
270.0
100
AcDbText
  0
CIRCLE
  5
30FB
330
3044
100
AcDbEntity
  8
PLATED_VIA_HOLES
100
AcDbCircle
 10
246.8913502730538
 20
972.2321239752883
 30
0.0
 40
10.0
  0
CIRCLE
  5
30FC
330
3044
100
AcDbEntity
  8
PLATED_VIA_HOLES
100
AcDbCircle
 10
191.8913502730538
 20
972.2321239752883
 30
0.0
 40
10.0
  0
CIRCLE
  5
30FD
330
3044
100
AcDbEntity
  8
PLATED_VIA_HOLES
100
AcDbCircle
 10
136.8913502730538
 20
972.2321239752883
 30
0.0
 40
10.0
  0
CIRCLE
  5
30FE
330
3044
100
AcDbEntity
  8
PLATED_VIA_HOLES
100
AcDbCircle
 10
358.439969294696
 20
816.1083400904262
 30
0.0
 40
10.0
  0
CIRCLE
  5
30FF
330
3044
100
AcDbEntity
  8
PLATED_VIA_HOLES
100
AcDbCircle
 10
960.624067821206
 20
698.9301132308542
 30
0.0
 40
10.0
  0
CIRCLE
  5
3100
330
3044
100
AcDbEntity
  8
PLATED_VIA_HOLES
100
AcDbCircle
 10
960.624067821206
 20
748.9301132308542
 30
0.0
 40
10.0
  0
CIRCLE
  5
3101
330
3044
100
AcDbEntity
  8
PLATED_VIA_HOLES
100
AcDbCircle
 10
960.624067821206
 20
798.9301132308542
 30
0.0
 40
10.0
  0
CIRCLE
  5
3102
330
3044
100
AcDbEntity
  8
PLATED_VIA_HOLES
100
AcDbCircle
 10
47.38406510991082
 20
769.4850576320691
 30
0.0
 40
10.0
  0
CIRCLE
  5
3103
330
3044
100
AcDbEntity
  8
PLATED_VIA_HOLES
100
AcDbCircle
 10
49.14801781960616
 20
819.4850576320684
 30
0.0
 40
10.0
  0
CIRCLE
  5
3104
330
3044
100
AcDbEntity
  8
PLATED_VIA_HOLES
100
AcDbCircle
 10
356.92514812356
 20
866.1083400904274
 30
0.0
 40
10.0
  0
CIRCLE
  5
3105
330
3044
100
AcDbEntity
  8
PLATED_VIA_HOLES
100
AcDbCircle
 10
356.92514812356
 20
916.1083400904274
 30
0.0
 40
10.0
  0
CIRCLE
  5
3106
330
3044
100
AcDbEntity
  8
PLATED_VIA_HOLES
100
AcDbCircle
 10
39.99331229098881
 20
869.4850576320693
 30
0.0
 40
10.0
  0
CIRCLE
  5
3107
330
3044
100
AcDbEntity
  8
PLATED_VIA_HOLES
100
AcDbCircle
 10
47.38406510991082
 20
659.4850576320692
 30
0.0
 40
10.0
  0
CIRCLE
  5
3108
330
3044
100
AcDbEntity
  8
PLATED_VIA_HOLES
100
AcDbCircle
 10
47.38406510991082
 20
714.4850576320692
 30
0.0
 40
10.0
  0
CIRCLE
  5
3109
330
3044
100
AcDbEntity
  8
PLATED_VIA_HOLES
100
AcDbCircle
 10
38.31986304304793
 20
972.2321239752883
 30
0.0
 40
10.0
  0
CIRCLE
  5
310A
330
3044
100
AcDbEntity
  8
PLATED_VIA_HOLES
100
AcDbCircle
 10
847.7976230374148
 20
588.4850576320696
 30
0.0
 40
17.5
  0
CIRCLE
  5
310B
330
3044
100
AcDbEntity
  8
PLATED_VIA_HOLES
100
AcDbCircle
 10
934.7976230374152
 20
588.4850576320696
 30
0.0
 40
17.5
  0
CIRCLE
  5
310C
330
3044
100
AcDbEntity
  8
PLATED_VIA_HOLES
100
AcDbCircle
 10
798.0235775970776
 20
573.9850576320693
 30
0.0
 40
8.0
  0
CIRCLE
  5
310D
330
3044
100
AcDbEntity
  8
PLATED_VIA_HOLES
100
AcDbCircle
 10
891.8008020302394
 20
573.9850576320693
 30
0.0
 40
8.0
  0
CIRCLE
  5
310E
330
3044
100
AcDbEntity
  8
PLATED_VIA_HOLES
100
AcDbCircle
 10
975.8008020302396
 20
573.9850576320693
 30
0.0
 40
8.0
  0
CIRCLE
  5
310F
330
3044
100
AcDbEntity
  8
PLATED_VIA_HOLES
100
AcDbCircle
 10
91.72533230851334
 20
972.2321239752883
 30
0.0
 40
10.0
  0
CIRCLE
  5
3110
330
3044
100
AcDbEntity
  8
PLATED_VIA_HOLES
100
AcDbCircle
 10
39.99331229098881
 20
919.4586617506081
 30
0.0
 40
10.0
  0
CIRCLE
  5
3111
330
3044
100
AcDbEntity
  8
PLATED_VIA_HOLES
100
AcDbCircle
 10
356.92514812356
 20
968.8554064336468
 30
0.0
 40
10.0
  0
LWPOLYLINE
  5
3112
330
3044
100
AcDbEntity
  8
ETCH
100
AcDbPolyline
 90
        4
 70
     1
 43
0.0
 10
768.3479712766851
 20
876.7518259007671
 10
807.8528767023382
 20
900.5077958748509
 10
832.0860871446511
 20
887.8874368261181
 10
792.5811817189985
 20
864.1844935707258
  0
LWPOLYLINE
  5
3118
330
3044
100
AcDbEntity
  8
ETCH
100
AcDbPolyline
 90
        4
 70
     1
 43
0.0
 10
804.7773270181934
 20
857.8743140463609
 10
844.2292057251538
 20
881.5772573017518
 10
868.4624161674671
 20
869.009924971713
 10
828.9575107418141
 20
845.253954997629
  0
LWPOLYLINE
  5
311E
330
3044
100
AcDbEntity
  8
ETCH
100
AcDbPolyline
 90
        4
 70
     1
 43
0.0
 10
880.6055347479704
 20
862.6467187286541
 10
904.8387451902836
 20
850.0793863986142
 10
865.3338397646304
 20
826.3234164245295
 10
841.153656041008
 20
838.9437754732629
  0
LWPOLYLINE
  5
3124
330
3044
100
AcDbEntity
  8
ETCH
100
AcDbPolyline
 90
        4
 70
     1
 43
0.0
 10
786.6952159441693
 20
806.1732633215131
 10
826.2001213698221
 20
829.9292332955966
 10
850.3803050934429
 20
817.3088742468642
 10
810.9284263864832
 20
793.6059309914726
  0
LWPOLYLINE
  5
312A
330
3044
100
AcDbEntity
  8
ETCH
100
AcDbPolyline
 90
        4
 70
     1
 43
0.0
 10
823.0715449669851
 20
787.2427247484147
 10
862.5764503926381
 20
810.9986947224989
 10
886.7566341162593
 20
798.4313623924588
 10
847.304755409298
 20
774.6753924183755
  0
LWPOLYLINE
  5
3130
330
3044
100
AcDbEntity
  8
ETCH
100
AcDbPolyline
 90
        4
 70
     1
 43
0.0
 10
768.6131048701462
 20
754.5252393153575
 10
808.118010295799
 20
778.2812092894417
 10
832.3512207381114
 20
765.6608502407095
 10
792.8463153124594
 20
741.9048802666257
  0
LWPOLYLINE
  5
3136
330
3044
100
AcDbEntity
  8
ETCH
100
AcDbPolyline
 90
        4
 70
     1
 43
0.0
 10
732.2367758473295
 20
773.4557778884558
 10
771.741681272983
 20
797.2117478625388
 10
795.9218649966037
 20
784.5913888138068
 10
756.4699862896435
 20
760.8354188397234
  0
LWPOLYLINE
  5
313C
330
3044
100
AcDbEntity
  8
ETCH
100
AcDbPolyline
 90
        4
 70
     1
 43
0.0
 10
714.2076914919981
 20
721.8077538823004
 10
753.659570198959
 20
745.5106971376915
 10
777.8927806412724
 20
732.9433648076522
 10
738.3878752156198
 20
709.1873948335684
  0
CIRCLE
  5
3142
330
3044
100
AcDbEntity
  8
PLATED_VIA_HOLES
100
AcDbCircle
 10
682.9848733573181
 20
969.0658239752879
 30
0.0
 40
10.0
  0
CIRCLE
  5
3143
330
3044
100
AcDbEntity
  8
PLATED_VIA_HOLES
100
AcDbCircle
 10
682.9848733573181
 20
919.0658239752879
 30
0.0
 40
10.0
  0
CIRCLE
  5
3144
330
3044
100
AcDbEntity
  8
PLATED_VIA_HOLES
100
AcDbCircle
 10
682.9848733573181
 20
869.0658239752881
 30
0.0
 40
10.0
  0
CIRCLE
  5
3145
330
3044
100
AcDbEntity
  8
PLATED_VIA_HOLES
100
AcDbCircle
 10
683.1995385483036
 20
822.0110461116513
 30
0.0
 40
10.0
  0
CIRCLE
  5
3146
330
3044
100
AcDbEntity
  8
PLATED_VIA_HOLES
100
AcDbCircle
 10
683.1995385483036
 20
772.0110461116513
 30
0.0
 40
10.0
  0
TEXT
  5
3148
330
3044
100
AcDbEntity
  8
LEGEND_SILKSCREEN
100
AcDbText
 10
599.7826364805128
 20
933.6777367105552
 30
0.0
 40
30.0
  1
VDD 2
 50
270.0
100
AcDbText
  0
CIRCLE
  5
3149
330
3044
100
AcDbEntity
  8
PLATED_VIA_HOLES
100
AcDbCircle
 10
410.0161590760324
 20
551.7515493853363
 30
0.0
 40
4.0
  0
CIRCLE
  5
314A
330
3044
100
AcDbEntity
  8
PLATED_VIA_HOLES
100
AcDbCircle
 10
410.0161590760324
 20
534.7515493853363
 30
0.0
 40
4.0
  0
CIRCLE
  5
314B
330
3044
100
AcDbEntity
  8
PLATED_VIA_HOLES
100
AcDbCircle
 10
424.7161590760324
 20
543.2515493853363
 30
0.0
 40
4.0
  0
CIRCLE
  5
314C
330
3044
100
AcDbEntity
  8
PLATED_VIA_HOLES
100
AcDbCircle
 10
424.7161590760324
 20
526.2515493853364
 30
0.0
 40
4.0
  0
CIRCLE
  5
314D
330
3044
100
AcDbEntity
  8
PLATED_VIA_HOLES
100
AcDbCircle
 10
439.4161590760325
 20
551.7515493853363
 30
0.0
 40
4.0
  0
CIRCLE
  5
314E
330
3044
100
AcDbEntity
  8
PLATED_VIA_HOLES
100
AcDbCircle
 10
439.4161590760325
 20
534.7515493853363
 30
0.0
 40
4.0
  0
CIRCLE
  5
314F
330
3044
100
AcDbEntity
  8
PLATED_VIA_HOLES
100
AcDbCircle
 10
454.1161590760323
 20
543.2515493853363
 30
0.0
 40
4.0
  0
CIRCLE
  5
3150
330
3044
100
AcDbEntity
  8
PLATED_VIA_HOLES
100
AcDbCircle
 10
454.1161590760323
 20
526.2515493853364
 30
0.0
 40
4.0
  0
CIRCLE
  5
3151
330
3044
100
AcDbEntity
  8
PLATED_VIA_HOLES
100
AcDbCircle
 10
410.0161590760324
 20
517.7515493853364
 30
0.0
 40
4.0
  0
CIRCLE
  5
3152
330
3044
100
AcDbEntity
  8
PLATED_VIA_HOLES
100
AcDbCircle
 10
439.4161590760325
 20
517.7515493853364
 30
0.0
 40
4.0
  0
CIRCLE
  5
3153
330
3044
100
AcDbEntity
  8
PLATED_VIA_HOLES
100
AcDbCircle
 10
424.7161590760324
 20
509.2515493853363
 30
0.0
 40
4.0
  0
CIRCLE
  5
3154
330
3044
100
AcDbEntity
  8
PLATED_VIA_HOLES
100
AcDbCircle
 10
454.1161590760323
 20
509.2515493853363
 30
0.0
 40
4.0
  0
CIRCLE
  5
3155
330
3044
100
AcDbEntity
  8
PLATED_VIA_HOLES
100
AcDbCircle
 10
410.0161590760324
 20
501.9227644239569
 30
0.0
 40
4.0
  0
CIRCLE
  5
3156
330
3044
100
AcDbEntity
  8
PLATED_VIA_HOLES
100
AcDbCircle
 10
439.4161590760325
 20
501.9227644239569
 30
0.0
 40
4.0
  0
CIRCLE
  5
3157
330
3044
100
AcDbEntity
  8
PLATED_VIA_HOLES
100
AcDbCircle
 10
780.6955857978366
 20
969.0658239752879
 30
0.0
 40
10.0
  0
CIRCLE
  5
3158
330
3044
100
AcDbEntity
  8
PLATED_VIA_HOLES
100
AcDbCircle
 10
830.6955857978364
 20
969.0658239752879
 30
0.0
 40
10.0
  0
CIRCLE
  5
3159
330
3044
100
AcDbEntity
  8
PLATED_VIA_HOLES
100
AcDbCircle
 10
880.6955857978364
 20
969.0658239752879
 30
0.0
 40
10.0
  0
CIRCLE
  5
315A
330
3044
100
AcDbEntity
  8
PLATED_VIA_HOLES
100
AcDbCircle
 10
930.6955857978364
 20
969.0658239752879
 30
0.0
 40
10.0
  0
CIRCLE
  5
315B
330
3044
100
AcDbEntity
  8
PLATED_VIA_HOLES
100
AcDbCircle
 10
980.6955857978364
 20
969.0658239752879
 30
0.0
 40
10.0
  0
CIRCLE
  5
315C
330
3044
100
AcDbEntity
  8
PLATED_VIA_HOLES
100
AcDbCircle
 10
980.6955857978364
 20
919.0658239752879
 30
0.0
 40
10.0
  0
CIRCLE
  5
315D
330
3044
100
AcDbEntity
  8
PLATED_VIA_HOLES
100
AcDbCircle
 10
980.6955857978364
 20
869.0658239752881
 30
0.0
 40
10.0
  0
CIRCLE
  5
315E
330
3044
100
AcDbEntity
  8
PLATED_VIA_HOLES
100
AcDbCircle
 10
847.7976230374148
 20
475.4850576320696
 30
0.0
 40
17.5
  0
CIRCLE
  5
315F
330
3044
100
AcDbEntity
  8
PLATED_VIA_HOLES
100
AcDbCircle
 10
934.7976230374152
 20
475.4850576320696
 30
0.0
 40
17.5
  0
CIRCLE
  5
3160
330
3044
100
AcDbEntity
  8
PLATED_VIA_HOLES
100
AcDbCircle
 10
798.0235775970776
 20
489.9850576320696
 30
0.0
 40
8.0
  0
CIRCLE
  5
3161
330
3044
100
AcDbEntity
  8
PLATED_VIA_HOLES
100
AcDbCircle
 10
891.8008020302394
 20
489.9850576320696
 30
0.0
 40
8.0
  0
CIRCLE
  5
3162
330
3044
100
AcDbEntity
  8
PLATED_VIA_HOLES
100
AcDbCircle
 10
975.8008020302396
 20
489.9850576320696
 30
0.0
 40
8.0
  0
CIRCLE
  5
3163
330
3044
100
AcDbEntity
  8
PLATED_VIA_HOLES
100
AcDbCircle
 10
72.79762303741519
 20
559.6110576320691
 30
0.0
 40
17.5
  0
CIRCLE
  5
3164
330
3044
100
AcDbEntity
  8
PLATED_VIA_HOLES
100
AcDbCircle
 10
159.797623037415
 20
559.6110576320691
 30
0.0
 40
17.5
  0
CIRCLE
  5
3165
330
3044
100
AcDbEntity
  8
PLATED_VIA_HOLES
100
AcDbCircle
 10
72.79762303741519
 20
446.6110576320692
 30
0.0
 40
17.5
  0
CIRCLE
  5
3166
330
3044
100
AcDbEntity
  8
PLATED_VIA_HOLES
100
AcDbCircle
 10
159.797623037415
 20
446.6110576320692
 30
0.0
 40
17.5
  0
CIRCLE
  5
3167
330
3044
100
AcDbEntity
  8
PLATED_VIA_HOLES
100
AcDbCircle
 10
32.80080203023953
 20
455.5670192705177
 30
0.0
 40
8.0
  0
ARC
  5
3168
330
3044
100
AcDbEntity
  8
PLATED_VIA_HOLES
100
AcDbCircle
 10
116.8008020302395
 20
455.5670192705177
 30
0.0
 40
8.0
100
AcDbArc
 50
148.732132458512
 51
31.2678675414877
  0
CIRCLE
  5
3169
330
3044
100
AcDbEntity
  8
PLATED_VIA_HOLES
100
AcDbCircle
 10
200.8008020302394
 20
461.1110576320688
 30
0.0
 40
8.0
  0
CIRCLE
  5
316A
330
3044
100
AcDbEntity
  8
PLATED_VIA_HOLES
100
AcDbCircle
 10
32.80080203023953
 20
545.1110576320692
 30
0.0
 40
8.0
  0
CIRCLE
  5
316B
330
3044
100
AcDbEntity
  8
PLATED_VIA_HOLES
100
AcDbCircle
 10
116.8008020302395
 20
545.1110576320692
 30
0.0
 40
8.0
  0
CIRCLE
  5
316C
330
3044
100
AcDbEntity
  8
PLATED_VIA_HOLES
100
AcDbCircle
 10
523.1371785044959
 20
973.7394873469183
 30
0.0
 40
10.0
  0
CIRCLE
  5
316D
330
3044
100
AcDbEntity
  8
PLATED_VIA_HOLES
100
AcDbCircle
 10
523.1371785044959
 20
923.7394873469183
 30
0.0
 40
10.0
  0
CIRCLE
  5
316E
330
3044
100
AcDbEntity
  8
PLATED_VIA_HOLES
100
AcDbCircle
 10
523.1371785044959
 20
873.7394873469185
 30
0.0
 40
10.0
  0
CIRCLE
  5
316F
330
3044
100
AcDbEntity
  8
PLATED_VIA_HOLES
100
AcDbCircle
 10
663.8422488802001
 20
733.0986956007841
 30
0.0
 40
10.0
  0
CIRCLE
  5
3170
330
3044
100
AcDbEntity
  8
PLATED_VIA_HOLES
100
AcDbCircle
 10
730.6955857978366
 20
969.0658239752879
 30
0.0
 40
10.0
  0
CIRCLE
  5
3171
330
3044
100
AcDbEntity
  8
PLATED_VIA_HOLES
100
AcDbCircle
 10
960.624067821206
 20
648.9301132308542
 30
0.0
 40
10.0
  0
CIRCLE
  5
3172
330
3044
100
AcDbEntity
  8
PLATED_VIA_HOLES
100
AcDbCircle
 10
966.2038122909889
 20
422.5008576320695
 30
0.0
 40
10.0
  0
CIRCLE
  5
3173
330
3044
100
AcDbEntity
  8
PLATED_VIA_HOLES
100
AcDbCircle
 10
47.38406510991082
 20
609.4850576320692
 30
0.0
 40
10.0
  0
CIRCLE
  5
3174
330
3044
100
AcDbEntity
  8
PLATED_VIA_HOLES
100
AcDbCircle
 10
296.8913502730537
 20
972.2321239752883
 30
0.0
 40
10.0
  0
TEXT
  5
317C
330
3044
100
AcDbEntity
  8
ETCH
100
AcDbText
 10
604.3981615224256
 20
98.30725464107091
 30
0.0
 40
30.0
  1
Rev. 0
100
AcDbText
  0
CIRCLE
  5
317E
330
3044
100
AcDbEntity
  8
PLATED_VIA_HOLES
100
AcDbCircle
 10
488.1878119092943
 20
770.6187409983258
 30
0.0
 40
5.0
  0
CIRCLE
  5
317F
330
3044
100
AcDbEntity
  8
PLATED_VIA_HOLES
100
AcDbCircle
 10
301.6186086028191
 20
397.5075971556866
 30
0.0
 40
5.0
  0
LINE
  5
3180
330
3044
100
AcDbEntity
  8
TOP_LAYER_1
100
AcDbLine
 10
553.5831126541888
 20
409.7922576320691
 30
0.0
 11
553.5831126541888
 21
409.7922576320691
 31
0.0
  0
CIRCLE
  5
3183
330
3044
100
AcDbEntity
  8
PLATED_VIA_HOLES
100
AcDbCircle
 10
294.8077869134559
 20
22.33222560257416
 30
0.0
 40
10.0
  0
CIRCLE
  5
3184
330
3044
100
AcDbEntity
  8
PLATED_VIA_HOLES
100
AcDbCircle
 10
344.8077869134559
 20
22.33222560257416
 30
0.0
 40
10.0
  0
CIRCLE
  5
3185
330
3044
100
AcDbEntity
  8
PLATED_VIA_HOLES
100
AcDbCircle
 10
394.8077869134559
 20
22.33222560257416
 30
0.0
 40
10.0
  0
CIRCLE
  5
3186
330
3044
100
AcDbEntity
  8
PLATED_VIA_HOLES
100
AcDbCircle
 10
444.8077869134559
 20
22.33222560257416
 30
0.0
 40
10.0
  0
CIRCLE
  5
3187
330
3044
100
AcDbEntity
  8
PLATED_VIA_HOLES
100
AcDbCircle
 10
494.8077869134559
 20
22.33222560257416
 30
0.0
 40
10.0
  0
CIRCLE
  5
3188
330
3044
100
AcDbEntity
  8
PLATED_VIA_HOLES
100
AcDbCircle
 10
544.8077869134556
 20
22.33222560257416
 30
0.0
 40
10.0
  0
CIRCLE
  5
3189
330
3044
100
AcDbEntity
  8
PLATED_VIA_HOLES
100
AcDbCircle
 10
248.7464778631228
 20
332.2162192488436
 30
0.0
 40
8.0
  0
CIRCLE
  5
318A
330
3044
100
AcDbEntity
  8
PLATED_VIA_HOLES
100
AcDbCircle
 10
544.3522892724668
 20
398.2278613936591
 30
0.0
 40
5.0
  0
CIRCLE
  5
318B
330
3044
100
AcDbEntity
  8
PLATED_VIA_HOLES
100
AcDbCircle
 10
432.0774061131997
 20
700.5631563818289
 30
0.0
 40
8.0
  0
CIRCLE
  5
318C
330
3044
100
AcDbEntity
  8
PLATED_VIA_HOLES
100
AcDbCircle
 10
535.1830974604763
 20
770.6187409983258
 30
0.0
 40
5.0
  0
LWPOLYLINE
  5
318D
330
3044
100
AcDbEntity
  8
TOP_LAYER_1
100
AcDbPolyline
 90
        4
 70
     0
 43
0.0
 10
536.3000306820111
 20
384.7922576320691
 10
447.1716230374148
 20
384.7922576320691
 10
447.1716230374148
 20
409.7922576320691
 10
478.789119097142
 20
409.7922576320691
  0
LWPOLYLINE
  5
3193
330
3044
100
AcDbEntity
  8
TOP_LAYER_1
100
AcDbPolyline
 90
       41
 70
     1
 43
0.0
 10
428.3159230374153
 20
484.5482576320692
 10
428.3705230374152
 20
484.9634576320688
 10
428.4612230374149
 20
485.3722576320691
 10
428.5871230374151
 20
485.7716576320687
 10
428.7473230374152
 20
486.1585576320687
 10
428.9407230374155
 20
486.529957632069
 10
429.1657230374151
 20
486.8831576320688
 10
429.4206230374151
 20
487.2153576320688
 10
429.7035230374155
 20
487.524057632069
 10
430.0122230374155
 20
487.8069576320688
 10
430.3444230374151
 20
488.0618576320688
 10
430.6976230374151
 20
488.2868576320688
 10
431.0690230374155
 20
488.4802576320693
 10
431.4559230374151
 20
488.6404576320691
 10
431.8553230374154
 20
488.7663576320687
 10
432.2641230374157
 20
488.8570576320693
 10
432.6793230374156
 20
488.9116576320691
 10
433.0976230374155
 20
488.9299576320691
 10
434.4976230374154
 20
488.9299576320691
 10
434.9159230374151
 20
488.9116576320691
 10
435.3311230374156
 20
488.8570576320693
 10
435.7399230374154
 20
488.7663576320687
 10
436.1393230374156
 20
488.6404576320691
 10
436.5262230374153
 20
488.4802576320693
 10
436.8976230374157
 20
488.2868576320688
 10
437.2508230374151
 20
488.0618576320688
 10
437.5830230374154
 20
487.8069576320688
 10
437.8917230374153
 20
487.524057632069
 10
438.1746230374152
 20
487.2153576320688
 10
438.4295230374155
 20
486.8831576320688
 10
438.6545230374154
 20
486.529957632069
 10
438.8479230374156
 20
486.1585576320687
 10
439.0081230374151
 20
485.7716576320687
 10
439.1340230374153
 20
485.3722576320691
 10
439.2247230374156
 20
484.9634576320688
 10
439.2793230374151
 20
484.5482576320692
 10
439.2976230374151
 20
484.129957632069
 10
439.2976230374151
 20
481.1299576320688
 10
439.2976230374151
 20
467.7350576320693
 10
428.297623037415
 20
467.7350576320693
 10
428.2976230374152
 20
484.129957632069
  0
LWPOLYLINE
  5
31BE
330
3044
100
AcDbEntity
  8
TOP_LAYER_1
100
AcDbPolyline
 90
       10
 70
     1
 43
0.0
 10
493.0476230374152
 20
540.3590576320688
 10
493.0476230374152
 20
551.3590576320693
 10
476.5976230374151
 20
551.3590576320693
 10
476.5976230374151
 20
551.3590576320693
 42
0.4142135623731022
 10
471.7976230374151
 20
546.5590576320692
 10
471.7976230374151
 20
546.5590576320692
 10
471.7976230374151
 20
545.1590576320694
 10
471.7976230374151
 20
545.1590576320694
 42
0.4142135623730951
 10
476.5976230374151
 20
540.3590576320688
 10
476.5976230374151
 20
540.3590576320688
  0
LWPOLYLINE
  5
31CA
330
3044
100
AcDbEntity
  8
TOP_LAYER_1
100
AcDbPolyline
 90
       42
 70
     0
 43
0.0
 10
331.7053633669887
 20
532.4850576320693
 10
390.9976230374147
 20
532.4850576320693
 10
391.4159230374151
 20
532.4667576320694
 10
391.8311230374151
 20
532.4121576320691
 10
392.2399230374151
 20
532.3214576320688
 10
392.6393230374151
 20
532.1955576320694
 10
393.0262230374151
 20
532.0353576320691
 10
393.3976230374148
 20
531.8419576320693
 10
393.7508230374151
 20
531.6169576320694
 10
394.0830230374144
 20
531.3620576320694
 10
394.3917230374151
 20
531.0791576320694
 10
394.6746230374151
 20
530.7704576320692
 10
394.9295230374147
 20
530.438257632069
 10
395.1545230374147
 20
530.0850576320693
 10
395.347923037415
 20
529.7136576320694
 10
395.5081230374151
 20
529.3267576320693
 10
395.6340230374151
 20
528.9273576320693
 10
395.724723037415
 20
528.5185576320692
 10
395.7793230374154
 20
528.1033576320692
 10
395.7976230374151
 20
527.6850576320692
 10
395.7976230374151
 20
526.2850576320694
 10
395.7793230374154
 20
525.8667576320694
 10
395.724723037415
 20
525.4515576320693
 10
395.6340230374151
 20
525.042757632069
 10
395.5081230374151
 20
524.6433576320693
 10
395.347923037415
 20
524.2564576320692
 10
395.1545230374147
 20
523.8850576320694
 10
394.9295230374147
 20
523.5318576320694
 10
394.6746230374151
 20
523.1996576320693
 10
394.3917230374151
 20
522.8909576320692
 10
394.0830230374144
 20
522.6080576320693
 10
393.7508230374151
 20
522.3531576320688
 10
393.3976230374148
 20
522.1281576320692
 10
393.0262230374151
 20
521.9347576320691
 10
392.6393230374151
 20
521.7745576320692
 10
392.2399230374151
 20
521.6486576320694
 10
391.8311230374151
 20
521.5579576320691
 10
391.4159230374151
 20
521.5033576320688
 10
390.9976230374147
 20
521.4850576320693
 10
326.938549252616
 20
521.4850576320693
 10
326.938549252616
 20
532.4850576320693
 10
331.7053633669887
 20
532.4850576320693
  0
LWPOLYLINE
  5
31F6
330
3044
100
AcDbEntity
  8
TOP_LAYER_1
100
AcDbPolyline
 90
       44
 70
     0
 43
0.0
 10
478.789119097142
 20
429.7922576320691
 10
447.1716230374148
 20
429.7922576320691
 10
447.1716230374148
 20
484.129957632069
 10
447.1899230374143
 20
484.5482576320692
 10
447.2445230374143
 20
484.9634576320688
 10
447.3352230374143
 20
485.3722576320691
 10
447.4611230374144
 20
485.7716576320689
 10
447.6213230374143
 20
486.1585576320691
 10
447.8147230374144
 20
486.529957632069
 10
448.0397230374143
 20
486.8831576320693
 10
448.2946230374142
 20
487.2153576320693
 10
448.5775230374144
 20
487.5240576320691
 10
448.8862230374144
 20
487.8069576320689
 10
449.2184230374141
 20
488.0618576320689
 10
449.571623037414
 20
488.2868576320688
 10
449.9430230374143
 20
488.4802576320693
 10
450.3299230374142
 20
488.6404576320692
 10
450.7293230374144
 20
488.7663576320691
 10
451.1381230374143
 20
488.8570576320693
 10
451.5533230374145
 20
488.9116576320692
 10
451.971623037414
 20
488.9299576320691
 10
453.3716230374143
 20
488.9299576320691
 10
453.7899230374143
 20
488.9116576320692
 10
454.205123037414
 20
488.8570576320693
 10
454.6139230374143
 20
488.7663576320691
 10
455.0133230374138
 20
488.6404576320692
 10
455.4002230374145
 20
488.4802576320693
 10
455.7716230374141
 20
488.2868576320688
 10
456.1248230374141
 20
488.0618576320689
 10
456.4570230374143
 20
487.8069576320689
 10
456.7657230374144
 20
487.5240576320691
 10
457.0486230374144
 20
487.2153576320693
 10
457.3035230374143
 20
486.8831576320693
 10
457.5285230374143
 20
486.529957632069
 10
457.7219230374145
 20
486.1585576320691
 10
457.8821230374143
 20
485.7716576320689
 10
458.0080230374143
 20
485.3722576320691
 10
458.0987230374145
 20
484.9634576320688
 10
458.1533230374144
 20
484.5482576320692
 10
458.1716230374142
 20
484.129957632069
 10
458.1716230374142
 20
444.7922576320689
 10
483.1716230374142
 20
444.7922576320689
 10
483.1716230374142
 20
429.7922576320691
 10
478.789119097142
 20
429.7922576320691
  0
LWPOLYLINE
  5
3224
330
3044
100
AcDbEntity
  8
TOP_LAYER_1
100
AcDbPolyline
 90
        7
 70
     0
 43
0.0
 10
587.7167898873176
 20
521.9926090233927
 10
587.7167898873176
 20
542.4850576320697
 10
540.8742827581041
 20
542.4850576320697
 10
540.8742827581041
 20
552.6265447647374
 10
552.8742827581043
 20
552.6265447647374
 10
552.8742827581043
 20
562.6265447647377
 10
549.1195914741352
 20
562.6265447647377
  0
LWPOLYLINE
  5
322D
330
3044
100
AcDbEntity
  8
TOP_LAYER_1
100
AcDbPolyline
 90
       40
 70
     1
 43
0.0
 10
439.2976230374151
 20
569.8401576320692
 10
439.2793230374151
 20
569.4218576320694
 10
439.2247230374151
 20
569.0066576320694
 10
439.1340230374153
 20
568.5978576320692
 10
439.0081230374151
 20
568.1984576320692
 10
438.8479230374151
 20
567.8115576320692
 10
438.6545230374148
 20
567.4401576320691
 10
438.4295230374155
 20
567.0869576320692
 10
438.1746230374155
 20
566.7547576320693
 10
437.8917230374153
 20
566.4460576320692
 10
437.5830230374145
 20
566.1631576320692
 10
437.2508230374148
 20
565.9082576320692
 10
436.8976230374149
 20
565.6832576320693
 10
436.5262230374151
 20
565.4898576320694
 10
436.1393230374152
 20
565.3296576320692
 10
435.7399230374151
 20
565.2037576320692
 10
435.3311230374152
 20
565.1130576320694
 10
434.9159230374151
 20
565.0584576320692
 10
434.4976230374149
 20
565.0401576320692
 10
433.0976230374154
 20
565.0401576320692
 10
432.6793230374151
 20
565.0584576320692
 10
432.2641230374151
 20
565.1130576320694
 10
431.8553230374154
 20
565.2037576320692
 10
431.4559230374151
 20
565.3296576320692
 10
431.0690230374151
 20
565.4898576320694
 10
430.6976230374151
 20
565.6832576320693
 10
430.3444230374151
 20
565.9082576320692
 10
430.0122230374151
 20
566.1631576320692
 10
429.7035230374147
 20
566.4460576320692
 10
429.4206230374151
 20
566.7547576320693
 10
429.1657230374151
 20
567.0869576320692
 10
428.9407230374154
 20
567.4401576320691
 10
428.7473230374152
 20
567.8115576320692
 10
428.5871230374147
 20
568.1984576320692
 10
428.4612230374149
 20
568.5978576320692
 10
428.3705230374152
 20
569.0066576320694
 10
428.3159230374145
 20
569.4218576320694
 10
428.2976230374152
 20
569.8401576320692
 10
428.2976230374152
 20
585.6042236863783
 10
439.2976230374151
 20
585.6042236863783
  0
LWPOLYLINE
  5
3257
330
3044
100
AcDbEntity
  8
TOP_LAYER_1
100
AcDbPolyline
 90
        6
 70
     0
 43
0.0
 10
607.7167898873176
 20
521.9926090233927
 10
607.7167898873176
 20
521.4850576320691
 10
1003.797623037415
 20
521.4850576320697
 10
1003.797623037415
 20
542.4850576320693
 10
607.7167898873176
 20
542.4850576320693
 10
607.7167898873176
 20
521.9926090233927
  0
LWPOLYLINE
  5
325F
330
3044
100
AcDbEntity
  8
TOP_LAYER_1
100
AcDbPolyline
 90
        3
 70
     0
 43
0.0
 10
477.4083823905368
 20
648.2710967296907
 10
476.573667041186
 20
648.2710967296907
 10
476.5736670411862
 20
692.8359091818504
  0
LWPOLYLINE
  5
3264
330
3044
100
AcDbEntity
  8
TOP_LAYER_1
100
AcDbPolyline
 90
        5
 70
     0
 43
0.0
 10
549.1195914741352
 20
590.2113448484547
 10
552.8742827581043
 20
590.2113448484547
 10
552.8742827581043
 20
600.2113448484545
 10
547.8742827581043
 20
600.2113448484545
 10
547.8742827581043
 20
621.552087659646
  0
LWPOLYLINE
  5
326B
330
3044
100
AcDbEntity
  8
TOP_LAYER_1
100
AcDbPolyline
 90
        4
 70
     1
 43
0.0
 10
546.9081953908055
 20
1001.985057632069
 10
546.9081953908055
 20
828.3914464243039
 10
496.9081953908052
 20
828.3914464243041
 10
496.9081953908053
 20
1001.985057632069
  0
LWPOLYLINE
  5
3271
330
3044
100
AcDbEntity
  8
TOP_LAYER_1
100
AcDbPolyline
 90
        4
 70
     1
 43
0.0
 10
390.4236230374151
 20
666.9269947471782
 10
462.8153247451938
 20
666.9269947471781
 10
462.8153247451937
 20
646.9269947471781
 10
390.4236230374151
 20
646.9269947471781
  0
LWPOLYLINE
  5
3277
330
3044
100
AcDbEntity
  8
TOP_LAYER_1
100
AcDbPolyline
 90
       47
 70
     0
 43
0.0
 10
354.4468773000949
 20
556.8121543408124
 10
356.952590490833
 20
556.8121543408124
 10
356.952590490833
 20
540.3590576320688
 10
390.9976230374147
 20
540.3590576320688
 10
391.4159230374151
 20
540.3773576320692
 10
391.8311230374151
 20
540.4319576320688
 10
392.2399230374151
 20
540.5226576320691
 10
392.6393230374151
 20
540.6485576320691
 10
393.0262230374151
 20
540.8087576320694
 10
393.3976230374148
 20
541.0021576320692
 10
393.7508230374151
 20
541.2271576320693
 10
394.0830230374144
 20
541.4820576320692
 10
394.3917230374151
 20
541.7649576320691
 10
394.6746230374151
 20
542.0736576320694
 10
394.9295230374147
 20
542.4058576320691
 10
395.1545230374147
 20
542.7590576320691
 10
395.347923037415
 20
543.1304576320691
 10
395.5081230374151
 20
543.5173576320692
 10
395.6340230374151
 20
543.9167576320694
 10
395.724723037415
 20
544.3255576320694
 10
395.7793230374154
 20
544.7407576320694
 10
395.7976230374151
 20
545.1590576320694
 10
395.7976230374151
 20
546.5590576320692
 10
395.7793230374154
 20
546.9773576320691
 10
395.724723037415
 20
547.3925576320688
 10
395.6340230374151
 20
547.8013576320692
 10
395.5081230374151
 20
548.2007576320694
 10
395.347923037415
 20
548.5876576320695
 10
395.1545230374147
 20
548.9590576320693
 10
394.9295230374147
 20
549.3122576320693
 10
394.6746230374151
 20
549.6444576320692
 10
394.3917230374151
 20
549.9531576320695
 10
394.0830230374144
 20
550.2360576320694
 10
393.7508230374151
 20
550.4909576320693
 10
393.3976230374148
 20
550.7159576320693
 10
393.0262230374151
 20
550.9093576320691
 10
392.6393230374151
 20
551.0695576320694
 10
392.2399230374151
 20
551.1954576320695
 10
391.8311230374151
 20
551.2861576320691
 10
391.4159230374151
 20
551.3407576320692
 10
390.9976230374147
 20
551.3590576320693
 10
367.9525904908329
 20
551.3590576320693
 10
367.9525904908333
 20
576.8121543408124
 10
362.9525904908333
 20
576.8121543408124
 10
362.9525904908333
 20
633.9243487065028
 10
341.8978632941624
 20
633.9243487065028
 10
341.8978632941624
 20
630.1466770195664
  0
LINE
  5
32A8
330
3044
100
AcDbEntity
  8
TOP_LAYER_1
100
AcDbLine
 10
476.5976230374151
 20
502.6110576320694
 30
0.0
 11
476.5976230374151
 21
502.6110576320694
 31
0.0
  0
LWPOLYLINE
  5
32A9
330
3044
100
AcDbEntity
  8
TOP_LAYER_1
100
AcDbPolyline
 90
       10
 70
     1
 43
0.0
 10
471.7976230374151
 20
507.4110576320689
 10
471.7976230374151
 20
507.4110576320689
 10
471.7976230374151
 20
508.8110576320691
 10
471.7976230374151
 20
508.8110576320691
 42
-0.4142135623730951
 10
476.5976230374151
 20
513.6110576320694
 10
476.5976230374151
 20
513.6110576320694
 10
476.5976230374151
 20
513.6110576320694
 10
493.0476230374152
 20
513.6110576320694
 10
493.0476230374152
 20
502.6110576320694
 10
476.5976230374151
 20
502.6110576320694
 42
-0.4142135623730951
  0
LWPOLYLINE
  5
32B5
330
3044
100
AcDbEntity
  8
TOP_LAYER_1
100
AcDbPolyline
 90
       10
 70
     0
 43
0.0
 10
572.874282758104
 20
621.552087659646
 10
572.874282758104
 20
753.3914464243044
 10
659.194416738846
 20
753.3914464243044
 10
659.194416738846
 20
1001.985057632069
 10
1003.797623037415
 20
1001.985057632069
 10
1003.797623037415
 20
802.9850576320695
 10
988.7976230374153
 20
802.9850576320695
 10
988.7976230374153
 20
557.4850576320693
 10
572.874282758104
 20
557.4850576320693
 10
572.874282758104
 20
621.552087659646
  0
LINE
  5
32C2
330
3044
100
AcDbEntity
  8
TOP_LAYER_1
100
AcDbLine
 10
420.4236230374148
 20
569.8401576320692
 30
0.0
 11
420.4236230374148
 21
569.8401576320692
 31
0.0
  0
CIRCLE
  5
32C3
330
3044
100
AcDbEntity
  8
PLATED_VIA_HOLES
100
AcDbCircle
 10
295.1882955141771
 20
596.1162821887641
 30
0.0
 40
8.0
  0
CIRCLE
  5
32C4
330
3044
100
AcDbEntity
  8
PLATED_VIA_HOLES
100
AcDbCircle
 10
295.1882955141771
 20
636.1162821887639
 30
0.0
 40
8.0
  0
CIRCLE
  5
32C5
330
3044
100
AcDbEntity
  8
PLATED_VIA_HOLES
100
AcDbCircle
 10
295.1882955141771
 20
676.1162821887641
 30
0.0
 40
8.0
  0
CIRCLE
  5
32C6
330
3044
100
AcDbEntity
  8
PLATED_VIA_HOLES
100
AcDbCircle
 10
255.188295514177
 20
556.116282188764
 30
0.0
 40
8.0
  0
CIRCLE
  5
32C7
330
3044
100
AcDbEntity
  8
PLATED_VIA_HOLES
100
AcDbCircle
 10
215.1882955141771
 20
556.116282188764
 30
0.0
 40
8.0
  0
CIRCLE
  5
32C8
330
3044
100
AcDbEntity
  8
PLATED_VIA_HOLES
100
AcDbCircle
 10
288.7464778631228
 20
332.2162192488436
 30
0.0
 40
8.0
  0
CIRCLE
  5
32C9
330
3044
100
AcDbEntity
  8
PLATED_VIA_HOLES
100
AcDbCircle
 10
328.7464778631228
 20
332.2162192488436
 30
0.0
 40
8.0
  0
CIRCLE
  5
32CA
330
3044
100
AcDbEntity
  8
PLATED_VIA_HOLES
100
AcDbCircle
 10
368.7464778631227
 20
332.2162192488436
 30
0.0
 40
8.0
  0
CIRCLE
  5
32CB
330
3044
100
AcDbEntity
  8
PLATED_VIA_HOLES
100
AcDbCircle
 10
408.7464778631227
 20
332.2162192488436
 30
0.0
 40
8.0
  0
CIRCLE
  5
32CC
330
3044
100
AcDbEntity
  8
PLATED_VIA_HOLES
100
AcDbCircle
 10
448.7464778631228
 20
332.2162192488436
 30
0.0
 40
8.0
  0
CIRCLE
  5
32CD
330
3044
100
AcDbEntity
  8
PLATED_VIA_HOLES
100
AcDbCircle
 10
488.7464778631227
 20
332.2162192488436
 30
0.0
 40
8.0
  0
CIRCLE
  5
32CE
330
3044
100
AcDbEntity
  8
PLATED_VIA_HOLES
100
AcDbCircle
 10
528.7464778631225
 20
332.2162192488436
 30
0.0
 40
8.0
  0
CIRCLE
  5
32CF
330
3044
100
AcDbEntity
  8
PLATED_VIA_HOLES
100
AcDbCircle
 10
568.7464778631229
 20
332.2162192488436
 30
0.0
 40
8.0
  0
CIRCLE
  5
32D0
330
3044
100
AcDbEntity
  8
PLATED_VIA_HOLES
100
AcDbCircle
 10
608.7464778631229
 20
332.2162192488436
 30
0.0
 40
8.0
  0
CIRCLE
  5
32D1
330
3044
100
AcDbEntity
  8
PLATED_VIA_HOLES
100
AcDbCircle
 10
248.7464778631228
 20
372.2162192488436
 30
0.0
 40
8.0
  0
CIRCLE
  5
32D2
330
3044
100
AcDbEntity
  8
PLATED_VIA_HOLES
100
AcDbCircle
 10
248.7464778631228
 20
412.2162192488437
 30
0.0
 40
8.0
  0
CIRCLE
  5
32D3
330
3044
100
AcDbEntity
  8
PLATED_VIA_HOLES
100
AcDbCircle
 10
248.7464778631228
 20
452.2162192488436
 30
0.0
 40
8.0
  0
CIRCLE
  5
32D4
330
3044
100
AcDbEntity
  8
PLATED_VIA_HOLES
100
AcDbCircle
 10
608.7464778631229
 20
372.2162192488436
 30
0.0
 40
8.0
  0
CIRCLE
  5
32D5
330
3044
100
AcDbEntity
  8
PLATED_VIA_HOLES
100
AcDbCircle
 10
598.9692470558047
 20
429.316997605759
 30
0.0
 40
8.0
  0
CIRCLE
  5
32D6
330
3044
100
AcDbEntity
  8
PLATED_VIA_HOLES
100
AcDbCircle
 10
758.0235775970776
 20
573.9850576320693
 30
0.0
 40
8.0
  0
CIRCLE
  5
32D7
330
3044
100
AcDbEntity
  8
PLATED_VIA_HOLES
100
AcDbCircle
 10
758.0235775970776
 20
489.9850576320696
 30
0.0
 40
8.0
  0
CIRCLE
  5
32D8
330
3044
100
AcDbEntity
  8
PLATED_VIA_HOLES
100
AcDbCircle
 10
718.0235775970776
 20
573.9850576320693
 30
0.0
 40
8.0
  0
CIRCLE
  5
32D9
330
3044
100
AcDbEntity
  8
PLATED_VIA_HOLES
100
AcDbCircle
 10
718.0235775970776
 20
489.9850576320696
 30
0.0
 40
8.0
  0
CIRCLE
  5
32DA
330
3044
100
AcDbEntity
  8
PLATED_VIA_HOLES
100
AcDbCircle
 10
678.0235775970776
 20
573.9850576320693
 30
0.0
 40
8.0
  0
CIRCLE
  5
32DB
330
3044
100
AcDbEntity
  8
PLATED_VIA_HOLES
100
AcDbCircle
 10
678.0235775970776
 20
489.9850576320696
 30
0.0
 40
8.0
  0
CIRCLE
  5
32DC
330
3044
100
AcDbEntity
  8
PLATED_VIA_HOLES
100
AcDbCircle
 10
598.0235775970776
 20
573.9850576320693
 30
0.0
 40
8.0
  0
CIRCLE
  5
32DD
330
3044
100
AcDbEntity
  8
PLATED_VIA_HOLES
100
AcDbCircle
 10
598.0235712229212
 20
470.4413118259197
 30
0.0
 40
8.0
  0
CIRCLE
  5
32DE
330
3044
100
AcDbEntity
  8
PLATED_VIA_HOLES
100
AcDbCircle
 10
598.0235775970776
 20
613.9850576320695
 30
0.0
 40
8.0
  0
CIRCLE
  5
32DF
330
3044
100
AcDbEntity
  8
PLATED_VIA_HOLES
100
AcDbCircle
 10
598.0235775970776
 20
653.9850576320693
 30
0.0
 40
8.0
  0
CIRCLE
  5
32E0
330
3044
100
AcDbEntity
  8
PLATED_VIA_HOLES
100
AcDbCircle
 10
598.0235775970776
 20
693.9850576320695
 30
0.0
 40
8.0
  0
CIRCLE
  5
32E1
330
3044
100
AcDbEntity
  8
PLATED_VIA_HOLES
100
AcDbCircle
 10
598.0235775970776
 20
733.9850576320691
 30
0.0
 40
8.0
  0
CIRCLE
  5
32E2
330
3044
100
AcDbEntity
  8
PLATED_VIA_HOLES
100
AcDbCircle
 10
432.0774061131997
 20
739.6506511002652
 30
0.0
 40
8.0
  0
CIRCLE
  5
32E3
330
3044
100
AcDbEntity
  8
PLATED_VIA_HOLES
100
AcDbCircle
 10
377.4878918732745
 20
700.5631563818289
 30
0.0
 40
8.0
  0
CIRCLE
  5
32E4
330
3044
100
AcDbEntity
  8
PLATED_VIA_HOLES
100
AcDbCircle
 10
377.4878918732745
 20
739.6506511002652
 30
0.0
 40
8.0
  0
CIRCLE
  5
32E5
330
3044
100
AcDbEntity
  8
PLATED_VIA_HOLES
100
AcDbCircle
 10
323.713147929652
 20
700.5631563818289
 30
0.0
 40
8.0
  0
CIRCLE
  5
32E6
330
3044
100
AcDbEntity
  8
PLATED_VIA_HOLES
100
AcDbCircle
 10
283.0430985373176
 20
461.1737717395985
 30
0.0
 40
8.0
  0
CIRCLE
  5
32E7
330
3044
100
AcDbEntity
  8
PLATED_VIA_HOLES
100
AcDbCircle
 10
323.0430985373176
 20
461.1737717395985
 30
0.0
 40
8.0
  0
LWPOLYLINE
  5
32E8
330
3044
100
AcDbEntity
  8
TOP_LAYER_1
100
AcDbPolyline
 90
        2
 70
     0
 43
0.0
 10
456.5736670411864
 20
729.4076098675263
 10
456.5736670411863
 20
692.8359091818504
  0
LWPOLYLINE
  5
32EC
330
3044
100
AcDbEntity
  8
TOP_LAYER_1
100
AcDbPolyline
 90
        6
 70
     0
 43
0.0
 10
66.85774322556389
 20
493.0905933970412
 10
66.8577432255629
 20
513.6110576320692
 10
3.797623037415176
 20
513.6110576320692
 10
3.797623037415176
 20
492.6110576320692
 10
66.85774322556392
 20
492.6110576320687
 10
66.85774322556389
 20
493.0905933970412
  0
LWPOLYLINE
  5
32F4
330
3044
100
AcDbEntity
  8
TOP_LAYER_1
100
AcDbPolyline
 90
        3
 70
     0
 43
0.0
 10
86.85774322556396
 20
493.0905933970412
 10
86.85774322556392
 20
492.6110576320687
 10
127.3011968311439
 20
492.6110576320687
  0
LWPOLYLINE
  5
32F9
330
3044
100
AcDbEntity
  8
TOP_LAYER_1
100
AcDbPolyline
 90
        8
 70
     0
 43
0.0
 10
127.3011968311439
 20
466.9850576320691
 10
158.5319966809578
 20
466.9850576320691
 10
158.5319966809578
 20
478.0897486832513
 10
338.7976230374158
 20
478.0897486832513
 10
338.7976230374158
 20
442.2140868705078
 10
269.0106913061483
 20
442.2140868705078
 10
269.0106913061483
 20
364.7922576320691
 10
415.8473161963891
 20
364.7922576320691
  0
LWPOLYLINE
  5
3303
330
3044
100
AcDbEntity
  8
TOP_LAYER_1
100
AcDbPolyline
 90
        6
 70
     0
 43
0.0
 10
337.4408334034558
 20
387.0872763080256
 10
337.4408334034558
 20
384.7922576320691
 10
293.8780887955207
 20
384.7922576320691
 10
293.8780887955207
 20
409.7922576320691
 10
337.4408334034558
 20
409.7922576320691
 10
337.4408334034558
 20
387.0872763080256
  0
LWPOLYLINE
  5
330B
330
3044
100
AcDbEntity
  8
TOP_LAYER_1
100
AcDbPolyline
 90
       46
 70
     0
 43
0.0
 10
347.4408334034559
 20
387.0872763080256
 10
347.4408334034559
 20
409.7922576320691
 10
409.4236230374151
 20
409.7922576320691
 10
409.4236230374151
 20
484.129957632069
 10
409.4419230374152
 20
484.5482576320692
 10
409.4965230374147
 20
484.9634576320688
 10
409.5872230374151
 20
485.3722576320691
 10
409.7131230374151
 20
485.7716576320689
 10
409.8733230374149
 20
486.1585576320691
 10
410.0667230374151
 20
486.529957632069
 10
410.291723037415
 20
486.8831576320693
 10
410.5466230374148
 20
487.2153576320693
 10
410.8295230374151
 20
487.5240576320691
 10
411.1382230374151
 20
487.8069576320689
 10
411.4704230374155
 20
488.0618576320689
 10
411.8236230374153
 20
488.2868576320688
 10
412.1950230374148
 20
488.4802576320693
 10
412.5819230374151
 20
488.6404576320692
 10
412.9813230374152
 20
488.7663576320691
 10
413.3901230374154
 20
488.8570576320693
 10
413.8053230374151
 20
488.9116576320692
 10
414.2236230374151
 20
488.9299576320691
 10
415.6236230374151
 20
488.9299576320691
 10
416.041923037415
 20
488.9116576320692
 10
416.4571230374145
 20
488.8570576320693
 10
416.8659230374148
 20
488.7663576320691
 10
417.2653230374151
 20
488.6404576320692
 10
417.6522230374152
 20
488.4802576320693
 10
418.0236230374151
 20
488.2868576320688
 10
418.3768230374151
 20
488.0618576320689
 10
418.7090230374151
 20
487.8069576320689
 10
419.0177230374152
 20
487.5240576320691
 10
419.3006230374151
 20
487.2153576320693
 10
419.5555230374152
 20
486.8831576320693
 10
419.7805230374151
 20
486.529957632069
 10
419.9739230374151
 20
486.1585576320691
 10
420.1341230374151
 20
485.7716576320689
 10
420.260023037415
 20
485.3722576320691
 10
420.3507230374151
 20
484.9634576320688
 10
420.4053230374151
 20
484.5482576320692
 10
420.4236230374148
 20
484.129957632069
 10
420.4236230374148
 20
444.7922576320689
 10
420.4236230374148
 20
409.7922576320691
 10
420.4236230374148
 20
409.7922576320691
 10
420.4236230374148
 20
384.7922576320691
 10
415.8473161963891
 20
384.7922576320691
  0
LWPOLYLINE
  5
333B
330
3044
100
AcDbEntity
  8
TOP_LAYER_1
100
AcDbPolyline
 90
       13
 70
     0
 43
0.0
 10
420.4236230374147
 20
602.6594559390123
 10
420.4236230374148
 20
569.8401576320692
 42
-0.4142135623731022
 10
415.6236230374151
 20
565.0401576320692
 10
415.6236230374151
 20
565.0401576320692
 10
414.2236230374151
 20
565.0401576320692
 10
414.2236230374151
 20
565.0401576320692
 42
-0.4142135623731022
 10
409.4236230374151
 20
569.8401576320692
 10
409.4236230374151
 20
569.8401576320692
 10
409.4236230374151
 20
597.6881576320692
 10
390.4236230374151
 20
597.6881576320692
 10
390.4236230374151
 20
628.2710967296907
 10
420.4236230374147
 20
628.2710967296907
 10
420.4236230374147
 20
602.6594559390123
  0
LWPOLYLINE
  5
334A
330
3044
100
AcDbEntity
  8
TOP_LAYER_1
100
AcDbPolyline
 90
       45
 70
     0
 43
0.0
 10
500.1498963236431
 20
628.2710967296907
 10
501.573667041186
 20
628.2710967296907
 10
501.573667041186
 20
597.6881576320696
 10
458.1716230374148
 20
597.6881576320692
 10
458.1716230374148
 20
569.8401576320692
 10
458.1533230374151
 20
569.4218576320694
 10
458.0987230374153
 20
569.0066576320694
 10
458.0080230374151
 20
568.5978576320692
 10
457.8821230374152
 20
568.1984576320692
 10
457.7219230374153
 20
567.8115576320692
 10
457.5285230374151
 20
567.4401576320691
 10
457.3035230374151
 20
567.0869576320692
 10
457.0486230374148
 20
566.7547576320693
 10
456.7657230374151
 20
566.4460576320692
 10
456.4570230374151
 20
566.1631576320692
 10
456.1248230374148
 20
565.9082576320692
 10
455.7716230374151
 20
565.6832576320693
 10
455.4002230374151
 20
565.4898576320694
 10
455.0133230374154
 20
565.3296576320692
 10
454.6139230374151
 20
565.2037576320692
 10
454.2051230374154
 20
565.1130576320694
 10
453.789923037415
 20
565.0584576320692
 10
453.3716230374151
 20
565.0401576320692
 10
451.9716230374151
 20
565.0401576320692
 10
451.5533230374152
 20
565.0584576320692
 10
451.1381230374151
 20
565.1130576320694
 10
450.7293230374151
 20
565.2037576320692
 10
450.3299230374151
 20
565.3296576320692
 10
449.9430230374152
 20
565.4898576320694
 10
449.5716230374148
 20
565.6832576320693
 10
449.2184230374149
 20
565.9082576320692
 10
448.8862230374151
 20
566.1631576320692
 10
448.5775230374152
 20
566.4460576320692
 10
448.294623037415
 20
566.7547576320693
 10
448.0397230374148
 20
567.0869576320692
 10
447.8147230374151
 20
567.4401576320691
 10
447.6213230374151
 20
567.8115576320692
 10
447.4611230374152
 20
568.1984576320692
 10
447.3352230374147
 20
568.5978576320692
 10
447.2445230374151
 20
569.0066576320694
 10
447.1899230374151
 20
569.4218576320694
 10
447.1716230374148
 20
569.8401576320692
 10
447.1716230374148
 20
597.6881576320692
 10
433.8012633979633
 20
597.6881576320696
 10
433.8012633979633
 20
602.6594559390125
  0
LWPOLYLINE
  5
3379
330
3044
100
AcDbEntity
  8
TOP_LAYER_1
100
AcDbPolyline
 90
       47
 70
     0
 43
0.0
 10
549.1195914741352
 20
562.6265447647377
 10
522.8742827581039
 20
562.6265447647377
 10
522.8742827581039
 20
552.6265447647374
 10
529.874282758104
 20
552.6265447647374
 10
529.874282758104
 20
542.4850576320697
 10
524.9281477283544
 20
542.4850576320697
 10
514.9281477283549
 20
532.4850576320693
 10
476.5976230374154
 20
532.4850576320693
 10
476.1793230374151
 20
532.4667576320693
 10
475.7641230374152
 20
532.4121576320695
 10
475.3553230374151
 20
532.3214576320688
 10
474.9559230374152
 20
532.1955576320688
 10
474.5690230374151
 20
532.0353576320693
 10
474.1976230374151
 20
531.8419576320693
 10
473.8444230374151
 20
531.6169576320694
 10
473.5122230374154
 20
531.3620576320694
 10
473.2035230374147
 20
531.0791576320688
 10
472.9206230374152
 20
530.770457632069
 10
472.6657230374151
 20
530.438257632069
 10
472.4407230374152
 20
530.0850576320693
 10
472.2473230374153
 20
529.7136576320688
 10
472.0871230374148
 20
529.3267576320693
 10
471.9612230374151
 20
528.9273576320692
 10
471.8705230374153
 20
528.5185576320691
 10
471.8159230374148
 20
528.1033576320692
 10
471.7976230374151
 20
527.6850576320692
 10
471.7976230374151
 20
526.285057632069
 10
471.8159230374148
 20
525.8667576320688
 10
471.8705230374153
 20
525.4515576320693
 10
471.9612230374151
 20
525.0427576320694
 10
472.0871230374148
 20
524.6433576320693
 10
472.2473230374153
 20
524.2564576320692
 10
472.4407230374152
 20
523.8850576320692
 10
472.6657230374151
 20
523.5318576320694
 10
472.9206230374152
 20
523.1996576320691
 10
473.2035230374147
 20
522.8909576320692
 10
473.5122230374154
 20
522.6080576320692
 10
473.8444230374151
 20
522.3531576320688
 10
474.1976230374151
 20
522.1281576320691
 10
474.5690230374151
 20
521.9347576320691
 10
474.9559230374152
 20
521.7745576320692
 10
475.3553230374151
 20
521.6486576320692
 10
475.7641230374152
 20
521.5579576320691
 10
476.1793230374151
 20
521.5033576320688
 10
476.5976230374154
 20
521.4850576320693
 10
587.7167898873176
 20
521.4850576320691
 10
587.7167898873176
 20
521.9926090233927
  0
LWPOLYLINE
  5
33AA
330
3044
100
AcDbEntity
  8
TOP_LAYER_1
100
AcDbPolyline
 90
        9
 70
     0
 43
0.0
 10
547.8742827581043
 20
621.552087659646
 10
547.8742827581037
 20
778.3914464243041
 10
639.1944167388465
 20
778.3914464243044
 10
639.194416738846
 20
1001.985057632069
 10
589.1944167388455
 20
1001.985057632069
 10
589.1944167388458
 20
803.3914464243041
 10
522.8742827581035
 20
803.3914464243041
 10
522.8742827581043
 20
590.2113448484547
 10
549.1195914741352
 20
590.2113448484547
  0
LWPOLYLINE
  5
33B5
330
3044
100
AcDbEntity
  8
TOP_LAYER_1
100
AcDbPolyline
 90
        3
 70
     0
 43
0.0
 10
433.8012633979633
 20
602.6594559390125
 10
433.8012633979633
 20
628.2710967296907
 10
500.1498963236431
 20
628.2710967296907
  0
LWPOLYLINE
  5
33BA
330
3044
100
AcDbEntity
  8
TOP_LAYER_1
100
AcDbPolyline
 90
        9
 70
     0
 43
0.0
 10
476.5736670411863
 20
749.4076098675264
 10
476.5736670411865
 20
778.3914464243041
 10
404.6219953908049
 20
778.3914464243044
 10
404.6219953908051
 20
1001.985057632069
 10
454.6219953908056
 20
1001.985057632069
 10
454.6219953908056
 20
803.3914464243041
 10
501.5736670411869
 20
803.3914464243041
 10
501.573667041186
 20
648.2710967296907
 10
477.4083823905368
 20
648.2710967296907
  0
LWPOLYLINE
  5
33C5
330
3044
100
AcDbEntity
  8
TOP_LAYER_1
100
AcDbPolyline
 90
        4
 70
     0
 43
0.0
 10
456.5736670411863
 20
692.8359091818504
 10
456.5736670411863
 20
685.0610096399798
 10
313.8417037970928
 20
685.0610096399796
 10
313.8417037970928
 20
630.1466770195661
  0
LWPOLYLINE
  5
33CB
330
3044
100
AcDbEntity
  8
TOP_LAYER_1
100
AcDbPolyline
 90
        2
 70
     0
 43
0.0
 10
476.5736670411862
 20
692.8359091818504
 10
476.5736670411863
 20
729.4076098675263
  0
LWPOLYLINE
  5
33CF
330
3044
100
AcDbEntity
  8
TOP_LAYER_1
100
AcDbPolyline
 90
        2
 70
     0
 43
0.0
 10
313.8417037970928
 20
610.1466770195659
 10
313.8417037970928
 20
584.1125849573976
  0
LWPOLYLINE
  5
33D3
330
3044
100
AcDbEntity
  8
TOP_LAYER_1
100
AcDbPolyline
 90
        2
 70
     0
 43
0.0
 10
341.8978632941624
 20
610.1466770195659
 10
341.8978632941624
 20
584.1125849573976
  0
LWPOLYLINE
  5
33D7
330
3044
100
AcDbEntity
  8
TOP_LAYER_1
100
AcDbPolyline
 90
        5
 70
     0
 43
0.0
 10
341.8978632941624
 20
584.1125849573976
 10
341.8978632941624
 20
573.3070555386501
 10
326.938549252616
 20
573.3070555386501
 10
326.938549252616
 20
556.8121543408124
 10
354.4468773000949
 20
556.8121543408124
  0
LWPOLYLINE
  5
33DE
330
3044
100
AcDbEntity
  8
TOP_LAYER_1
100
AcDbPolyline
 90
       12
 70
     0
 43
0.0
 10
313.8417037970928
 20
584.1125849573976
 10
313.8417037970928
 20
573.3070555386501
 10
277.0537234445673
 20
573.3070555386501
 10
277.0537234445673
 20
528.6110576320692
 10
18.7976230374152
 20
528.6110576320692
 10
18.7976230374152
 20
809.9850576320687
 10
3.797623037415196
 20
809.9850576320687
 10
3.797623037415196
 20
1001.985057632069
 10
384.6219953908049
 20
1001.985057632069
 10
384.6219953908049
 20
758.3914464243041
 10
456.5736670411864
 20
758.3914464243039
 10
456.5736670411864
 20
749.4076098675264
  0
LINE
  5
33EC
330
3044
100
AcDbEntity
  8
TOP_LAYER_1
100
AcDbLine
 10
313.8417037970928
 20
630.1466770195661
 30
0.0
 11
313.8417037970928
 21
610.1466770195659
 31
0.0
  0
LINE
  5
33ED
330
3044
100
AcDbEntity
  8
TOP_LAYER_1
100
AcDbLine
 10
341.8978632941624
 20
630.1466770195664
 30
0.0
 11
341.8978632941624
 21
610.1466770195659
 31
0.0
  0
LINE
  5
33EE
330
3044
100
AcDbEntity
  8
TOP_LAYER_1
100
AcDbLine
 10
456.5736670411864
 20
749.4076098675264
 30
0.0
 11
456.5736670411864
 21
729.4076098675263
 31
0.0
  0
LINE
  5
33EF
330
3044
100
AcDbEntity
  8
TOP_LAYER_1
100
AcDbLine
 10
476.5736670411863
 20
749.4076098675264
 30
0.0
 11
476.5736670411863
 21
729.4076098675263
 31
0.0
  0
LWPOLYLINE
  5
33F0
330
3044
100
AcDbEntity
  8
TOP_LAYER_1
100
AcDbPolyline
 90
       44
 70
     0
 43
0.0
 10
127.3011968311439
 20
492.6110576320687
 10
338.7976230374158
 20
492.6110576320687
 10
348.7892230374153
 20
502.6026576320694
 10
348.7976230374151
 20
502.6110576320689
 10
390.9976230374147
 20
502.6110576320689
 10
391.4159230374151
 20
502.6293576320694
 10
391.8311230374151
 20
502.6839576320691
 10
392.2399230374151
 20
502.7746576320692
 10
392.6393230374151
 20
502.9005576320694
 10
393.0262230374151
 20
503.0607576320691
 10
393.3976230374148
 20
503.2541576320689
 10
393.7508230374151
 20
503.479157632069
 10
394.0830230374144
 20
503.7340576320691
 10
394.3917230374151
 20
504.0169576320692
 10
394.6746230374151
 20
504.3256576320692
 10
394.9295230374147
 20
504.6578576320694
 10
395.1545230374147
 20
505.0110576320689
 10
395.347923037415
 20
505.3824576320693
 10
395.5081230374151
 20
505.7693576320692
 10
395.6340230374151
 20
506.1687576320694
 10
395.724723037415
 20
506.5775576320695
 10
395.7793230374154
 20
506.9927576320695
 10
395.7976230374151
 20
507.4110576320689
 10
395.7976230374151
 20
508.8110576320691
 10
395.7793230374154
 20
509.2293576320694
 10
395.724723037415
 20
509.6445576320689
 10
395.6340230374151
 20
510.0533576320692
 10
395.5081230374151
 20
510.4527576320688
 10
395.347923037415
 20
510.8396576320695
 10
395.1545230374147
 20
511.2110576320691
 10
394.9295230374147
 20
511.5642576320688
 10
394.6746230374151
 20
511.8964576320695
 10
394.3917230374151
 20
512.2051576320695
 10
394.0830230374144
 20
512.4880576320695
 10
393.7508230374151
 20
512.7429576320694
 10
393.3976230374148
 20
512.9679576320694
 10
393.0262230374151
 20
513.1613576320694
 10
392.6393230374151
 20
513.3215576320695
 10
392.2399230374151
 20
513.4474576320695
 10
391.8311230374151
 20
513.5381576320694
 10
391.4159230374151
 20
513.5927576320693
 10
390.9976230374147
 20
513.6110576320692
 10
86.85774322556524
 20
513.6110576320692
 10
86.85774322556396
 20
493.0905933970412
  0
LWPOLYLINE
  5
341E
330
3044
100
AcDbEntity
  8
TOP_LAYER_1
100
AcDbPolyline
 90
        2
 70
     0
 43
0.0
 10
415.8473161963891
 20
364.7922576320691
 10
536.3000306820111
 20
364.7922576320691
  0
LWPOLYLINE
  5
3422
330
3044
100
AcDbEntity
  8
TOP_LAYER_1
100
AcDbPolyline
 90
        3
 70
     0
 43
0.0
 10
415.8473161963891
 20
384.7922576320691
 10
347.4408334034559
 20
384.7922576320691
 10
347.4408334034559
 20
387.0872763080256
  0
LWPOLYLINE
  5
3427
330
3044
100
AcDbEntity
  8
TOP_LAYER_1
100
AcDbPolyline
 90
       14
 70
     0
 43
0.0
 10
536.3000306820111
 20
364.7922576320691
 10
578.5831126541888
 20
364.7922576320691
 10
578.5831126541888
 20
493.4850576320696
 10
647.5934970341012
 20
493.4850576320696
 10
647.5934970341012
 20
506.4850576320695
 10
988.7976230374153
 20
506.4850576320695
 10
988.7976230374153
 20
249.9850576320692
 10
1003.797623037415
 20
249.9850576320692
 10
1003.797623037415
 20
1.985057632069245
 10
3.797623037415196
 20
1.985057632069294
 10
3.797623037415196
 20
243.9850576320693
 10
18.7976230374152
 20
243.9850576320693
 10
18.79762303741516
 20
466.9850576320691
 10
127.3011968311439
 20
466.9850576320691
  0
LWPOLYLINE
  5
3437
330
3044
100
AcDbEntity
  8
TOP_LAYER_1
100
AcDbPolyline
 90
        4
 70
     0
 43
0.0
 10
478.789119097142
 20
409.7922576320691
 10
553.5831126541888
 20
409.7922576320691
 10
553.5831126541888
 20
384.7922576320691
 10
536.3000306820111
 20
384.7922576320691
  0
ENDSEC
  0
SECTION
  2
OBJECTS
  0
DICTIONARY
  5
3032
330
0
100
AcDbDictionary
  3
ACAD_GROUP
350
3033
  3
ACAD_LAYOUT
350
303F
  3
ACAD_MLINESTYLE
350
303C
  3
ACAD_PLOTSETTINGS
350
303E
  3
ACAD_PLOTSTYLENAME
350
3034
  3
ACDBHEADERROUNDTRIPXREC
350
3441
  3
ACDBVARIABLEDICTIONARY
350
343E
  0
DICTIONARY
  5
3463
330
3044
100
AcDbDictionary
280
     1
  3
ACAD_LAYOUTSELFREF
360
3464
  0
DICTIONARY
  5
3461
330
3040
100
AcDbDictionary
280
     1
  3
ACAD_LAYOUTSELFREF
360
3462
  0
DICTIONARY
  5
3033
102
{ACAD_REACTORS
330
3032
102
}
330
3032
100
AcDbDictionary
  0
DICTIONARY
  5
303F
102
{ACAD_REACTORS
330
3032
102
}
330
3032
100
AcDbDictionary
  0
DICTIONARY
  5
303C
102
{ACAD_REACTORS
330
3032
102
}
330
3032
100
AcDbDictionary
  3
STANDARD
350
303D
  0
DICTIONARY
  5
303E
102
{ACAD_REACTORS
330
3032
102
}
330
3032
100
AcDbDictionary
  0
ACDBDICTIONARYWDFLT
  5
3034
102
{ACAD_REACTORS
330
3032
102
}
330
3032
100
AcDbDictionary
281
     1
  3
Normal
350
3035
100
AcDbDictionaryWithDefault
340
3035
  0
DICTIONARY
  5
3441
102
{ACAD_REACTORS
330
3032
102
}
330
3032
100
AcDbDictionary
  3
CEPSNTYPE
350
344B
  3
FINGERPRINTGUID
350
344C
  3
HYPERLINKBASE
350
3444
  3
INSUNITS
350
344A
  3
LAYOUTDICT
350
3446
  3
LWETCUNION
350
3449
  3
PLOTSETDICT
350
3447
  3
PLOTSTYLNAMDICT
350
3448
  3
PSVPSCALE
350
344E
  3
PUCSBASE
350
3451
  3
PUCSORGBACK
350
3457
  3
PUCSORGBOTTOM
350
3453
  3
PUCSORGFRONT
350
3456
  3
PUCSORGLEFT
350
3454
  3
PUCSORGRIGHT
350
3455
  3
PUCSORGTOP
350
3452
  3
PUCSORTHOREF
350
344F
  3
PUCSORTHOVIEW
350
3450
  3
STYLESHEET
350
3445
  3
TSTACKALIGN
350
3442
  3
TSTACKSIZE
350
3443
  3
UCSBASE
350
345A
  3
UCSORGBACK
350
3460
  3
UCSORGBOTTOM
350
345C
  3
UCSORGFRONT
350
345F
  3
UCSORGLEFT
350
345D
  3
UCSORGRIGHT
350
345E
  3
UCSORGTOP
350
345B
  3
UCSORTHOREF
350
3458
  3
UCSORTHOVIEW
350
3459
  3
VERSIONGUID
350
344D
  0
DICTIONARY
  5
343E
102
{ACAD_REACTORS
330
3032
102
}
330
3032
100
AcDbDictionary
  3
DIMASSOC
350
343F
  0
XRECORD
  5
3464
102
{ACAD_REACTORS
330
3463
102
}
330
3463
100
AcDbXrecord
340
3044
  0
XRECORD
  5
3462
102
{ACAD_REACTORS
330
3461
102
}
330
3461
100
AcDbXrecord
340
3040
  0
MLINESTYLE
  5
303D
102
{ACAD_REACTORS
330
303C
102
}
330
303C
100
AcDbMlineStyle
  2
STANDARD
 70
     0
  3

 62
   256
 51
90.0
 52
90.0
 71
     2
 49
0.5
 62
   256
  6
BYLAYER
 49
-0.5
 62
   256
  6
BYLAYER
  0
ACDBPLACEHOLDER
  5
3035
102
{ACAD_REACTORS
330
3034
102
}
330
3034
100
AcDbPlaceHolder
280
     0
  0
XRECORD
  5
344B
102
{ACAD_REACTORS
330
3441
102
}
330
3441
100
AcDbXrecord
 90
        0
  0
XRECORD
  5
344C
102
{ACAD_REACTORS
330
3441
102
}
330
3441
100
AcDbXrecord
  1
{312AE79B-A5F9-42DB-8F49-5A4E4151B595}
  0
XRECORD
  5
3444
102
{ACAD_REACTORS
330
3441
102
}
330
3441
100
AcDbXrecord
  1

  0
XRECORD
  5
344A
102
{ACAD_REACTORS
330
3441
102
}
330
3441
100
AcDbXrecord
 90
        0
  0
XRECORD
  5
3446
102
{ACAD_REACTORS
330
3441
102
}
330
3441
100
AcDbXrecord
340
303F
  0
XRECORD
  5
3449
102
{ACAD_REACTORS
330
3441
102
}
330
3441
100
AcDbXrecord
 90
    10781
  0
XRECORD
  5
3447
102
{ACAD_REACTORS
330
3441
102
}
330
3441
100
AcDbXrecord
340
303E
  0
XRECORD
  5
3448
102
{ACAD_REACTORS
330
3441
102
}
330
3441
100
AcDbXrecord
340
3034
  0
XRECORD
  5
344E
102
{ACAD_REACTORS
330
3441
102
}
330
3441
100
AcDbXrecord
 40
0.0
  0
XRECORD
  5
3451
102
{ACAD_REACTORS
330
3441
102
}
330
3441
100
AcDbXrecord
340
0
  0
XRECORD
  5
3457
102
{ACAD_REACTORS
330
3441
102
}
330
3441
100
AcDbXrecord
 10
0.0
 20
0.0
 30
0.0
  0
XRECORD
  5
3453
102
{ACAD_REACTORS
330
3441
102
}
330
3441
100
AcDbXrecord
 10
0.0
 20
0.0
 30
0.0
  0
XRECORD
  5
3456
102
{ACAD_REACTORS
330
3441
102
}
330
3441
100
AcDbXrecord
 10
0.0
 20
0.0
 30
0.0
  0
XRECORD
  5
3454
102
{ACAD_REACTORS
330
3441
102
}
330
3441
100
AcDbXrecord
 10
0.0
 20
0.0
 30
0.0
  0
XRECORD
  5
3455
102
{ACAD_REACTORS
330
3441
102
}
330
3441
100
AcDbXrecord
 10
0.0
 20
0.0
 30
0.0
  0
XRECORD
  5
3452
102
{ACAD_REACTORS
330
3441
102
}
330
3441
100
AcDbXrecord
 10
0.0
 20
0.0
 30
0.0
  0
XRECORD
  5
344F
102
{ACAD_REACTORS
330
3441
102
}
330
3441
100
AcDbXrecord
340
0
  0
XRECORD
  5
3450
102
{ACAD_REACTORS
330
3441
102
}
330
3441
100
AcDbXrecord
 70
     0
  0
XRECORD
  5
3445
102
{ACAD_REACTORS
330
3441
102
}
330
3441
100
AcDbXrecord
  1

  0
XRECORD
  5
3442
102
{ACAD_REACTORS
330
3441
102
}
330
3441
100
AcDbXrecord
 90
        1
  0
XRECORD
  5
3443
102
{ACAD_REACTORS
330
3441
102
}
330
3441
100
AcDbXrecord
 90
       70
  0
XRECORD
  5
345A
102
{ACAD_REACTORS
330
3441
102
}
330
3441
100
AcDbXrecord
340
0
  0
XRECORD
  5
3460
102
{ACAD_REACTORS
330
3441
102
}
330
3441
100
AcDbXrecord
 10
0.0
 20
0.0
 30
0.0
  0
XRECORD
  5
345C
102
{ACAD_REACTORS
330
3441
102
}
330
3441
100
AcDbXrecord
 10
0.0
 20
0.0
 30
0.0
  0
XRECORD
  5
345F
102
{ACAD_REACTORS
330
3441
102
}
330
3441
100
AcDbXrecord
 10
0.0
 20
0.0
 30
0.0
  0
XRECORD
  5
345D
102
{ACAD_REACTORS
330
3441
102
}
330
3441
100
AcDbXrecord
 10
0.0
 20
0.0
 30
0.0
  0
XRECORD
  5
345E
102
{ACAD_REACTORS
330
3441
102
}
330
3441
100
AcDbXrecord
 10
0.0
 20
0.0
 30
0.0
  0
XRECORD
  5
345B
102
{ACAD_REACTORS
330
3441
102
}
330
3441
100
AcDbXrecord
 10
0.0
 20
0.0
 30
0.0
  0
XRECORD
  5
3458
102
{ACAD_REACTORS
330
3441
102
}
330
3441
100
AcDbXrecord
340
0
  0
XRECORD
  5
3459
102
{ACAD_REACTORS
330
3441
102
}
330
3441
100
AcDbXrecord
 70
     0
  0
XRECORD
  5
344D
102
{ACAD_REACTORS
330
3441
102
}
330
3441
100
AcDbXrecord
  1
{ADB4F47D-9698-4DEE-958C-145EF42F024F}
  0
DICTIONARYVAR
  5
343F
102
{ACAD_REACTORS
330
343E
102
}
330
343E
100
DictionaryVariables
280
     0
  1
1
  0
ENDSEC
  0
EOF
